<?xml version="1.0" encoding="UTF-8"?><svg id="Direktschall_KURVEN" xmlns="http://www.w3.org/2000/svg" viewBox="0 0 1000 780"><defs><style>.cls-1{fill:#ee7f00;}.cls-2{stroke-dasharray:0 0 12.36 12.36;}.cls-2,.cls-3,.cls-4,.cls-5,.cls-6,.cls-7,.cls-8,.cls-9,.cls-10,.cls-11{stroke-miterlimit:10;}.cls-2,.cls-3,.cls-4,.cls-5,.cls-6,.cls-7,.cls-8,.cls-10,.cls-11{fill:none;}.cls-2,.cls-3,.cls-4,.cls-5,.cls-6,.cls-7,.cls-10,.cls-11{stroke-width:4px;}.cls-2,.cls-3,.cls-4,.cls-5,.cls-6,.cls-7,.cls-11{stroke:#999;}.cls-3{stroke-dasharray:0 0 11.72 11.72;}.cls-4{stroke-dasharray:0 0 11.59 11.59;}.cls-12{fill:#282828;}.cls-5{stroke-dasharray:0 0 11.78 11.78;}.cls-7{stroke-dasharray:0 0 11.87 11.87;}.cls-8{stroke:#ee7f00;stroke-width:6px;}.cls-13{fill:#999;}.cls-14{fill:#b3b3b3;}.cls-9{fill:#fff;stroke:#000;stroke-width:3px;}.cls-10{stroke:#666;}.cls-15{fill:#666;}.cls-11{stroke-dasharray:0 0 12.14 12.14;}</style></defs><g><circle class="cls-14" cx="155.53" cy="628.21" r="10"/><path class="cls-14" d="M165.74,587.47l-.97,3.88c20.32,5.09,32.72,25.77,27.62,46.1l3.88,.97c5.63-22.46-8.07-45.32-30.53-50.95Z"/><path class="cls-14" d="M175.47,548.67l-.97,3.88c41.72,10.46,67.15,52.9,56.7,94.62l3.88,.97c10.99-43.86-15.75-88.48-59.61-99.47Z"/><path class="cls-14" d="M187.62,500.17l-.97,3.88c68.46,17.16,110.2,86.82,93.04,155.28l3.88,.97c17.69-70.6-25.35-142.43-95.95-160.13Z"/><polygon points="113.73 746.52 199.51 695.12 190.37 679.86 184.65 683.29 190.37 692.83 116.02 737.37 40.64 611.56 114.98 567.02 120.69 576.55 126.41 573.13 117.27 557.87 31.49 609.27 113.73 746.52"/><path d="M118.35,624.52l22.9,38.22c18.5-5.09,26.08-.22,39.98,14.83l5.72-3.43-57.1-95.3-5.72,3.43c6.72,19.35,7.44,28.33-5.77,42.25Z"/></g><g><path class="cls-9" d="M700.64,435.99c27.55,0,49.88-20.19,49.88-45.09,0-24.9-22.33-45.09-49.88-45.09-26.34,0-47.86,18.47-49.7,41.85h-.98c-1.79,0-3.24,1.45-3.24,3.24,0,1.79,1.45,3.24,3.24,3.24h.98c1.84,23.38,23.36,41.85,49.7,41.85Z"/><path class="cls-12" d="M678.28,431.22c10.39-10.68,2.82-33.05-2.15-39.16-4.97-6.11-14.17-27.3-.53-40.39,13.64-13.09,69.89-22.57,76.71-.34,4.77,15.58,10.46,22.1,13.49,37.45,3.03,15.35-.35,39.4-18.58,50.25-12.25,6.13-55.82,2.48-68.93-7.8Z"/></g><g><g><line class="cls-8" x1="169.9" y1="617.65" x2="683.25" y2="456.99"/><polygon class="cls-1" points="683.59 475.69 707.9 449.28 672.87 441.43 683.59 475.69"/></g><g><path class="cls-1" d="M378.3,527.91c.58,1.84,.81,3.61,.69,5.31-.12,1.7-.54,3.25-1.28,4.67-.74,1.42-1.76,2.66-3.08,3.73-1.31,1.07-2.89,1.88-4.72,2.46l-9.28,2.9-7.72-24.67,9.28-2.9c1.83-.57,3.59-.8,5.28-.67s3.24,.56,4.65,1.31c1.42,.75,2.66,1.79,3.72,3.12,1.07,1.33,1.88,2.92,2.46,4.75Zm-3.75,1.17c-.46-1.47-1.07-2.72-1.83-3.75-.76-1.04-1.64-1.84-2.63-2.42-.99-.58-2.08-.91-3.26-1.01-1.18-.1-2.42,.06-3.71,.46l-5.6,1.75,5.87,18.76,5.6-1.75c1.29-.4,2.4-.98,3.31-1.73,.92-.75,1.62-1.65,2.1-2.69,.49-1.04,.75-2.2,.79-3.48,.04-1.28-.17-2.66-.63-4.14Z"/><path class="cls-1" d="M382.74,514.98c.1,.31,.13,.62,.09,.94-.04,.32-.13,.62-.28,.9-.15,.28-.34,.52-.59,.73-.25,.21-.53,.36-.84,.46s-.62,.13-.93,.09-.61-.12-.89-.27c-.28-.14-.52-.34-.73-.58s-.36-.52-.46-.83c-.1-.32-.13-.64-.1-.96,.03-.32,.12-.62,.27-.89,.15-.28,.34-.52,.57-.73,.24-.21,.51-.36,.82-.46s.63-.13,.95-.1c.32,.03,.62,.12,.9,.26,.28,.15,.52,.34,.74,.58,.21,.24,.37,.52,.47,.84Zm1.05,5.59l5.46,17.45-3.35,1.05-5.46-17.45,3.35-1.05Z"/><path class="cls-1" d="M392.87,521.41c.2-1.32,.6-2.43,1.18-3.33,.59-.9,1.43-1.52,2.55-1.87,.38-.12,.75-.19,1.11-.21s.7,.02,1.01,.11l.57,2.59c.02,.33-.12,.55-.42,.64-.16,.05-.41,.09-.75,.13-.34,.04-.69,.11-1.06,.23-.54,.17-.99,.39-1.35,.68-.37,.28-.66,.63-.89,1.03-.23,.41-.4,.87-.52,1.39-.11,.52-.19,1.09-.23,1.72l3.42,10.93-3.35,1.05-5.46-17.45,1.92-.6c.37-.11,.64-.13,.81-.04,.17,.09,.34,.29,.5,.61l.97,2.39Z"/><path class="cls-1" d="M419.6,525.79c-.26,.61-.61,1.17-1.04,1.69-.43,.52-.91,.98-1.45,1.39-.54,.41-1.12,.76-1.73,1.07-.62,.31-1.24,.56-1.87,.75-1.2,.38-2.38,.52-3.53,.44-1.15-.08-2.23-.4-3.22-.95s-1.88-1.34-2.67-2.37c-.78-1.03-1.41-2.3-1.88-3.82-.38-1.21-.54-2.4-.49-3.57,.05-1.17,.3-2.25,.77-3.25s1.13-1.88,2.01-2.65c.88-.76,1.96-1.35,3.23-1.75,1.06-.33,2.1-.47,3.11-.4,1.01,.07,1.94,.33,2.8,.79,.86,.46,1.63,1.12,2.31,1.97,.68,.86,1.21,1.91,1.6,3.16,.16,.52,.21,.88,.15,1.09-.06,.21-.24,.37-.55,.46l-11.44,3.58c.36,1.03,.79,1.89,1.3,2.58,.51,.69,1.07,1.22,1.7,1.59,.63,.37,1.3,.58,2.02,.63,.72,.05,1.47-.05,2.26-.29,.75-.23,1.36-.52,1.85-.86s.9-.67,1.23-1c.33-.32,.61-.61,.82-.87,.21-.26,.42-.42,.63-.48,.27-.09,.52-.05,.73,.11l1.35,.94Zm-5.32-7.31c-.21-.66-.49-1.25-.86-1.75-.37-.5-.79-.9-1.29-1.2-.5-.3-1.04-.48-1.64-.54-.6-.06-1.24,.01-1.93,.23-1.41,.44-2.39,1.19-2.94,2.26-.55,1.07-.71,2.35-.48,3.87l9.14-2.86Z"/><path class="cls-1" d="M419.66,500.67l4.64,14.82,.79-.25c.24-.08,.43-.17,.57-.29s.26-.31,.37-.57l3.42-7.39c.09-.27,.22-.49,.38-.66,.16-.17,.39-.3,.69-.39l3.06-.96-4.05,8.68c-.2,.53-.45,.97-.76,1.31,.26,.08,.51,.19,.74,.33,.23,.14,.46,.3,.69,.48l9.25,6.52-3.01,.94c-.28,.09-.53,.11-.76,.09-.23-.03-.46-.14-.7-.33l-7.59-5.32c-.25-.21-.48-.33-.67-.35-.2-.02-.46,.02-.81,.13l-.89,.28,2.59,8.26-3.35,1.05-7.94-25.36,3.35-1.05Z"/><path class="cls-1" d="M447.47,520.11c-1.41,.44-2.62,.39-3.63-.17-1.01-.55-1.74-1.56-2.2-3.03l-3.27-10.44-2.03,.63c-.19,.06-.38,.05-.55-.03s-.29-.24-.37-.48l-.42-1.36,2.71-1.28-.87-5.44c-.02-.21,.03-.39,.12-.54s.25-.26,.46-.32l1.7-.53,1.83,5.86,4.95-1.55,.76,2.44-4.95,1.55,3.2,10.22c.22,.69,.54,1.15,.99,1.38,.44,.23,.93,.27,1.46,.1,.31-.1,.56-.22,.76-.37,.2-.15,.36-.3,.49-.45,.13-.15,.24-.28,.33-.4,.09-.12,.18-.19,.27-.22,.11-.04,.21-.04,.29,0,.08,.03,.17,.1,.28,.19l1.5,1.3c-.39,.68-.92,1.27-1.59,1.78-.67,.51-1.41,.89-2.22,1.15Z"/><path class="cls-1" d="M460.13,499.98c-.05,.18-.11,.31-.19,.41-.08,.1-.21,.17-.37,.22-.18,.06-.41,.06-.67,0-.26-.06-.58-.11-.94-.16s-.77-.07-1.24-.07-.99,.1-1.57,.28c-.48,.15-.9,.35-1.26,.59-.36,.24-.64,.52-.85,.81-.21,.3-.34,.62-.4,.96-.06,.34-.04,.67,.07,1,.14,.44,.38,.76,.73,.96,.35,.21,.76,.35,1.24,.42s1.02,.11,1.6,.11c.58,0,1.18,0,1.79,.01,.61,0,1.22,.05,1.83,.12,.61,.07,1.17,.21,1.7,.43,.53,.22,1,.53,1.41,.95,.41,.41,.73,.97,.95,1.68,.25,.81,.34,1.61,.27,2.4-.07,.79-.32,1.52-.73,2.2-.41,.68-.99,1.3-1.73,1.84-.75,.55-1.66,.99-2.73,1.33-1.2,.38-2.38,.52-3.52,.44s-2.16-.32-3.04-.73l.39-1.54c.04-.19,.12-.35,.23-.48,.11-.13,.28-.23,.51-.3,.22-.07,.47-.06,.75,.03,.28,.09,.61,.18,.99,.27,.38,.09,.82,.14,1.33,.15,.51,.01,1.1-.09,1.79-.31,.57-.18,1.05-.41,1.43-.68,.38-.28,.67-.58,.87-.92,.2-.33,.32-.68,.36-1.05,.04-.36,0-.72-.11-1.08-.14-.46-.39-.8-.74-1.02-.35-.22-.77-.38-1.26-.46-.49-.09-1.02-.13-1.61-.12-.59,0-1.19,0-1.81,0-.62,0-1.23-.05-1.85-.12s-1.19-.23-1.72-.46c-.53-.24-1.01-.58-1.43-1.02-.42-.45-.75-1.05-.99-1.8-.21-.68-.27-1.37-.19-2.07,.09-.71,.32-1.38,.71-2.01,.39-.64,.93-1.22,1.62-1.74,.7-.53,1.55-.95,2.56-1.26,1.16-.36,2.26-.5,3.31-.43,1.05,.07,2,.33,2.87,.76l-.36,1.45Z"/><path class="cls-1" d="M477.08,494.96c-.06,.16-.13,.29-.21,.39-.07,.11-.2,.19-.39,.24-.18,.06-.4,.04-.64-.04s-.55-.16-.9-.23c-.36-.07-.77-.11-1.25-.12-.47,0-1.03,.08-1.66,.28-.83,.26-1.51,.64-2.04,1.13-.54,.49-.93,1.08-1.17,1.76-.25,.68-.36,1.45-.32,2.31,.03,.86,.2,1.78,.51,2.76,.32,1.02,.72,1.89,1.2,2.62,.48,.72,1.01,1.29,1.61,1.7,.59,.41,1.24,.66,1.93,.75s1.41,.02,2.16-.21c.72-.23,1.29-.5,1.7-.83,.41-.32,.74-.64,.99-.94,.24-.3,.44-.58,.59-.82,.15-.24,.33-.4,.55-.46,.28-.09,.52-.05,.73,.11l1.35,.94c-.25,.62-.57,1.18-.96,1.68-.39,.5-.83,.95-1.33,1.34-.49,.39-1.03,.74-1.61,1.03-.58,.3-1.19,.54-1.81,.74-1.09,.34-2.17,.46-3.24,.35-1.07-.11-2.07-.43-3-.98-.93-.55-1.78-1.32-2.53-2.31s-1.35-2.2-1.79-3.62c-.41-1.29-.6-2.55-.58-3.76,.02-1.21,.25-2.33,.71-3.34,.46-1.02,1.13-1.91,2.02-2.69,.89-.78,2-1.37,3.33-1.79,1.25-.39,2.41-.53,3.49-.43s2.1,.41,3.08,.9l-.51,1.52Z"/><path class="cls-1" d="M484.31,491.55c.5-.97,1.12-1.83,1.87-2.57,.75-.74,1.69-1.28,2.85-1.65,.96-.3,1.86-.41,2.68-.31,.83,.09,1.58,.35,2.25,.78,.67,.42,1.26,1,1.77,1.74,.51,.73,.91,1.59,1.22,2.58l3.48,11.12-3.37,1.05-3.48-11.11c-.39-1.25-.98-2.13-1.77-2.64-.79-.51-1.77-.58-2.95-.22-.86,.27-1.6,.72-2.22,1.37s-1.15,1.41-1.57,2.31l4,12.8-3.35,1.05-7.94-25.36,3.35-1.05,3.17,10.12Z"/><path class="cls-1" d="M499.81,486.95c.68-1.23,1.52-2.26,2.52-3.07,1-.81,2.18-1.44,3.54-1.86,1-.31,1.93-.42,2.8-.34s1.66,.34,2.37,.76c.71,.42,1.33,.99,1.85,1.72,.52,.73,.94,1.58,1.25,2.57l3.48,11.13-1.5,.47c-.33,.1-.6,.13-.81,.07s-.41-.22-.6-.48l-.84-1.42c-.32,.55-.65,1.05-.98,1.51-.34,.45-.71,.86-1.11,1.23-.4,.37-.86,.7-1.36,.98-.5,.28-1.08,.53-1.73,.73-.69,.21-1.36,.32-2.02,.32s-1.27-.13-1.84-.38c-.57-.25-1.07-.63-1.51-1.13s-.78-1.14-1.03-1.92c-.21-.69-.24-1.41-.06-2.16,.17-.75,.6-1.51,1.29-2.28,.68-.77,1.65-1.52,2.91-2.27,1.26-.75,2.87-1.45,4.84-2.12l-.4-1.27c-.41-1.32-1-2.21-1.77-2.69-.77-.48-1.69-.55-2.78-.21-.73,.23-1.32,.51-1.76,.85-.44,.34-.81,.68-1.1,1.01-.29,.34-.54,.64-.75,.91-.21,.27-.46,.45-.75,.54-.23,.07-.45,.07-.65,0-.21-.07-.39-.18-.54-.32l-.94-.89Zm12.1,4.19c-1.35,.47-2.47,.94-3.37,1.4-.9,.46-1.6,.93-2.11,1.39-.51,.46-.84,.92-.98,1.37-.15,.46-.15,.91,0,1.37,.14,.44,.33,.79,.57,1.06,.24,.27,.52,.47,.83,.59s.64,.18,1,.17c.36-.01,.74-.08,1.13-.2,.51-.16,.97-.36,1.37-.6,.4-.24,.75-.51,1.07-.82,.32-.31,.61-.65,.87-1.04,.26-.38,.5-.8,.72-1.26l-1.08-3.44Z"/><path class="cls-1" d="M517.61,470.02l7.94,25.36-3.37,1.05-7.94-25.36,3.37-1.05Z"/><path class="cls-1" d="M525.83,467.45l7.93,25.36-3.37,1.05-7.94-25.36,3.37-1.05Z"/></g></g><g><g><polyline class="cls-10" points="169.9 617.65 466.14 752.69 706.5 468.37"/><polygon class="cls-15" points="713.38 478.77 717.62 455.22 695.1 463.32 713.38 478.77"/></g><g><path class="cls-15" d="M503.16,693.55l2.38,2.01-10.29,12.28-19.81-16.6,10.29-12.28,2.39,2-7.81,9.33,6.28,5.26,6.29-7.5,2.3,1.93-6.29,7.51,6.46,5.41,7.83-9.34Z"/><path class="cls-15" d="M498.63,680.8c-.54-1.22-.81-2.37-.8-3.44s.38-2.06,1.13-2.95c.25-.3,.53-.56,.83-.78,.29-.21,.6-.36,.91-.45l1.88,1.88c.19,.27,.19,.53,0,.77-.11,.13-.3,.3-.56,.52-.27,.22-.52,.47-.77,.76-.36,.43-.62,.87-.77,1.3-.15,.44-.22,.89-.19,1.35,.02,.47,.13,.95,.31,1.45,.19,.5,.43,1.03,.73,1.58l8.77,7.35-2.25,2.69-14.02-11.75,1.29-1.55c.25-.29,.47-.45,.66-.47,.19-.02,.44,.06,.75,.24l2.11,1.49Z"/><path class="cls-15" d="M511.55,664.82c.06,.17,.08,.32,.06,.45-.02,.12-.08,.25-.19,.38-.12,.15-.31,.27-.56,.36-.25,.1-.54,.22-.88,.37-.33,.15-.69,.36-1.08,.61-.39,.26-.78,.62-1.17,1.09-.32,.39-.57,.78-.74,1.18-.17,.4-.26,.78-.28,1.14s.04,.7,.18,1.02,.33,.59,.6,.81c.35,.29,.73,.43,1.13,.42,.4-.01,.83-.12,1.28-.32s.92-.45,1.41-.77c.49-.32,1-.63,1.52-.96,.52-.32,1.06-.62,1.6-.89,.55-.27,1.1-.45,1.66-.55,.56-.1,1.13-.09,1.7,.04,.57,.12,1.14,.43,1.71,.9,.65,.55,1.16,1.17,1.52,1.87,.36,.7,.55,1.45,.58,2.24s-.13,1.62-.46,2.49c-.33,.86-.86,1.73-1.58,2.59-.81,.97-1.72,1.72-2.73,2.27-1.01,.55-1.99,.89-2.95,1.03l-.5-1.5c-.07-.18-.09-.36-.07-.52,.02-.17,.11-.34,.27-.53,.15-.17,.36-.3,.64-.38,.28-.08,.61-.18,.98-.31s.77-.33,1.2-.59c.43-.26,.88-.67,1.34-1.22,.39-.46,.66-.91,.83-1.34,.17-.44,.25-.85,.24-1.24,0-.39-.1-.75-.26-1.07s-.39-.61-.68-.85c-.37-.31-.76-.46-1.18-.46-.42,0-.85,.1-1.31,.29-.46,.19-.93,.45-1.42,.77-.49,.32-1,.65-1.52,.98-.53,.33-1.07,.62-1.62,.9-.55,.27-1.12,.45-1.7,.54-.58,.09-1.16,.06-1.76-.09-.6-.15-1.2-.48-1.8-.98-.54-.46-.97-1-1.28-1.64-.31-.64-.47-1.33-.49-2.08-.02-.74,.12-1.52,.43-2.34,.3-.82,.79-1.63,1.47-2.44,.78-.93,1.63-1.64,2.55-2.15,.92-.5,1.86-.81,2.83-.91l.48,1.41Z"/><path class="cls-15" d="M530.17,666.61c-.95,1.13-2,1.74-3.14,1.82-1.15,.08-2.31-.37-3.49-1.36l-8.39-7.03-1.37,1.63c-.13,.16-.29,.25-.47,.27-.18,.03-.37-.04-.57-.21l-1.09-.91,1.59-2.54-3.67-4.11c-.13-.17-.19-.34-.19-.52,0-.18,.07-.35,.21-.52l1.14-1.37,4.71,3.94,3.33-3.97,1.96,1.64-3.33,3.97,8.21,6.88c.55,.46,1.08,.67,1.58,.63,.5-.04,.93-.28,1.28-.7,.21-.25,.36-.49,.44-.72,.09-.23,.14-.45,.17-.64,.03-.19,.05-.37,.06-.51,.01-.15,.05-.26,.11-.33,.08-.09,.16-.15,.24-.16,.08-.01,.2-.01,.33,0l1.97,.29c.04,.78-.09,1.57-.38,2.36-.29,.79-.71,1.51-1.25,2.17Z"/><path class="cls-15" d="M542.22,647.72c.11,.66,.12,1.32,.04,1.98s-.24,1.32-.47,1.95c-.23,.63-.53,1.25-.88,1.83s-.74,1.14-1.16,1.64c-.81,.97-1.72,1.72-2.74,2.27-1.02,.55-2.09,.86-3.23,.94-1.13,.08-2.31-.11-3.52-.56-1.22-.45-2.43-1.18-3.64-2.2-.97-.82-1.75-1.73-2.34-2.74-.59-1.01-.96-2.06-1.11-3.15-.15-1.09-.06-2.2,.26-3.31,.33-1.12,.92-2.19,1.77-3.21,.72-.86,1.52-1.53,2.4-2.01,.88-.49,1.81-.77,2.79-.84,.97-.08,1.98,.06,3.01,.42,1.03,.36,2.05,.96,3.05,1.79,.41,.35,.65,.63,.72,.84,.07,.21,0,.44-.21,.69l-7.7,9.19c.86,.67,1.69,1.16,2.49,1.47,.8,.31,1.56,.45,2.29,.42,.72-.03,1.41-.21,2.04-.56s1.22-.83,1.75-1.47c.5-.6,.87-1.17,1.09-1.73,.23-.55,.39-1.05,.5-1.51,.11-.45,.18-.84,.22-1.18,.04-.33,.13-.58,.27-.75,.19-.22,.41-.32,.68-.3l1.64,.06Zm-8.43-3.28c-.53-.45-1.09-.78-1.67-1.01s-1.16-.33-1.73-.31c-.58,.02-1.13,.16-1.67,.43-.54,.27-1.04,.68-1.5,1.23-.95,1.13-1.37,2.29-1.26,3.49,.11,1.2,.67,2.37,1.68,3.51l6.15-7.34Z"/><path class="cls-15" d="M565.57,623.92l-2.2,2.62c-.44,.52-.97,.73-1.58,.62l-10.98-.86c-.36-.04-.67,0-.92,.1s-.53,.34-.84,.71l-1.61,1.92,8.13,6.81-2.46,2.94-19.81-16.6,4.79-5.71c1.07-1.28,2.12-2.27,3.16-2.98,1.04-.7,2.05-1.16,3.04-1.35,.99-.2,1.94-.16,2.87,.12,.92,.28,1.81,.78,2.65,1.48,.69,.58,1.25,1.23,1.68,1.95,.43,.72,.71,1.49,.85,2.3,.14,.81,.14,1.66,0,2.54-.14,.88-.44,1.77-.88,2.67,.53-.18,1.1-.24,1.72-.18l12.38,.89Zm-18.01,.64c.63-.75,1.1-1.5,1.39-2.22,.3-.73,.44-1.43,.43-2.1-.01-.67-.17-1.29-.47-1.88-.3-.58-.74-1.11-1.3-1.58-1.14-.96-2.31-1.3-3.52-1.04-1.21,.26-2.44,1.15-3.7,2.65l-2.32,2.77,7.24,6.07,2.24-2.68Z"/><path class="cls-15" d="M574.11,609.66c.11,.65,.12,1.32,.04,1.98-.08,.67-.24,1.32-.47,1.95-.23,.63-.53,1.25-.88,1.83-.35,.59-.74,1.14-1.16,1.64-.81,.97-1.72,1.72-2.74,2.27s-2.09,.86-3.23,.94-2.31-.11-3.53-.56c-1.21-.45-2.43-1.18-3.64-2.2-.97-.82-1.75-1.73-2.34-2.74-.59-1.01-.96-2.06-1.11-3.15-.15-1.09-.06-2.19,.26-3.31s.92-2.19,1.77-3.21c.72-.86,1.52-1.53,2.4-2.01,.89-.49,1.82-.77,2.79-.85,.97-.08,1.98,.06,3.01,.42,1.03,.36,2.05,.96,3.05,1.79,.41,.35,.65,.63,.72,.84,.07,.21,0,.44-.21,.69l-7.7,9.19c.86,.67,1.69,1.17,2.49,1.47,.8,.31,1.56,.45,2.29,.42s1.41-.21,2.04-.56,1.22-.84,1.75-1.47c.5-.6,.87-1.17,1.09-1.72,.23-.55,.39-1.06,.5-1.51,.1-.45,.18-.84,.22-1.18s.13-.58,.27-.75c.18-.22,.41-.32,.68-.3l1.64,.06Zm-8.43-3.28c-.53-.45-1.09-.78-1.67-1.01-.58-.22-1.16-.33-1.73-.31-.58,.02-1.14,.16-1.67,.43-.54,.27-1.04,.68-1.5,1.23-.95,1.13-1.37,2.29-1.26,3.49,.11,1.2,.67,2.37,1.68,3.51l6.15-7.34Z"/><path class="cls-15" d="M579.38,607.45l-11.81-9.9-1.4,1.31c-.22,.17-.44,.28-.66,.33-.22,.04-.43-.02-.63-.19l-1.12-.94,1.83-2.18-.69-.58c-.77-.65-1.4-1.38-1.89-2.2-.49-.82-.8-1.68-.92-2.6-.12-.92-.03-1.86,.27-2.84,.3-.98,.86-1.95,1.68-2.93,.66-.79,1.32-1.52,1.98-2.18,.66-.66,1.27-1.34,1.85-2.03l1.26-1.5,20.02,16.77-2.25,2.69-18.13-15.19c-.43,.48-.87,.96-1.31,1.43s-.81,.88-1.11,1.24c-.96,1.15-1.37,2.31-1.23,3.48,.14,1.17,.8,2.25,1.99,3.24l.69,.58,2.98-3.56,1.96,1.64-2.91,3.48,11.84,9.92-2.27,2.7Z"/><path class="cls-15" d="M599.99,578.78c.11,.65,.12,1.32,.04,1.98-.08,.67-.24,1.32-.47,1.95-.23,.63-.53,1.25-.88,1.83-.35,.59-.74,1.14-1.17,1.64-.81,.96-1.72,1.72-2.74,2.27-1.02,.55-2.09,.86-3.23,.94-1.13,.07-2.31-.11-3.52-.56-1.22-.45-2.43-1.18-3.64-2.2-.97-.82-1.75-1.73-2.34-2.74-.59-1.01-.96-2.06-1.11-3.15-.15-1.09-.06-2.19,.26-3.31s.92-2.19,1.77-3.21c.72-.85,1.52-1.53,2.4-2.01,.88-.49,1.81-.77,2.79-.85,.97-.08,1.97,.06,3.01,.42,1.03,.36,2.05,.96,3.05,1.79,.41,.35,.65,.63,.72,.84,.07,.21,0,.44-.21,.69l-7.7,9.19c.86,.67,1.69,1.17,2.49,1.47,.8,.31,1.56,.45,2.29,.42,.72-.03,1.41-.21,2.04-.56s1.22-.84,1.75-1.47c.5-.6,.87-1.17,1.09-1.72,.23-.55,.39-1.05,.5-1.51,.11-.45,.18-.84,.22-1.18,.04-.33,.13-.58,.27-.75,.19-.22,.41-.32,.68-.3l1.64,.06Zm-8.43-3.28c-.53-.45-1.09-.78-1.67-1.01s-1.16-.33-1.73-.31c-.58,.02-1.13,.16-1.67,.43-.54,.27-1.04,.68-1.5,1.23-.95,1.13-1.37,2.29-1.26,3.49,.11,1.2,.67,2.37,1.68,3.51l6.15-7.34Z"/><path class="cls-15" d="M614.28,565.79l-2.17,2.59c-.18,.21-.38,.33-.59,.36-.22,.03-.42,.02-.62,0l-8.17-1.09c.1,.16,.2,.32,.29,.47,.09,.15,.16,.31,.21,.48l1.98,6.94c.05,.2,.09,.41,.1,.62,.01,.21-.06,.42-.22,.61l-2.01,2.4-3.12-10.93-10.73-1.01,2.17-2.59c.18-.21,.34-.34,.48-.38,.14-.04,.31-.05,.5-.01l7.9,.96c-.1-.16-.19-.33-.28-.49-.09-.17-.17-.36-.24-.57l-1.84-6.4c-.16-.41-.12-.76,.11-1.03l2.07-2.47,2.75,10.29,11.43,1.27Z"/><path class="cls-15" d="M600.51,544.94c.25,.21,.44,.46,.58,.75,.14,.29,.22,.59,.25,.9,.03,.31,0,.63-.1,.94s-.25,.59-.46,.84-.45,.44-.73,.58c-.28,.14-.58,.22-.89,.25-.31,.03-.62,0-.93-.1-.3-.09-.58-.24-.83-.45-.26-.22-.46-.47-.6-.75-.14-.29-.23-.58-.26-.9-.03-.31,0-.62,.09-.92,.09-.3,.24-.58,.45-.82,.21-.25,.46-.45,.75-.6s.59-.24,.9-.27c.31-.03,.62,0,.94,.09,.31,.09,.59,.24,.85,.46Zm3.91,4.14l14.02,11.75-2.25,2.69-14.02-11.74,2.25-2.69Z"/><path class="cls-15" d="M612.48,539.02c.86-1.03,1.81-1.82,2.85-2.37,1.03-.55,2.11-.85,3.23-.91,1.12-.06,2.25,.13,3.4,.56,1.15,.43,2.28,1.11,3.38,2.03,1.1,.93,1.97,1.92,2.6,2.98,.63,1.06,1.01,2.14,1.15,3.25,.14,1.11,.02,2.22-.34,3.33-.36,1.12-.97,2.19-1.84,3.22-.87,1.04-1.82,1.84-2.86,2.39-1.03,.55-2.11,.86-3.23,.92-1.12,.07-2.26-.12-3.42-.55-1.16-.43-2.29-1.11-3.39-2.03-1.1-.92-1.97-1.92-2.59-2.98-.62-1.06-1-2.15-1.14-3.27-.14-1.12-.02-2.23,.34-3.34,.36-1.11,.98-2.19,1.85-3.23Zm12.33,10.33c1.11-1.33,1.49-2.69,1.15-4.09-.34-1.4-1.33-2.78-2.95-4.14-1.62-1.36-3.15-2.08-4.59-2.18-1.44-.1-2.72,.51-3.83,1.84-1.12,1.34-1.51,2.72-1.17,4.13,.35,1.41,1.33,2.79,2.95,4.15,1.62,1.36,3.15,2.08,4.59,2.17,1.44,.09,2.73-.54,3.85-1.88Z"/><path class="cls-15" d="M624.91,528.58c-.07-.57-.09-1.14-.08-1.69,.01-.55,.08-1.1,.2-1.63,.12-.53,.31-1.05,.56-1.57,.25-.52,.58-1.02,.99-1.51,.65-.77,1.34-1.34,2.09-1.71,.75-.37,1.52-.56,2.31-.56,.8,0,1.61,.16,2.43,.51,.82,.34,1.63,.85,2.42,1.51l8.93,7.48-2.27,2.7-8.93-7.48c-1-.84-1.97-1.26-2.92-1.27s-1.81,.46-2.6,1.41c-.58,.69-.96,1.47-1.13,2.35-.18,.88-.2,1.81-.07,2.79l10.28,8.61-2.25,2.69-14.02-11.74,1.35-1.62c.31-.38,.69-.46,1.13-.25l1.58,.97Z"/><path class="cls-15" d="M655.44,512.6c.11,.65,.12,1.32,.04,1.98-.08,.67-.24,1.32-.47,1.95-.23,.63-.53,1.25-.88,1.83-.35,.59-.74,1.14-1.16,1.64-.81,.96-1.72,1.72-2.74,2.27-1.02,.55-2.09,.86-3.23,.94-1.14,.07-2.31-.11-3.53-.56-1.21-.45-2.43-1.18-3.64-2.2-.97-.82-1.75-1.73-2.34-2.74-.59-1.01-.96-2.06-1.11-3.15-.15-1.09-.06-2.19,.26-3.31,.33-1.12,.92-2.19,1.78-3.21,.72-.85,1.52-1.53,2.4-2.01,.88-.49,1.81-.77,2.79-.85,.97-.08,1.97,.06,3.01,.42,1.03,.36,2.05,.96,3.05,1.79,.41,.35,.65,.63,.72,.84,.07,.21,0,.44-.21,.69l-7.7,9.19c.86,.67,1.69,1.17,2.49,1.47s1.56,.45,2.29,.42c.72-.03,1.41-.21,2.04-.56,.63-.35,1.22-.83,1.75-1.47,.5-.6,.87-1.17,1.09-1.73,.23-.55,.39-1.05,.5-1.51,.11-.45,.18-.84,.22-1.18s.13-.58,.27-.75c.19-.22,.41-.32,.68-.3l1.64,.06Zm-8.43-3.28c-.53-.45-1.09-.78-1.67-1.01-.58-.22-1.16-.33-1.73-.31-.58,.02-1.14,.16-1.67,.43-.54,.27-1.04,.68-1.5,1.23-.95,1.13-1.37,2.29-1.26,3.49,.11,1.2,.67,2.37,1.68,3.51l6.15-7.34Z"/><path class="cls-15" d="M650.09,498.53c-.07-.57-.1-1.14-.09-1.69,.01-.55,.08-1.1,.2-1.63,.12-.53,.31-1.05,.56-1.57,.25-.52,.58-1.02,.99-1.51,.65-.77,1.34-1.34,2.09-1.71,.75-.37,1.52-.56,2.31-.56,.8,0,1.61,.16,2.43,.51,.82,.34,1.63,.85,2.42,1.51l8.93,7.48-2.27,2.71-8.93-7.48c-1-.84-1.97-1.26-2.92-1.27-.94,0-1.81,.46-2.6,1.41-.58,.69-.96,1.47-1.14,2.35-.18,.88-.2,1.81-.07,2.79l10.28,8.61-2.25,2.69-14.02-11.75,1.35-1.61c.32-.38,.69-.46,1.13-.25l1.58,.97Z"/></g></g><g><g><line class="cls-6" x1="169.9" y1="617.65" x2="173.6" y2="612.92"/><line class="cls-11" x1="181.09" y1="603.37" x2="626.47" y2="35.03"/><polyline class="cls-6" points="630.22 30.25 633.92 25.53 638.42 29.5"/><line class="cls-5" x1="647.25" y1="37.29" x2="960.89" y2="313.73"/><polyline class="cls-6" points="965.31 317.62 969.81 321.59 966.11 326.31"/><line class="cls-3" x1="958.88" y1="335.54" x2="702.38" y2="663.03"/><line class="cls-6" x1="698.77" y1="667.64" x2="695.07" y2="672.36"/><polygon class="cls-13" points="687.8 662.23 684.45 685.92 706.64 676.98 687.8 662.23"/></g><g><line class="cls-6" x1="169.9" y1="617.65" x2="174.21" y2="613.47"/><line class="cls-7" x1="182.73" y1="605.2" x2="774.97" y2="30.54"/><polyline class="cls-6" points="779.23 26.41 783.53 22.23 788.06 26.17"/><line class="cls-2" x1="797.39" y1="34.28" x2="960.62" y2="176.2"/><polyline class="cls-6" points="965.28 180.26 969.81 184.2 965.89 188.74"/><line class="cls-4" x1="958.33" y1="197.53" x2="841.1" y2="333.73"/><line class="cls-6" x1="837.32" y1="338.13" x2="833.41" y2="342.67"/><polygon class="cls-13" points="826.62 332.21 822.17 355.73 844.76 347.83 826.62 332.21"/></g><g><path class="cls-15" d="M494.26,265.59l6.66,15.7-1.48,1.49-15.73-6.6,1.32-1.33c.15-.15,.3-.23,.46-.25s.33,0,.49,.07l10.62,4.55c.26,.11,.54,.25,.83,.4,.29,.15,.59,.32,.89,.51-.19-.3-.37-.58-.53-.87-.16-.28-.3-.56-.41-.82l-4.6-10.59c-.07-.14-.09-.3-.08-.47,.02-.17,.1-.33,.24-.47l1.33-1.33Z"/><path class="cls-15" d="M498.04,263.46c.14,.14,.25,.3,.32,.49,.07,.18,.11,.37,.11,.56,0,.19-.04,.38-.11,.56-.07,.18-.18,.35-.32,.49-.14,.14-.3,.25-.48,.32-.18,.07-.36,.11-.56,.11-.19,0-.38-.04-.56-.11-.18-.07-.34-.18-.48-.32-.14-.14-.25-.31-.33-.49-.07-.18-.11-.37-.11-.56s.03-.38,.1-.56c.07-.18,.17-.34,.31-.48,.14-.14,.3-.25,.49-.32,.18-.08,.37-.11,.56-.11,.19,0,.38,.03,.57,.1,.18,.07,.35,.18,.49,.32Zm2.16,2.73l7.92,7.89-1.51,1.52-7.92-7.89,1.51-1.52Z"/><path class="cls-15" d="M515.65,264.24c.03,.4,0,.81-.08,1.21-.08,.4-.21,.79-.39,1.16-.18,.37-.39,.73-.63,1.07-.25,.34-.51,.65-.79,.94-.54,.55-1.14,.96-1.79,1.24-.65,.28-1.32,.42-2.01,.4-.69-.01-1.4-.19-2.12-.52-.72-.33-1.42-.84-2.1-1.53-.55-.55-.98-1.15-1.28-1.79s-.47-1.3-.51-1.97c-.04-.67,.08-1.34,.33-2,.26-.66,.67-1.28,1.25-1.86,.48-.48,1-.85,1.57-1.1,.56-.25,1.14-.37,1.74-.37,.6,0,1.2,.14,1.81,.41s1.2,.69,1.76,1.25c.23,.23,.37,.42,.39,.55,.03,.13-.03,.27-.17,.41l-5.17,5.19c.49,.46,.97,.8,1.44,1.03,.47,.23,.93,.36,1.37,.38,.44,.02,.87-.06,1.27-.23,.4-.18,.79-.44,1.14-.8,.34-.34,.59-.67,.76-.99,.17-.32,.3-.62,.38-.89,.09-.27,.15-.5,.2-.7,.04-.2,.11-.35,.21-.44,.12-.12,.27-.17,.43-.15l1,.12Zm-4.96-2.44c-.3-.3-.62-.53-.96-.7-.34-.17-.69-.26-1.04-.28-.35-.02-.7,.04-1.04,.17-.34,.14-.67,.36-.98,.67-.64,.64-.95,1.33-.95,2.06,0,.73,.28,1.48,.84,2.23l4.13-4.15Z"/><path class="cls-15" d="M508.58,250.59l11.5,11.46-1.52,1.53-11.5-11.46,1.52-1.53Z"/><path class="cls-15" d="M527.59,252.26c.03,.4,0,.81-.08,1.21-.08,.4-.21,.79-.39,1.16-.18,.37-.39,.73-.63,1.07-.25,.34-.51,.65-.79,.94-.54,.55-1.14,.96-1.79,1.24-.65,.28-1.32,.42-2.01,.4-.69-.01-1.4-.19-2.12-.52-.71-.34-1.42-.84-2.1-1.53-.55-.55-.98-1.14-1.28-1.79s-.47-1.3-.51-1.97,.08-1.34,.33-2c.26-.66,.67-1.28,1.25-1.86,.48-.48,1-.85,1.57-1.1,.56-.25,1.14-.37,1.74-.37,.6,0,1.2,.14,1.81,.41,.61,.27,1.2,.69,1.76,1.25,.23,.23,.37,.42,.39,.55,.03,.13-.03,.27-.17,.41l-5.17,5.19c.49,.46,.97,.8,1.44,1.03,.47,.23,.93,.36,1.37,.38,.44,.02,.87-.06,1.27-.23,.4-.18,.79-.44,1.14-.8,.34-.34,.59-.67,.76-.99,.17-.32,.3-.62,.38-.89s.15-.5,.2-.7c.04-.2,.11-.35,.21-.44,.12-.12,.27-.17,.43-.15l1,.12Zm-4.96-2.44c-.3-.3-.62-.53-.96-.7-.34-.17-.69-.26-1.04-.28-.35-.02-.7,.04-1.04,.17-.34,.13-.67,.36-.98,.67-.64,.64-.95,1.33-.95,2.06s.28,1.48,.84,2.23l4.13-4.15Z"/><path class="cls-15" d="M543.05,238.99l-1.47,1.48c-.29,.3-.63,.4-1,.3l-6.64-1.1c-.22-.04-.41-.04-.56,.01-.16,.05-.34,.18-.55,.39l-1.08,1.08,4.59,4.57-1.65,1.66-11.19-11.15,3.21-3.23c.72-.72,1.41-1.27,2.08-1.65,.67-.37,1.31-.6,1.92-.67,.61-.07,1.19,0,1.74,.23,.55,.22,1.06,.57,1.54,1.04,.39,.39,.7,.81,.92,1.27,.22,.46,.36,.94,.4,1.45,.04,.5,0,1.02-.14,1.55s-.36,1.06-.67,1.58c.33-.08,.69-.09,1.06-.02l7.49,1.19Zm-11-.55c.42-.43,.75-.85,.97-1.28,.22-.43,.34-.85,.37-1.25,.03-.41-.04-.8-.19-1.17-.15-.37-.39-.71-.71-1.03-.64-.64-1.34-.91-2.09-.82-.75,.1-1.55,.57-2.39,1.42l-1.56,1.57,4.09,4.08,1.51-1.51Z"/><path class="cls-15" d="M549,230.76c.03,.4,0,.81-.08,1.21-.08,.4-.21,.79-.39,1.16-.18,.37-.39,.73-.63,1.07-.25,.34-.51,.65-.79,.94-.54,.55-1.14,.96-1.79,1.24-.65,.28-1.32,.42-2.01,.4-.69-.01-1.4-.19-2.12-.52-.72-.33-1.42-.84-2.1-1.53-.55-.55-.98-1.15-1.28-1.79s-.47-1.3-.51-1.97c-.04-.67,.08-1.34,.33-2,.26-.66,.67-1.28,1.25-1.86,.48-.48,1-.85,1.57-1.1,.56-.25,1.14-.37,1.74-.37s1.2,.14,1.81,.41,1.2,.69,1.76,1.25c.23,.23,.37,.42,.39,.55,.03,.13-.03,.27-.17,.41l-5.17,5.19c.49,.46,.97,.8,1.44,1.03,.47,.23,.93,.36,1.37,.38,.44,.02,.87-.06,1.27-.23,.4-.18,.79-.44,1.14-.8,.34-.34,.59-.67,.76-.99,.17-.32,.3-.62,.38-.89,.09-.27,.15-.5,.2-.7,.04-.2,.11-.35,.21-.44,.12-.12,.27-.17,.43-.15l1,.12Zm-4.96-2.44c-.3-.3-.62-.53-.96-.7-.34-.17-.69-.26-1.04-.28-.35-.02-.7,.04-1.04,.17-.34,.14-.67,.36-.98,.67-.64,.64-.95,1.33-.95,2.06,0,.73,.28,1.48,.84,2.23l4.13-4.15Z"/><path class="cls-15" d="M552.32,229.69l-6.67-6.65-.92,.73c-.15,.09-.29,.15-.42,.16-.13,.02-.26-.03-.37-.15l-.63-.63,1.23-1.23-.39-.39c-.44-.44-.78-.91-1.04-1.44-.25-.52-.4-1.07-.42-1.63-.03-.56,.08-1.14,.31-1.72,.24-.58,.63-1.14,1.18-1.69,.45-.45,.89-.85,1.32-1.22,.44-.37,.85-.75,1.23-1.14l.85-.85,11.31,11.26-1.51,1.52-10.24-10.2c-.29,.27-.58,.54-.87,.8-.29,.26-.54,.49-.74,.7-.65,.65-.96,1.33-.93,2.05,.03,.72,.37,1.41,1.04,2.08l.39,.39,2-2.01,1.11,1.1-1.96,1.96,6.69,6.66-1.52,1.53Z"/><path class="cls-15" d="M566.38,213.32c.03,.4,0,.81-.08,1.21-.08,.4-.21,.79-.39,1.16-.18,.37-.39,.73-.63,1.07-.25,.34-.51,.65-.79,.94-.54,.55-1.14,.96-1.79,1.24-.65,.28-1.32,.42-2.01,.4-.69-.01-1.4-.19-2.12-.52-.72-.34-1.42-.84-2.1-1.53-.55-.55-.98-1.15-1.28-1.79-.3-.65-.47-1.3-.51-1.98-.03-.67,.08-1.34,.33-2,.26-.67,.68-1.29,1.25-1.86,.48-.48,1-.85,1.57-1.1,.56-.25,1.15-.37,1.74-.37,.6,0,1.2,.14,1.81,.41,.61,.27,1.2,.69,1.76,1.25,.23,.23,.37,.42,.39,.55,.03,.13-.03,.27-.17,.41l-5.17,5.19c.49,.46,.97,.8,1.44,1.03,.47,.23,.93,.36,1.37,.38,.44,.02,.87-.06,1.27-.23,.4-.18,.78-.44,1.14-.8,.34-.34,.59-.67,.76-.99,.17-.32,.3-.62,.38-.89,.09-.27,.15-.5,.2-.7,.04-.2,.11-.35,.21-.44,.12-.12,.27-.17,.43-.15l1,.12Zm-4.96-2.44c-.3-.3-.62-.53-.96-.7-.34-.17-.69-.26-1.04-.28-.35-.02-.7,.04-1.04,.17-.34,.14-.67,.36-.98,.67-.64,.64-.95,1.33-.95,2.06,0,.73,.28,1.48,.84,2.23l4.13-4.15Z"/><path class="cls-15" d="M575.76,206.16l-1.46,1.47c-.12,.12-.25,.18-.38,.19-.13,0-.26,0-.37-.04l-4.92-1.09c.05,.1,.1,.2,.15,.3,.05,.1,.08,.2,.1,.3l.84,4.33c.02,.12,.03,.25,.03,.38,0,.13-.06,.25-.17,.36l-1.35,1.36-1.33-6.82-6.48-1.18,1.46-1.46c.12-.12,.22-.19,.32-.21,.09-.02,.19-.01,.31,.02l4.76,1c-.05-.1-.1-.21-.14-.31-.04-.11-.08-.23-.11-.36l-.79-4c-.07-.26-.03-.47,.12-.62l1.39-1.39,1.13,6.41,6.89,1.37Z"/><path class="cls-15" d="M568.48,192.74c.14,.14,.25,.3,.32,.49,.07,.18,.11,.37,.11,.56,0,.19-.04,.38-.11,.56-.07,.18-.18,.35-.32,.49-.14,.14-.3,.25-.48,.32-.18,.07-.36,.1-.56,.11s-.38-.04-.56-.11c-.18-.07-.34-.18-.48-.32-.15-.14-.25-.31-.33-.49-.07-.18-.11-.37-.11-.56,0-.19,.03-.38,.1-.56,.07-.18,.17-.34,.31-.48,.14-.14,.3-.25,.49-.32,.18-.08,.37-.11,.56-.11,.19,0,.38,.04,.56,.1,.18,.07,.35,.18,.49,.32Zm2.16,2.73l7.92,7.89-1.51,1.52-7.92-7.89,1.51-1.52Z"/><path class="cls-15" d="M576.07,189.76c.58-.58,1.2-1.01,1.86-1.29,.66-.28,1.33-.41,2.01-.39,.68,.02,1.37,.2,2.04,.52,.68,.32,1.33,.79,1.95,1.42s1.1,1.27,1.43,1.95c.33,.68,.5,1.36,.53,2.04,.02,.68-.1,1.35-.38,2.01-.28,.66-.71,1.28-1.29,1.86-.58,.59-1.21,1.02-1.86,1.3-.66,.28-1.33,.41-2.01,.39-.68-.02-1.37-.19-2.05-.51-.68-.32-1.33-.79-1.96-1.42s-1.1-1.27-1.42-1.95c-.32-.68-.5-1.36-.52-2.05-.02-.69,.1-1.36,.38-2.02s.71-1.28,1.29-1.87Zm6.97,6.94c.75-.75,1.05-1.56,.91-2.43-.14-.87-.66-1.76-1.58-2.67-.92-.91-1.81-1.43-2.68-1.57-.87-.14-1.68,.17-2.43,.92-.75,.76-1.06,1.58-.93,2.45s.66,1.77,1.58,2.68c.92,.91,1.81,1.43,2.68,1.56,.87,.13,1.69-.18,2.44-.94Z"/><path class="cls-15" d="M584.19,184.06c-.01-.35,0-.7,.04-1.04,.04-.34,.1-.66,.21-.98,.1-.32,.25-.63,.43-.93,.18-.3,.41-.59,.68-.86,.44-.44,.89-.75,1.36-.93,.47-.18,.95-.26,1.44-.22,.48,.04,.97,.18,1.45,.44,.48,.25,.95,.6,1.39,1.05l5.04,5.02-1.52,1.53-5.04-5.02c-.57-.56-1.13-.87-1.71-.93-.57-.05-1.13,.19-1.66,.72-.39,.39-.66,.85-.81,1.37-.15,.52-.22,1.09-.19,1.7l5.81,5.78-1.51,1.52-7.92-7.89,.91-.91c.21-.21,.45-.24,.7-.1l.91,.68Z"/><path class="cls-15" d="M603.62,175.93c.03,.4,0,.81-.08,1.21s-.21,.79-.39,1.16c-.18,.37-.39,.73-.63,1.07-.25,.34-.51,.65-.79,.94-.54,.55-1.14,.96-1.79,1.24-.65,.28-1.32,.41-2.01,.4-.69-.01-1.4-.19-2.12-.52-.72-.34-1.42-.84-2.1-1.53-.55-.55-.98-1.15-1.28-1.79-.31-.64-.48-1.3-.51-1.97-.03-.67,.08-1.34,.33-2,.26-.67,.67-1.29,1.25-1.86,.48-.48,1-.85,1.57-1.1,.56-.25,1.15-.37,1.74-.37,.6,0,1.2,.14,1.81,.41,.61,.27,1.2,.69,1.76,1.25,.23,.23,.37,.42,.39,.55,.03,.13-.03,.27-.17,.41l-5.17,5.19c.49,.45,.97,.8,1.44,1.03s.93,.36,1.37,.38c.44,.02,.87-.06,1.27-.23,.4-.18,.78-.44,1.14-.8,.34-.34,.59-.67,.76-.99,.17-.33,.3-.62,.38-.89s.15-.5,.2-.7c.04-.2,.11-.35,.21-.44,.12-.12,.27-.17,.43-.15l1,.12Zm-4.96-2.44c-.3-.3-.62-.53-.96-.7-.34-.17-.69-.26-1.04-.28-.35-.02-.7,.04-1.04,.17-.34,.13-.67,.36-.98,.67-.64,.64-.95,1.33-.95,2.06,0,.73,.28,1.48,.84,2.23l4.13-4.15Z"/><path class="cls-15" d="M601.09,167.09c-.01-.35,0-.7,.04-1.04,.04-.34,.11-.66,.21-.98,.1-.32,.24-.63,.43-.93s.41-.59,.68-.86c.43-.44,.89-.75,1.36-.93,.47-.18,.95-.26,1.44-.22,.48,.04,.97,.18,1.45,.44s.95,.6,1.39,1.05l5.04,5.02-1.52,1.53-5.04-5.02c-.57-.56-1.14-.87-1.71-.93-.57-.05-1.13,.19-1.66,.72-.39,.39-.66,.85-.81,1.37-.15,.52-.22,1.09-.19,1.7l5.81,5.78-1.51,1.52-7.92-7.89,.91-.91c.21-.21,.44-.24,.7-.1l.91,.68Z"/></g></g><path class="cls-15" d="M980,20V760H20V20H980M1000,0H0V780H1000V0h0Z"/></svg>