<?xml version="1.0" encoding="utf-8"?>
<!-- Generator: Adobe Illustrator 26.5.2, SVG Export Plug-In . SVG Version: 6.00 Build 0)  -->
<svg version="1.1" xmlns="http://www.w3.org/2000/svg" xmlns:xlink="http://www.w3.org/1999/xlink" x="0px" y="0px"
	 viewBox="0 0 1366 768" style="enable-background:new 0 0 1366 768;" xml:space="preserve">
<style type="text/css">
	.st0{display:none;}
	.st1{display:inline;}
	.st2{clip-path:url(#SVGID_00000109000550782582049710000004468429570295682464_);}
	.st3{fill:none;stroke:#808080;stroke-width:2.8059;stroke-linejoin:round;stroke-miterlimit:10;}
	
		.st4{display:inline;fill-rule:evenodd;clip-rule:evenodd;fill:#EE7F00;stroke:#808080;stroke-width:2.8059;stroke-linejoin:round;stroke-miterlimit:10;}
	.st5{fill-rule:evenodd;clip-rule:evenodd;}
	.st6{font-family:'Lato-Bold';}
	.st7{font-size:30.7698px;}
	.st8{fill:none;stroke:#0D0D0D;stroke-width:2.1053;stroke-linejoin:round;stroke-miterlimit:10;}
	.st9{clip-path:url(#SVGID_00000019645212567820493550000004331391992774824583_);}
	.st10{fill:#808080;}
	.st11{fill-rule:evenodd;clip-rule:evenodd;fill:#EE7F00;}
	.st12{enable-background:new    ;}
	.st13{fill:#0D0D0D;}
</style>
<g id="DE" xmlns:serif="http://www.serif.com/" class="st0">
	<g class="st1">
		<g>
			<defs>
				<polygon id="SVGID_1_" points="318.1,375.1 903.3,731.1 1205.6,234.3 880.9,36.8 				"/>
			</defs>
			<clipPath id="SVGID_00000138550750101382634940000011112898271986929594_">
				<use xlink:href="#SVGID_1_"  style="overflow:visible;"/>
			</clipPath>
			<g style="clip-path:url(#SVGID_00000138550750101382634940000011112898271986929594_);">
				<path class="st3" d="M368.6,321.1c29.8,18.1,39.2,57,21.1,86.8c-18.1,29.8-57,39.2-86.8,21.1c-29.8-18.1-39.2-57-21.1-86.8
					C299.9,312.5,338.8,303,368.6,321.1z"/>
				<path class="st3" d="M359.6,335.9c21.6,13.1,28.5,41.4,15.3,63c-13.1,21.6-41.4,28.5-63,15.3c-21.6-13.1-28.5-41.4-15.3-63
					C309.7,329.7,337.9,322.8,359.6,335.9z"/>
				<path class="st3" d="M353.1,346.6c15.7,9.6,20.7,30.1,11.2,45.8c-9.6,15.7-30.1,20.7-45.8,11.1c-15.7-9.6-20.7-30.1-11.2-45.8
					C316.8,342,337.3,337,353.1,346.6z"/>
				<path class="st3" d="M348.3,354.3c11.4,7,15.1,21.9,8.1,33.3c-7,11.4-21.9,15.1-33.3,8.1c-11.4-7-15.1-21.9-8.1-33.3
					C322,351,336.9,347.4,348.3,354.3z"/>
				<path class="st3" d="M344.9,360c8.3,5.1,11,15.9,5.9,24.3s-15.9,11-24.3,5.9c-8.3-5.1-11-15.9-5.9-24.3
					C325.7,357.6,336.6,354.9,344.9,360z"/>
				<path class="st3" d="M379.4,303.3c39.6,24.1,52.2,75.8,28.1,115.4c-24.1,39.6-75.8,52.2-115.4,28.1
					c-39.6-24.1-52.2-75.8-28.1-115.4C288.1,291.8,339.8,279.2,379.4,303.3z"/>
				<path class="st3" d="M387.6,289.9c47,28.6,62,90,33.4,137c-28.6,47-90,62-137,33.4c-47-28.6-62-90-33.4-137
					C279.2,276.2,340.6,261.3,387.6,289.9z"/>
				<path class="st3" d="M393.2,280.7c52.1,31.7,68.6,99.7,36.9,151.8c-31.7,52.1-99.7,68.6-151.8,36.9s-68.6-99.7-36.9-151.8
					C273.1,265.6,341.1,249,393.2,280.7z"/>
				<path class="st3" d="M397.2,274c55.8,33.9,73.5,106.8,39.6,162.6c-33.9,55.8-106.8,73.5-162.6,39.6
					c-55.8-33.9-73.5-106.8-39.6-162.6C268.6,257.8,341.5,240.1,397.2,274z"/>
				<path class="st3" d="M399.8,269.8c58.1,35.4,76.6,111.3,41.2,169.4c-35.4,58.1-111.3,76.6-169.4,41.2S195,369.1,230.4,311
					C265.8,252.9,341.7,234.4,399.8,269.8z"/>
				<path class="st3" d="M403.1,264.3c61.1,37.2,80.6,117,43.4,178.2c-37.2,61.1-117,80.6-178.2,43.4
					c-61.1-37.2-80.6-117-43.4-178.2C262.2,246.5,342,227.1,403.1,264.3z"/>
				<path class="st3" d="M408.8,255c66.3,40.3,87.3,126.8,47,193.1s-126.8,87.3-193.1,47c-66.3-40.3-87.3-126.8-47-193.1
					C256,235.8,342.5,214.7,408.8,255z"/>
				<path class="st3" d="M416.8,241.8c73.6,44.8,96.9,140.8,52.2,214.4c-44.8,73.6-140.8,96.9-214.4,52.2
					c-73.6-44.8-96.9-140.8-52.2-214.4C247.2,220.4,343.3,197,416.8,241.8z"/>
				<path class="st3" d="M437.2,208.3c92,56,121.3,176.2,65.3,268.3c-56,92-176.2,121.3-268.3,65.3c-92-56-121.3-176.2-65.3-268.3
					C225,181.5,345.2,152.3,437.2,208.3z"/>
				<path class="st3" d="M443.5,197.9c97.8,59.5,128.8,187.2,69.3,284.9c-59.5,97.8-187.2,128.8-284.9,69.3
					c-97.8-59.5-128.8-187.2-69.3-284.9C218.1,169.5,345.8,138.4,443.5,197.9z"/>
				<path class="st3" d="M447.6,191.2c101.5,61.8,133.7,194.3,72,295.8c-61.8,101.5-194.3,133.7-295.8,72
					c-101.5-61.8-133.7-194.3-72-295.8C213.6,161.7,346.1,129.5,447.6,191.2z"/>
				<path class="st3" d="M450.5,186.4c104.1,63.4,137.2,199.3,73.9,303.5C461,594,325.1,627.1,220.9,563.7S83.7,364.4,147.1,260.3
					C210.4,156.1,346.4,123,450.5,186.4z"/>
				<path class="st3" d="M453.2,182c106.5,64.8,140.4,204,75.6,310.5c-64.8,106.5-204,140.4-310.5,75.6
					c-106.5-64.8-140.4-204-75.6-310.5C207.5,151.1,346.7,117.2,453.2,182z"/>
				<path class="st3" d="M456.9,176c109.9,66.9,144.8,210.3,77.9,320.2C467.9,606.1,324.5,641,214.6,574.2
					c-109.9-66.9-144.8-210.3-77.9-320.2C203.5,144.1,347,109.1,456.9,176z"/>
				<path class="st3" d="M463.5,165c115.9,70.5,152.8,221.9,82.2,337.9c-70.5,115.9-221.9,152.8-337.9,82.2
					C92,514.6,55.1,363.2,125.7,247.3C196.2,131.3,347.6,94.5,463.5,165z"/>
				<path class="st3" d="M474,147.8c125.4,76.3,165.3,240.1,89,365.5c-76.3,125.4-240.1,165.3-365.5,89
					C72,526,32.2,362.2,108.5,236.8C184.8,111.4,348.6,71.5,474,147.8z"/>
				<path class="st3" d="M483.7,131.9c133.9,81.5,176.4,256.6,94.7,390.9c-81.7,134.2-256.7,177-390.7,95.5S11.4,361.6,93,227.4
					C174.7,93.2,349.8,50.4,483.7,131.9z"/>
				<path class="st3" d="M490.2,121.2c139.8,85.1,184.1,268,98.9,408.1c-85.3,140.1-268,184.8-407.9,99.7S-2.9,361,82.4,220.9
					C167.6,80.8,350.4,36.1,490.2,121.2z"/>
				<path class="st3" d="M494.6,113.9C638.5,201.4,684,389.5,596.3,533.7c-87.7,144.1-275.7,190.1-419.5,102.6
					C33,548.7-12.6,360.6,75.1,216.5C162.8,72.4,350.8,26.4,494.6,113.9z"/>
				<path class="st3" d="M498,108.5C644.8,197.8,691.3,389.8,601.8,537C512.2,684.1,320.3,731,173.5,641.7
					C26.7,552.3-19.9,360.3,69.7,213.2C159.2,66,351.1,19.1,498,108.5z"/>
				<path class="st3" d="M500.7,104C650,194.8,697.3,390.1,606.3,539.7c-91,149.6-286.2,197.3-435.5,106.5
					C21.4,555.3-25.9,360.1,65.2,210.5C156.2,60.8,351.4,13.1,500.7,104z"/>
				<path class="st3" d="M504.4,97.8c152.7,92.9,201.1,292.6,108,445.6c-93.1,153-292.7,201.8-445.3,108.9
					C14.3,559.4-34,359.7,59.1,206.7C152.2,53.7,351.7,4.9,504.4,97.8z"/>
				<path class="st3" d="M510.7,87.6C669,183.9,719.2,391,622.6,549.7c-96.6,158.7-303.5,209.3-461.8,112.9
					C2.4,566.2-47.7,359.2,48.8,200.5C145.4,41.8,352.3-8.8,510.7,87.6z"/>
				<path class="st3" d="M520.4,71.6c167.1,101.7,220.1,320.2,118.2,487.7C536.6,726.8,318.2,780.2,151.1,678.5
					C-16.1,576.8-69,358.3,32.9,190.8C134.8,23.3,353.3-30.1,520.4,71.6z"/>
				<path class="st3" d="M532.8,51.2C711.2,159.7,767.8,393,659,571.8S317,807.6,138.6,699C-39.8,590.4-96.3,357.2,12.5,178.4
					C121.3-0.4,354.4-57.4,532.8,51.2z"/>
				<path class="st3" d="M543.3,34c187.9,114.3,247.4,360,132.8,548.2C561.5,770.4,316,830.5,128.2,716.2
					C-59.7,601.8-119.2,356.2-4.6,168C109.9-20.3,355.4-80.3,543.3,34z"/>
				<path class="st3" d="M550.7,21.9c194.5,118.4,256.2,372.8,137.5,567.7C569.6,784.5,315.3,846.7,120.8,728.3
					S-135.4,355.5-16.7,160.6C101.9-34.3,356.1-96.5,550.7,21.9z"/>
				<path class="st3" d="M555.1,14.5C753.7,135.3,816.6,395,695.5,594C574.4,793,314.9,856.5,116.3,735.6
					C-82.3,614.8-145.2,355.1-24.1,156.1C97-42.9,356.6-106.3,555.1,14.5z"/>
				<path class="st3" d="M558.5,9.1C760,131.7,823.9,395.3,701,597.3c-122.9,202-386.4,266.4-588,143.8
					C-88.6,618.4-152.4,354.8-29.5,152.8C93.4-49.2,356.9-113.6,558.5,9.1z"/>
				<path class="st3" d="M560.9,5c203.8,124,268.4,390.6,144.1,594.8C580.8,804.1,314.4,869.2,110.5,745.2
					c-203.8-124-268.4-390.6-144.1-594.9C90.7-53.9,357.1-119.1,560.9,5z"/>
				<path class="st3" d="M565.2-2.1c207.7,126.4,273.5,398,146.9,606.1S314,878.6,106.2,752.2c-207.7-126.4-273.5-398-146.9-606.1
					C86-62.1,357.5-128.4,565.2-2.1z"/>
				<path class="st3" d="M571.3-12.1c213.2,129.8,280.8,408.6,150.8,622.3S313.4,892,100.1,762.3C-113.1,632.5-180.7,353.7-50.6,140
					C79.4-73.7,358.1-141.9,571.3-12.1z"/>
				<path class="st3" d="M580.6-27.3c221.6,134.9,291.8,424.6,156.7,646.7c-135.1,222.1-424.8,292.9-646.4,158
					C-130.7,642.6-200.9,352.8-65.8,130.7C69.3-91.3,359-162.2,580.6-27.3z"/>
				<path class="st3" d="M592.9-47.6c232.8,141.7,306.5,446,164.6,679.3c-142,233.3-446.2,307.7-679,166
					C-154.3,656.1-228,351.7-86,118.4C55.9-114.9,360.1-189.2,592.9-47.6z"/>
				<path class="st3" d="M608.4-73C855.1,77.2,933.3,399.9,782.8,647.1c-150.5,247.3-473,326.1-719.8,176
					C-183.7,673-261.9,350.3-111.4,103C39.1-144.3,361.6-223.1,608.4-73z"/>
				<path class="st3" d="M427.4,224.4c83.1,50.6,109.6,159.2,59,242.3c-50.6,83.1-159.2,109.6-242.3,59
					c-83.1-50.6-109.6-159.2-59-242.3S344.3,173.8,427.4,224.4z"/>
			</g>
		</g>
	</g>
	<circle class="st4" cx="335.7" cy="375.1" r="17.7"/>
	<g class="st1">
		<path class="st5" d="M975.1,368.1v-4.5h-98.8v4.5H975.1z"/>
		<path class="st5" d="M990.8,365.8l-19.7,8.4v-16.9L990.8,365.8z"/>
	</g>
	<text transform="matrix(1 0 0 1 876.0811 347.1865)" class="st1 st6 st7">Ausbreitungsrichtung</text>
	<text transform="matrix(1 0 0 1 186.2764 347.1865)" class="st1 st6 st7">Schallquelle</text>
	<text transform="matrix(1 0 0 1 449.7357 108.6572)" class="st1 st6 st7">Verdichtung</text>
	<text transform="matrix(1 0 0 1 480.4541 683.6582)" class="st1 st6 st7">Verdünnung</text>
	<g class="st1">
		<path class="st8" d="M433.3,294.1l75-167.9"/>
		<path class="st8" d="M520,243.9l9.1-117.8"/>
		<path class="st8" d="M593.9,197.5l-45.3-71.3"/>
		<path class="st8" d="M693.4,139.5l-122.1-13.3"/>
	</g>
	<g class="st1">
		<path class="st8" d="M470.8,482.9l74,165.6"/>
		<path class="st8" d="M396.3,433.3l126.1,215.2"/>
		<path class="st8" d="M556.5,530.7l9.1,117.8"/>
		<path class="st8" d="M630.4,577.2l-45.3,71.3"/>
		<path class="st8" d="M729.8,635.2l-122.1,13.3"/>
	</g>
</g>
<g id="DE_Kurven" xmlns:serif="http://www.serif.com/">
	<g>
		<g>
			<defs>
				<polygon id="SVGID_00000063605422481439326750000016452342439086184852_" points="318.1,375.1 903.3,731.1 1205.6,234.3 
					880.9,36.8 				"/>
			</defs>
			<clipPath id="SVGID_00000116949410048652713070000003204337127443580842_">
				<use xlink:href="#SVGID_00000063605422481439326750000016452342439086184852_"  style="overflow:visible;"/>
			</clipPath>
			<g style="clip-path:url(#SVGID_00000116949410048652713070000003204337127443580842_);">
				<g>
					<path class="st10" d="M335.6,439.6c-11.4,0-23-3-33.5-9.4c-30.4-18.5-40.1-58.3-21.6-88.7c18.5-30.4,58.3-40.1,88.7-21.6
						c30.4,18.5,40.1,58.3,21.6,88.7C378.7,428.6,357.4,439.6,335.6,439.6z M335.8,313.3c-20.9,0-41.2,10.6-52.9,29.6
						c-17.7,29.1-8.4,67.2,20.7,84.9c29.1,17.7,67.2,8.4,84.9-20.7c17.7-29.1,8.4-67.2-20.7-84.9
						C357.8,316.2,346.8,313.3,335.8,313.3z"/>
				</g>
				<g>
					<path class="st10" d="M335.6,422.3c-8.6,0-17-2.3-24.4-6.9c-22.2-13.5-29.3-42.6-15.8-64.9c6.6-10.8,16.9-18.3,29.2-21.3
						c12.3-3,24.9-1,35.7,5.5c22.2,13.5,29.3,42.6,15.8,64.9c-6.6,10.8-16.9,18.3-29.2,21.3C343.2,421.9,339.4,422.3,335.6,422.3z
						 M335.8,330.6c-3.5,0-7.1,0.4-10.6,1.3c-11.5,2.8-21.3,9.9-27.4,20.1c-12.7,20.9-6.1,48.3,14.9,61c10.1,6.2,22.1,8,33.6,5.2
						c11.5-2.8,21.3-9.9,27.4-20.1c12.7-20.9,6.1-48.3-14.9-61C351.8,332.8,343.9,330.6,335.8,330.6z"/>
				</g>
				<g>
					<path class="st10" d="M335.7,409.8c-6.2,0-12.4-1.6-18-5.1c-7.9-4.8-13.5-12.4-15.7-21.5c-2.2-9-0.7-18.4,4.1-26.3
						c10-16.4,31.4-21.6,47.7-11.6l0,0c16.4,10,21.6,31.4,11.6,47.7C358.9,403.9,347.4,409.8,335.7,409.8z M335.8,343.1
						c-10.8,0-21.3,5.5-27.3,15.3c-4.4,7.3-5.8,15.9-3.7,24.2s7.1,15.3,14.4,19.7c15,9.2,34.7,4.4,43.9-10.7
						c9.2-15,4.4-34.7-10.7-43.9C347.2,344.6,341.4,343.1,335.8,343.1z"/>
				</g>
				<g>
					<path class="st10" d="M335.7,400.7c-4.5,0-9.1-1.2-13.3-3.7c-12.1-7.4-15.9-23.2-8.6-35.3c3.6-5.9,9.2-10,15.9-11.6
						c6.7-1.6,13.6-0.6,19.4,3c5.9,3.6,10,9.2,11.6,15.9c1.6,6.7,0.6,13.6-3,19.4C352.8,396.4,344.4,400.7,335.7,400.7z
						 M335.8,352.2c-1.8,0-3.6,0.2-5.5,0.7c-5.9,1.4-11,5.1-14.1,10.3c-6.6,10.8-3.1,24.9,7.6,31.4c10.8,6.6,24.9,3.1,31.4-7.6
						c3.2-5.2,4.1-11.4,2.7-17.3c-1.4-5.9-5.1-11-10.3-14.1c0,0,0,0,0,0C344,353.3,339.9,352.2,335.8,352.2z"/>
				</g>
				<g>
					<path class="st10" d="M335.7,394.1c-3.4,0-6.8-0.9-9.9-2.8c-4.3-2.6-7.4-6.8-8.6-11.8s-0.4-10.1,2.2-14.4
						c5.5-9,17.2-11.8,26.2-6.4c0,0,0,0,0,0c4.3,2.6,7.4,6.8,8.6,11.8s0.4,10.1-2.2,14.4C348.4,390.9,342.1,394.1,335.7,394.1z
						 M335.8,358.8c-5.5,0-10.9,2.8-13.9,7.8c-2.3,3.7-2.9,8.1-1.9,12.3c1,4.2,3.6,7.8,7.3,10c7.7,4.7,17.7,2.2,22.3-5.4
						c2.3-3.7,2.9-8.1,1.9-12.3s-3.6-7.8-7.3-10l0,0C341.6,359.6,338.6,358.8,335.8,358.8z"/>
				</g>
				<g>
					<path class="st10" d="M335.5,460.5c-15.5,0-30.7-4.2-44.2-12.5c-19.5-11.8-33.2-30.6-38.6-52.8c-5.4-22.2-1.8-45.1,10-64.6
						c11.8-19.5,30.6-33.2,52.8-38.6c22.2-5.4,45.1-1.8,64.6,10v0c19.5,11.8,33.2,30.6,38.6,52.8c5.4,22.2,1.8,45.1-10,64.6
						c-11.8,19.5-30.6,33.2-52.8,38.6C349.2,459.7,342.3,460.5,335.5,460.5z M335.9,292.5c-6.6,0-13.2,0.8-19.7,2.4
						c-21.4,5.2-39.6,18.5-51,37.3c-11.5,18.8-14.9,41-9.7,62.5c5.2,21.4,18.5,39.6,37.3,51c18.8,11.5,41,14.9,62.5,9.7
						c21.4-5.2,39.6-18.5,51-37.3c11.5-18.8,14.9-41,9.7-62.5c-5.2-21.4-18.5-39.6-37.3-51C365.6,296.6,350.9,292.5,335.9,292.5z"/>
				</g>
				<g>
					<path class="st10" d="M335.5,476.2c-18.3,0-36.3-5-52.4-14.8c-47.6-29-62.8-91.3-33.8-139c14-23.1,36.2-39.3,62.5-45.7
						c26.3-6.4,53.4-2.2,76.5,11.8l0,0c23.1,14,39.3,36.2,45.7,62.5c6.4,26.3,2.2,53.4-11.8,76.5c-14,23.1-36.2,39.3-62.5,45.7
						C351.6,475.3,343.5,476.2,335.5,476.2z M335.9,276.7c-7.8,0-15.7,0.9-23.5,2.8c-25.5,6.2-47.1,22-60.7,44.4
						c-28.2,46.3-13.4,106.9,32.9,135.1c22.4,13.6,48.8,17.7,74.4,11.5c25.5-6.2,47.1-22,60.7-44.4c13.6-22.4,17.7-48.8,11.5-74.4
						c-6.2-25.5-22-47.1-44.4-60.7l0,0C371.3,281.6,353.7,276.7,335.9,276.7z"/>
				</g>
				<g>
					<path class="st10" d="M335.5,487c-20.3,0-40.2-5.5-57.9-16.3c-52.7-32.1-69.5-101-37.4-153.7c32.1-52.7,101-69.5,153.7-37.4
						c25.5,15.5,43.4,40.1,50.5,69.1c7.1,29,2.4,59.1-13.1,84.6c-15.5,25.5-40.1,43.4-69.1,50.5C353.3,485.9,344.4,487,335.5,487z
						 M335.9,266.1c-36.8,0-72.8,18.6-93.3,52.3C211.3,369.8,227.7,437,279,468.2c24.9,15.1,54.2,19.7,82.5,12.8
						c28.3-6.9,52.2-24.4,67.4-49.2c15.1-24.9,19.7-54.2,12.8-82.5c-6.9-28.3-24.4-52.2-49.2-67.4
						C374.8,271.2,355.2,266.1,335.9,266.1z"/>
				</g>
				<g>
					<path class="st10" d="M335.5,494.8c-21.7,0-43-5.9-62-17.5c-27.3-16.6-46.5-42.9-54.1-74c-7.6-31.1-2.6-63.2,14-90.5
						c34.3-56.4,108.1-74.3,164.5-40c56.4,34.3,74.3,108.1,40,164.5c-16.6,27.3-42.9,46.5-74,54.1
						C354.6,493.7,345,494.8,335.5,494.8z M335.9,258.2c-39.5,0-78.1,20-100.1,56.1c-16.2,26.7-21.1,58.1-13.7,88.4
						c7.4,30.4,26.1,56,52.8,72.2c26.7,16.2,58.1,21.1,88.4,13.7c30.4-7.4,56-26.1,72.2-52.8c33.5-55.1,16-127.1-39.1-160.6
						C377.6,263.7,356.6,258.2,335.9,258.2z"/>
				</g>
				<g>
					<path class="st10" d="M335.5,499.7c-22.1,0-44.4-5.9-64.6-18.1c-28.4-17.3-48.4-44.7-56.3-77c-7.9-32.4-2.7-65.9,14.6-94.3
						c35.7-58.7,112.6-77.4,171.3-41.7c58.7,35.7,77.4,112.6,41.7,171.3C418.8,478.4,377.6,499.7,335.5,499.7z M335.9,253.2
						c-41.2,0-81.4,20.8-104.3,58.5c-16.9,27.8-22,60.5-14.3,92.2c7.7,31.6,27.3,58.4,55,75.3c19.7,12,41.6,17.7,63.2,17.7
						c41.2,0,81.4-20.8,104.3-58.5c34.9-57.4,16.7-132.6-40.8-167.5C379.4,258.9,357.5,253.2,335.9,253.2z"/>
				</g>
				<g>
					<path class="st10" d="M335.5,506.1c-23.2,0-46.7-6.2-67.9-19.1c-61.7-37.6-81.4-118.4-43.8-180.1s118.4-81.4,180.1-43.8
						c29.9,18.2,50.9,46.9,59.2,81c8.3,34,2.8,69.2-15.4,99.1C423,483.7,379.8,506.1,335.5,506.1z M335.9,246.9
						c-43.3,0-85.7,21.9-109.8,61.6c-36.8,60.4-17.5,139.5,42.9,176.2c20.8,12.6,43.8,18.7,66.5,18.7c43.3,0,85.7-21.9,109.8-61.6
						c17.8-29.2,23.1-63.7,15-97c-8.1-33.3-28.7-61.4-57.9-79.2C381.6,252.9,358.6,246.9,335.9,246.9z"/>
				</g>
				<g>
					<path class="st10" d="M335.5,517c-25.1,0-50.6-6.7-73.5-20.6c-66.9-40.7-88.1-128.2-47.5-195c40.7-66.9,128.2-88.1,195-47.5
						c66.9,40.7,88.1,128.2,47.5,195C430.3,492.7,383.4,517,335.5,517z M336,236c-47,0-92.9,23.8-119.1,66.8
						c-39.9,65.5-19,151.3,46.5,191.2c22.5,13.7,47.5,20.2,72.1,20.2c47,0,92.9-23.8,119.1-66.8c39.9-65.5,19-151.3-46.5-191.2
						C385.5,242.5,360.6,236,336,236z"/>
				</g>
				<g>
					<path class="st10" d="M335.5,532.5c-27.9,0-56.1-7.4-81.6-22.9c-35.9-21.8-61.2-56.4-71.1-97.3c-9.9-40.9-3.4-83.2,18.4-119.1
						c21.8-35.9,56.4-61.2,97.3-71.1c40.9-10,83.2-3.4,119.1,18.4c35.9,21.8,61.2,56.4,71.1,97.3c9.9,40.9,3.4,83.2-18.4,119.1
						C440.6,505.6,388.7,532.5,335.5,532.5z M336.1,220.4c-12.3,0-24.6,1.5-36.9,4.5c-40.2,9.8-74.1,34.6-95.5,69.8
						c-21.5,35.3-27.9,76.8-18.1,116.9c9.8,40.2,34.6,74.1,69.8,95.5c25,15.2,52.8,22.5,80.1,22.5c52.2,0,103.3-26.4,132.4-74.2
						c21.5-35.3,27.9-76.8,18.1-116.9s-34.6-74.1-69.8-95.5C391.6,228.1,364.1,220.4,336.1,220.4z"/>
				</g>
				<g>
					<path class="st10" d="M335.4,571.7c-34.8,0-70-9.2-101.9-28.6c-92.6-56.4-122.1-177.6-65.8-270.2
						c27.3-44.8,70.4-76.4,121.5-88.8c51.1-12.4,103.9-4.2,148.7,23c44.8,27.3,76.4,70.4,88.8,121.5c12.4,51.1,4.2,103.9-23,148.7
						C466.7,538.1,401.8,571.7,335.4,571.7z M336.1,181.2c-15.4,0-30.9,1.8-46.2,5.6c-50.3,12.2-92.9,43.3-119.8,87.5
						c-55.6,91.3-26.5,210.8,64.8,266.3c91.3,55.6,210.8,26.5,266.3-64.8c26.9-44.2,35-96.3,22.7-146.6s-43.3-92.9-87.5-119.8
						C405.8,190.8,371.2,181.2,336.1,181.2z"/>
				</g>
				<g>
					<path class="st10" d="M335.3,583.9c-37.8,0-75-10.3-108.1-30.5c-47.6-29-81.1-74.8-94.3-129c-13.2-54.2-4.5-110.3,24.5-157.9
						c29-47.6,74.8-81.1,129-94.3c54.2-13.2,110.3-4.5,157.9,24.5c47.6,29,81.1,74.8,94.3,129c13.2,54.2,4.5,110.3-24.5,157.9
						c-29,47.6-74.8,81.1-129,94.3C368.6,581.9,351.9,583.9,335.3,583.9z M336.2,169.1c-16.4,0-32.8,2-49.1,5.9
						c-53.5,13-98.7,46-127.2,93c-28.6,47-37.1,102.3-24.1,155.8c13,53.5,46,98.7,93,127.2c47,28.6,102.3,37.1,155.8,24.1
						c53.5-13,98.7-46,127.2-93c28.6-47,37.1-102.3,24.1-155.8c-13-53.5-46-98.7-93-127.2C410.2,179.3,373.5,169.1,336.2,169.1z"/>
				</g>
				<g>
					<path class="st10" d="M335.4,591.7c-38.4,0-77.2-10.2-112.3-31.5c-102-62.1-134.5-195.6-72.5-297.7
						c62.1-102,195.6-134.6,297.7-72.5c49.4,30.1,84.1,77.6,97.8,133.8c13.7,56.3,4.7,114.4-25.4,163.8
						C480.1,554.6,408.6,591.7,335.4,591.7z M336.1,161.3c-72.2,0-142.8,36.5-183,102.6c-61.3,100.7-29.2,232.5,71.5,293.8
						c34.6,21.1,73,31.1,110.8,31.1c72.2,0,142.8-36.5,183-102.6c29.7-48.8,38.6-106.2,25.1-161.7c-13.5-55.5-47.8-102.4-96.6-132.1
						C412.3,171.3,373.9,161.3,336.1,161.3z"/>
				</g>
				<g>
					<path class="st10" d="M335.4,597.3c-39.3,0-79.2-10.4-115.2-32.3c-104.7-63.7-138-200.7-74.3-305.4
						c30.8-50.7,79.6-86.3,137.3-100.4c57.7-14,117.4-4.8,168.1,26c104.7,63.7,138,200.7,74.3,305.4
						C483.8,559.3,410.4,597.3,335.4,597.3z M336.2,155.6c-17.4,0-35,2.1-52.4,6.3c-57,13.9-105.1,49.1-135.6,99.1
						c-62.9,103.4-30,238.6,73.4,301.5c35.5,21.6,74.9,31.9,113.7,31.9c74.1,0,146.6-37.5,187.8-105.3
						c62.9-103.4,30-238.6-73.4-301.5C415,166.4,375.9,155.6,336.2,155.6z"/>
				</g>
				<g>
					<path class="st10" d="M335.2,602.5c-41.2,0-81.7-11.3-117.7-33.2c-107.1-65.2-141.2-205.3-76-312.4
						c65.2-107.1,205.3-141.2,312.4-76c51.8,31.5,88.3,81.4,102.7,140.5c14.4,59,4.9,120.1-26.6,172
						c-31.5,51.8-81.4,88.3-140.5,102.7C371.5,600.3,353.3,602.5,335.2,602.5z M336.1,150.6c-75.9,0-150,38.4-192.2,107.8
						C79.5,364.1,113.2,502.5,219,566.9c51.2,31.2,111.5,40.5,169.8,26.3C447.1,579,496.4,543,527.6,491.8
						c31.2-51.2,40.5-111.5,26.3-169.8c-14.2-58.3-50.2-107.6-101.4-138.7C416.1,161.1,375.9,150.6,336.1,150.6z"/>
				</g>
				<g>
					<path class="st10" d="M335.3,609.5c-41.5,0-83.5-11-121.5-34.1c-53.5-32.5-91.1-84-105.9-144.8
						c-14.8-60.9-5.1-123.8,27.5-177.3c32.5-53.5,84-91.1,144.8-105.9c60.9-14.8,123.8-5.1,177.3,27.5
						C568,242,603.2,386.5,536,496.9C491.9,569.4,414.5,609.5,335.3,609.5z M336.2,143.4c-18.4,0-36.9,2.2-55.3,6.7
						c-60.1,14.6-111,51.8-143.1,104.6c-32.1,52.8-41.8,115-27.1,175.2c14.6,60.1,51.8,111,104.6,143.1
						c109.1,66.4,251.9,31.6,318.3-77.5c66.4-109.1,31.6-251.9-77.5-318.3C419.4,154.9,378.2,143.4,336.2,143.4z"/>
				</g>
				<g>
					<path class="st10" d="M335.3,622.3c-43.8,0-88.1-11.6-128.1-36C90.7,515.4,53.6,363,124.5,246.5
						C195.4,130.1,347.8,93,464.3,163.8c116.5,70.9,153.6,223.3,82.7,339.8C500.5,580,418.9,622.3,335.3,622.3z M336.1,130.7
						c-82.6,0-163.3,41.8-209.3,117.3c-70.1,115.2-33.4,265.9,81.8,335.9c39.6,24.1,83.4,35.6,126.7,35.6
						c82.6,0,163.3-41.8,209.3-117.3C614.7,387,578,236.3,462.8,166.2C423.2,142.1,379.4,130.7,336.1,130.7z"/>
				</g>
				<g>
					<path class="st10" d="M335.2,642.6c-48.4,0-96.1-13.2-138.4-39C70.7,526.9,30.6,362,107.3,236.1
						c76.7-126,241.5-166.1,367.5-89.4c61,37.1,103.9,95.8,120.8,165.2c16.9,69.4,5.8,141.3-31.3,202.2
						c-37.1,61-95.8,103.9-165.2,120.8C377.8,640,356.4,642.6,335.2,642.6z M336.2,110.5c-89.4,0-176.7,45.2-226.5,127
						c-75.8,124.6-36.1,287.8,88.5,363.6c60.3,36.7,131.4,47.7,200.1,31C467,615.4,525.1,573,561.8,512.6
						c36.7-60.3,47.7-131.4,31-200.1S533.6,185.7,473.3,149C430.4,122.9,383,110.5,336.2,110.5z"/>
				</g>
				<g>
					<path class="st10" d="M334.6,661.1c-51.6,0-102.4-14.1-147.6-41.6C121.9,579.9,76.2,517.2,58.2,442.9
						c-18-74.2-6-151,33.7-216.3c39.7-65.2,102.4-111.2,176.6-129.3c74.2-18.1,150.9-6.3,216,33.3
						c65.1,39.6,110.9,102.3,128.8,176.5c18,74.2,6,151-33.7,216.3C539.9,588.7,477.2,634.6,403,652.8
						C380.3,658.3,357.4,661.1,334.6,661.1z M336.9,91.9c-22.6,0-45.3,2.7-67.8,8.2c-73.5,18-135.6,63.4-174.9,128
						c-39.3,64.6-51.1,140.6-33.3,214.1c17.8,73.5,63.1,135.6,127.6,174.8c64.5,39.2,140.4,50.9,213.9,33
						c73.5-18,135.6-63.4,174.9-128c39.3-64.6,51.2-140.6,33.3-214.1c-17.8-73.5-63.1-135.6-127.6-174.8
						C438.3,105.9,388,91.9,336.9,91.9z"/>
				</g>
				<g>
					<path class="st10" d="M334.5,673.6c-53.9,0-106.9-14.7-154-43.4C40.1,544.8-4.4,360.8,81.2,220.2
						C166.8,79.5,350.6,34.5,491,120c68,41.4,115.7,106.8,134.5,184.3c18.8,77.5,6.3,157.7-35.2,225.8
						C548.9,598.1,483.4,646,406,665C382.3,670.7,358.3,673.6,334.5,673.6z M336.8,79.5c-99.9,0-197.5,50.6-253.2,142.1
						C-1.2,361,42.9,543.2,182,627.8c67.3,41,146.6,53.2,223.3,34.4C482,643.5,546.9,596,587.9,528.5c41-67.5,53.4-146.9,34.8-223.6
						c-18.6-76.8-65.9-141.6-133.2-182.5C441.8,93.3,389,79.5,336.8,79.5z"/>
				</g>
				<g>
					<path class="st10" d="M334.7,681.9c-54.2,0-109-14.4-158.6-44.5c-69.9-42.5-119-109.8-138.3-189.5
						c-19.3-79.7-6.5-162.1,36.1-232.2C162,71.1,351,24.9,495.4,112.7c144.4,87.8,190.2,277,102.2,421.7
						C539.7,629.4,438.3,681.9,334.7,681.9z M336.8,71c-102.7,0-203.2,52.1-260.5,146.2c-42.2,69.4-54.9,151.1-35.8,230
						c19.1,78.9,67.8,145.6,137,187.8c49.1,29.9,103.4,44.1,157.1,44.1c102.7,0,203.2-52.1,260.5-146.2
						c87.2-143.3,41.8-330.8-101.2-417.8C444.8,85.3,390.5,71,336.8,71z"/>
				</g>
				<g>
					<path class="st10" d="M334.5,688.5c-56.6,0-112.2-15.5-161.7-45.6C25.4,553.2-21.4,360.1,68.5,212.5
						C158.3,64.8,351.3,17.6,498.7,107.3c71.3,43.4,121.5,112.1,141.2,193.4c19.7,81.3,6.6,165.5-36.9,237
						c-43.5,71.5-112.2,121.8-193.5,141.7C384.6,685.5,359.4,688.5,334.5,688.5z M336.8,64.6c-104.9,0-207.5,53.2-265.9,149.3
						c-89.1,146.3-42.7,337.7,103.3,426.6c70.7,43,154,55.9,234.6,36.2c80.6-19.7,148.7-69.6,191.8-140.4
						c43.1-70.8,56.1-154.3,36.6-234.9c-19.5-80.6-69.2-148.7-139.9-191.7C447.1,79.2,391.6,64.6,336.8,64.6z"/>
				</g>
				<g>
					<path class="st10" d="M334.6,693.6c-56.3,0-113.1-14.9-164.6-46.2C20.2,556.2-27.4,359.9,64,209.7
						c91.4-150.1,287.6-198.1,437.4-107c149.8,91.2,197.4,287.5,106,437.7C547.5,639,442.2,693.6,334.6,693.6z M336.8,59.4
						c-106.7,0-211,54.1-270.5,151.8C-24.2,360,23,554.6,171.5,645c148.5,90.4,343,42.8,433.6-106
						c90.6-148.8,43.4-343.4-105.1-433.8C449,74.2,392.6,59.4,336.8,59.4z"/>
				</g>
				<g>
					<path class="st10" d="M334.6,700.7c-57.5,0-115.7-15.2-168.3-47.2C92.1,608.4,40,537,19.5,452.4C-1,367.8,12.7,280.3,57.9,206
						S174.6,79.4,259.1,58.7C343.6,38,431,51.5,505.2,96.6c153.2,93.2,201.8,294,108.4,447.5C552.2,645,444.6,700.7,334.6,700.7z
						 M337,52.1c-25.7,0-51.6,3.1-77.3,9.4c-83.8,20.5-154.6,72.3-199.5,146c-44.8,73.7-58.3,160.4-38,244.3
						c20.3,83.8,72,154.6,145.5,199.4c52.1,31.7,109.8,46.8,166.8,46.8c109.1,0,215.8-55.3,276.6-155.2
						C703.8,390.5,655.6,191.5,503.7,99C452.7,68,395.3,52.1,337,52.1z"/>
				</g>
				<g>
					<path class="st10" d="M334.5,712.8c-59.6,0-120-15.8-174.5-49C1.2,567.1-49.2,359,47.6,199.8C94.5,122.7,168.6,68.5,256.3,47
						c87.6-21.4,178.3-7.5,255.2,39.3c158.9,96.7,209.3,304.8,112.4,464C560.2,654.9,448.6,712.8,334.5,712.8z M337.1,40
						c-26.7,0-53.6,3.2-80.2,9.7C170,71,96.5,124.8,50,201.2C-46,359.1,4,565.5,161.5,661.4c157.5,95.9,363.9,45.4,459.9-112.5
						c96.1-157.9,46-364.3-111.5-460.2C457,56.6,397.6,40,337.1,40z"/>
				</g>
				<g>
					<path class="st10" d="M334.5,731.4c-62.9,0-126.6-16.7-184.1-51.7c-41-25-75.9-57.2-103.7-95.9c-26.9-37.4-46-79.1-56.9-124.1
						c-10.9-45-13-90.9-6.2-136.5c7-47.2,23.2-92,48.2-133.1c25-41.1,57.3-76.1,96-104c37.4-27,79.1-46.2,124.1-57.2
						c45-11,90.8-13.2,136.4-6.5c47.2,6.9,91.9,23.1,132.9,48c41,25,75.9,57.2,103.7,95.9c26.9,37.4,46,79.1,56.9,124.1
						c10.9,45,13,90.9,6.2,136.5c-7,47.2-23.2,92-48.2,133.1C572.6,670.4,454.9,731.4,334.5,731.4z M337.1,21.4
						c-28.2,0-56.5,3.4-84.6,10.3C160.8,54.1,83.2,110.9,34.1,191.5C-15,272.2-29.8,367.2-7.5,459c22.2,91.8,78.8,169.3,159.3,218.3
						c166.3,101.2,384.1,47.9,485.6-118.7c49.1-80.7,63.9-175.7,41.6-267.5c-22.2-91.8-78.8-169.3-159.3-218.3
						C463.8,38.8,401,21.4,337.1,21.4z"/>
				</g>
				<g>
					<path class="st10" d="M334.7,755.5c-18.4,0-36.7-1.3-55-4c-50.3-7.4-98-24.6-141.8-51.2c-43.8-26.6-81-61.1-110.7-102.4
						c-28.7-39.9-49.1-84.5-60.7-132.5c-11.6-48-13.9-97-6.7-145.7c7.5-50.4,24.8-98.2,51.5-142c26.7-43.9,61.2-81.2,102.5-111
						c39.9-28.8,84.5-49.3,132.4-61c48-11.7,96.9-14.1,145.5-6.9c50.3,7.4,98,24.6,141.8,51.2c43.8,26.6,81,61.1,110.7,102.4
						c28.7,39.9,49.1,84.5,60.7,132.5s13.9,97,6.7,145.7c-7.5,50.4-24.8,98.2-51.5,142c-26.7,43.9-61.2,81.2-102.5,111
						c-39.9,28.8-84.5,49.3-132.4,61C395.3,751.8,365.1,755.5,334.7,755.5z M337.1-2.4C209.5-2.4,84.8,62.2,13.7,179.1
						c-52.4,86.1-68.2,187.6-44.5,285.6c23.7,98,84.2,180.8,170.1,233.1C316.9,805.8,549.5,749,657.8,571
						c108.3-177.9,51.9-410.6-125.7-518.7C471.2,15.3,403.7-2.4,337.1-2.4z"/>
				</g>
				<g>
					<path class="st10" d="M334.7,775.5c-19.3,0-38.7-1.4-57.9-4.2c-53-7.8-103.2-25.9-149.3-54S42.2,653.1,10.9,609.6
						c-30.2-42-51.7-88.9-63.9-139.5S-67.6,368-60,316.8c7.9-53,26.1-103.3,54.2-149.5c28.1-46.2,64.4-85.5,107.9-116.8
						c42-30.3,88.9-51.9,139.4-64.2c50.5-12.4,102.1-14.8,153.2-7.3c53,7.8,103.2,25.9,149.3,54c46.1,28,85.3,64.3,116.5,107.8
						c30.2,42,51.7,88.9,63.9,139.5c12.2,50.5,14.6,102.1,7,153.4c-7.9,53-26.1,103.3-54.2,149.5c-28.1,46.2-64.4,85.5-107.9,116.8
						c-42,30.3-88.9,51.9-139.4,64.2C398.5,771.7,366.6,775.5,334.7,775.5z M337.3-22.7c-31.7,0-63.6,3.8-95.2,11.5
						C139,14.1,51.8,78-3.4,168.7c-114,187.4-54.7,432.5,132.3,546.3c187,113.8,431.9,53.9,546-133.5
						C788.9,394,729.6,149,542.6,35.2C479.7-3,409.1-22.7,337.3-22.7z"/>
				</g>
				<g>
					<path class="st10" d="M334.6,789.7c-20,0-40-1.5-60-4.4c-54.9-8-106.9-26.8-154.6-55.9c-47.7-29-88.3-66.6-120.7-111.6
						c-31.2-43.5-53.5-92.1-66.2-144.4c-12.7-52.3-15.1-105.8-7.3-158.8c8.1-54.9,27-107,56.1-154.8c29.1-47.8,66.7-88.5,111.7-121
						c43.5-31.4,92.1-53.7,144.4-66.5c52.3-12.8,105.7-15.3,158.7-7.6c54.9,8,106.9,26.8,154.6,55.9c47.7,29,88.3,66.6,120.7,111.6
						c31.2,43.5,53.5,92.1,66.2,144.4c12.7,52.3,15.1,105.8,7.3,158.8c-8.1,54.9-27,107-56.1,154.8c-29.1,47.8-66.7,88.5-111.7,121
						c-43.5,31.4-92.1,53.7-144.4,66.5C400.7,785.7,367.7,789.7,334.6,789.7z M337.4-36.9c-32.8,0-65.8,4-98.6,12
						C132,1.2,41.6,67.4-15.5,161.3c-118.1,194.1-56.6,447.9,137.1,565.8c93.8,57.1,204.2,74.1,311.1,48
						c106.9-26.1,197.2-92.3,254.4-186.2c57.2-94,74.4-204.6,48.5-311.5C709.6,170.4,643.7,80.1,549.9,23.1
						C484.9-16.5,411.7-36.9,337.4-36.9z"/>
				</g>
				<g>
					<path class="st10" d="M334.6,798.3c-20.4,0-40.9-1.5-61.2-4.5c-56-8.2-109.1-27.4-157.8-57c-48.7-29.6-90.1-68-123.2-113.9
						c-31.9-44.4-54.6-94-67.6-147.4c-12.9-53.4-15.4-108-7.4-162.1c8.3-56.1,27.6-109.2,57.3-158c29.7-48.8,68.1-90.3,114-123.5
						c44.4-32,94-54.8,147.4-67.9c53.4-13.1,107.9-15.7,162-7.7c56,8.2,109.1,27.4,157.8,57c48.7,29.6,90.1,68,123.2,113.9
						c31.9,44.4,54.6,94,67.6,147.4c12.9,53.4,15.4,108,7.4,162.1c-8.3,56.1-27.6,109.2-57.3,158c-29.7,48.8-68.1,90.3-114,123.5
						c-44.4,32-94,54.8-147.4,67.9C402.1,794.3,368.4,798.3,334.6,798.3z M337.2-45.3c-142,0-280.9,72-360.1,202.1
						c-58.4,95.9-76,208.9-49.5,318C-45.9,584,21.3,676.2,117.1,734.4c95.7,58.2,208.5,75.6,317.6,49
						c109.1-26.7,201.3-94.2,259.7-190.1C814.9,395.1,752.2,136,554.4,15.7C486.5-25.6,411.4-45.3,337.2-45.3z"/>
				</g>
				<g>
					<path class="st10" d="M334.6,804.7c-20.7,0-41.5-1.5-62.2-4.5c-56.8-8.3-110.7-27.8-160.2-57.9c-49.4-30.1-91.5-69-125-115.6
						c-32.4-45.1-55.4-95.4-68.6-149.6S-97,367.5-88.8,312.5c8.4-56.9,28-110.9,58.1-160.4C-0.6,102.6,38.4,60.4,85,26.7
						c45.1-32.5,95.4-55.7,149.6-68.9C288.8-55.4,344.1-58.1,399-50c56.8,8.3,110.7,27.8,160.2,57.9c49.4,30.1,91.5,69,125,115.6
						c32.4,45.1,55.4,95.4,68.6,149.6c13.1,54.2,15.7,109.6,7.5,164.5c-8.4,56.9-28,110.9-58.1,160.4
						c-30.1,49.5-69.1,91.7-115.8,125.3c-45.1,32.5-95.4,55.7-149.6,68.9C403.1,800.6,368.9,804.7,334.6,804.7z M337.2-51.6
						C193-51.6,52.1,21.4-28.3,153.6C-150.7,354.7-87,617.7,113.7,739.9c200.7,122.1,463.6,57.9,586-143.3
						c122.4-201.2,58.7-464.2-142.1-586.3C488.8-31.7,412.6-51.6,337.2-51.6z"/>
				</g>
				<g>
					<path class="st10" d="M334.6,809.5c-21,0-41.9-1.5-62.9-4.6c-57.5-8.4-112-28.1-161.9-58.5c-50-30.4-92.5-69.8-126.4-116.9
						C-49.3,583.9-72.7,533-86,478.2s-15.8-110.8-7.6-166.4c8.5-57.5,28.3-112.1,58.8-162.2c30.5-50.1,69.9-92.7,117-126.7
						c45.6-32.8,96.5-56.3,151.3-69.7c54.8-13.4,110.7-16.1,166.2-7.9c57.5,8.4,112,28.1,161.9,58.5c50,30.4,92.5,69.8,126.4,116.9
						c32.7,45.6,56.1,96.5,69.3,151.3c13.3,54.8,15.8,110.8,7.6,166.4c-8.5,57.5-28.3,112.1-58.8,162.2s-69.9,92.7-117,126.7
						c-45.6,32.8-96.5,56.3-151.3,69.7C403.8,805.3,369.2,809.5,334.6,809.5z M337.3-56.4c-145.8,0-288.4,73.9-369.7,207.5
						C-156.2,354.5-91.7,620.5,111.2,744c98.3,59.8,214.1,77.6,326,50.3c112-27.4,206.7-96.7,266.6-195.2
						C827.6,395.7,763.2,129.7,560.2,6.2C490.6-36.2,413.4-56.4,337.3-56.4z"/>
				</g>
				<g>
					<path class="st10" d="M334.6,817.7c-21.4,0-42.7-1.6-64-4.7c-58.6-8.6-114.1-28.6-165-59.6c-50.9-31-94.3-71.1-128.8-119.1
						c-33.3-46.4-57.1-98.3-70.7-154.1c-13.5-55.9-16.1-112.9-7.8-169.5C-93,252-72.9,196.4-41.8,145.3
						c31.1-51,71.2-94.5,119.3-129.1c46.4-33.5,98.3-57.4,154.1-71s112.8-16.4,169.4-8.1c58.6,8.6,114.1,28.6,165,59.6
						c50.9,31,94.3,71.1,128.8,119.1c33.3,46.4,57.1,98.3,70.7,154.1c13.5,55.9,16.1,112.9,7.8,169.5
						c-8.7,58.6-28.8,114.2-59.9,165.3S642.1,699.3,594,734c-46.4,33.5-98.3,57.4-154.1,71C405.1,813.5,369.9,817.7,334.6,817.7z
						 M337.5-64.8c-35,0-70.3,4.2-105.2,12.8C118.1-24.2,21.7,46.5-39.4,146.8C-165.5,354.1-99.9,625.1,107,751
						c71,43.2,149.6,63.8,227.2,63.8c148.6,0,293.8-75.3,376.7-211.4C837,396.1,771.3,125,564.5-0.9C495-43.1,416.9-64.8,337.5-64.8
						z"/>
				</g>
				<g>
					<path class="st10" d="M334.5,829.5c-21.9,0-43.9-1.6-65.8-4.8c-60.1-8.8-117.1-29.4-169.4-61.2c-52.3-31.8-96.8-73-132.2-122.3
						c-34.2-47.7-58.6-100.9-72.5-158.2c-13.9-57.3-16.6-115.9-8-174c8.9-60.2,29.6-117.3,61.5-169.7C-20,86.8,21.2,42.2,70.6,6.7
						c47.7-34.4,100.9-58.9,158.2-72.9c57.3-14,115.8-16.8,173.9-8.3c60.1,8.8,117.1,29.4,169.4,61.2c52.3,31.8,96.8,73,132.2,122.3
						c34.2,47.7,58.6,100.9,72.5,158.2s16.6,115.9,8,174c-8.9,60.2-29.6,117.3-61.5,169.7c-31.9,52.4-73.1,97-122.4,132.6
						c-47.7,34.4-100.9,58.9-158.2,72.9C406.9,825.1,370.8,829.5,334.5,829.5z M337.3-76.4C184.8-76.4,35.6,0.9-49.4,140.7
						c-62.7,103-81.6,224.3-53.2,341.6C-74.2,599.5-2,698.5,100.9,761.1c102.8,62.6,224,81.2,341.1,52.6
						C559.2,785,658.2,712.5,720.9,609.5c62.7-103,81.6-224.3,53.2-341.6C745.7,150.7,673.4,51.7,570.6-10.9
						C497.7-55.3,417-76.4,337.3-76.4z"/>
				</g>
				<g>
					<path class="st10" d="M334.5,847.3c-22.8,0-45.6-1.7-68.3-5c-62.5-9.2-121.7-30.6-176-63.6C35.8,745.6-10.4,702.8-47.2,651.6
						c-35.6-49.5-60.9-104.8-75.4-164.4c-14.4-59.6-17.2-120.4-8.3-180.8c9.3-62.5,30.8-121.9,63.9-176.3
						C-33.9,75.6,8.9,29.2,60.2-7.8c49.5-35.7,104.9-61.2,164.4-75.7S345-101,405.3-92.1c62.5,9.2,121.7,30.6,176,63.6
						C635.6,4.6,681.9,47.3,718.7,98.6c35.6,49.5,60.9,104.8,75.4,164.4c14.4,59.6,17.2,120.4,8.3,180.8
						c-9.3,62.5-30.8,121.9-63.9,176.3c-33.1,54.4-75.9,100.8-127.2,137.8c-49.5,35.7-104.9,61.2-164.4,75.7
						C409.7,842.7,372.1,847.3,334.5,847.3z M337.4-94.2c-158.6,0-313.6,80.3-402,225.6c-65.2,107.1-84.8,233.2-55.3,355
						C-90.4,608.3-15.3,711.2,91.6,776.3c75.8,46.1,159.6,68.1,242.5,68.1c158.6,0,313.6-80.3,402-225.6
						c134.6-221.2,64.5-510.5-156.2-644.8C504.1-72.2,420.2-94.2,337.4-94.2z"/>
				</g>
				<g>
					<path class="st10" d="M334.4,871c-23.9,0-47.9-1.7-71.8-5.2c-65.6-9.6-127.8-32.1-184.9-66.8C20.7,764.2-27.8,719.3-66.5,665.5
						c-37.4-52-64-110.1-79.2-172.7c-15.2-62.6-18.1-126.5-8.7-189.9c9.7-65.7,32.3-128,67.1-185.2C-52.5,60.5-7.5,11.8,46.4-27
						c52-37.5,110.1-64.3,172.7-79.6c62.6-15.3,126.4-18.3,189.8-9.1c65.6,9.6,127.8,32.1,184.9,66.8
						C650.7-14.1,699.3,30.8,738,84.7c37.4,52,64,110.1,79.2,172.7s18.1,126.5,8.7,189.9c-9.7,65.7-32.3,128-67.1,185.2
						c-34.8,57.2-79.8,105.9-133.6,144.7c-52,37.5-110.1,64.3-172.7,79.6C413.4,866.2,374,871,334.4,871z M337.7-118.1
						c-39.3,0-78.8,4.7-118,14.3C91.8-72.5-16.4,6.6-84.9,119.1c-141.4,232.4-67.8,536.3,164.1,677.4C158.9,845,247,868,334,868.1
						c166.6,0,329.4-84.4,422.3-237C897.7,398.6,824.1,94.7,592.2-46.4C514.3-93.8,426.7-118.1,337.7-118.1z"/>
				</g>
				<g>
					<path class="st10" d="M334.3,900.7c-25.4,0-50.7-1.9-76.1-5.6c-69.5-10.2-135.5-34-195.9-70.8C1.9,787.5-49.6,739.9-90.6,682.9
						c-39.6-55.1-67.8-116.7-83.9-183c-16.1-66.3-19.2-134.1-9.2-201.3c10.3-69.6,34.2-135.6,71.1-196.2C-75.7,41.7-28-9.9,29-51.1
						c55.1-39.7,116.7-68.1,183-84.3c66.3-16.2,134-19.4,201.1-9.6c69.5,10.2,135.5,34,195.9,70.8C669.6-37.4,721,10.2,762,67.3
						c39.6,55.1,67.8,116.7,83.9,183c16.1,66.3,19.2,134.1,9.2,201.3c-10.3,69.6-34.2,135.6-71.1,196.2
						c-36.9,60.6-84.5,112.2-141.6,153.3c-55.1,39.7-116.7,68.1-183,84.3C418.1,895.6,376.3,900.7,334.3,900.7z M337.8-147.8
						c-41.6,0-83.6,5-125.1,15.2C77.1-99.5-37.6-15.5-110.2,103.7c-149.9,246.4-71.9,568.6,174,718.2
						c84.4,51.3,177.8,75.8,270.1,75.8c176.6,0,349.3-89.5,447.8-251.3C931.6,400,853.5,77.8,607.6-71.8c0,0,0,0,0,0
						C525-122,432.2-147.8,337.8-147.8z"/>
				</g>
				<g>
					<path class="st10" d="M335.4,552.8c-31.5,0-63.3-8.3-92.1-25.9C159.6,476,133,366.4,183.9,282.7s160.5-110.4,244.2-59.4
						c40.5,24.7,69,63.7,80.3,109.8s3.8,93.9-20.8,134.4C454.1,522.4,395.5,552.8,335.4,552.8z M336.1,200.1
						c-13.9,0-27.9,1.7-41.7,5c-45.4,11.1-83.8,39.1-108.1,79c-50.1,82.4-23.9,190.2,58.5,240.4c28.3,17.2,59.7,25.4,90.6,25.5
						c59.1,0,116.8-29.9,149.7-84c24.3-39.9,31.6-86.9,20.5-132.3c-11.1-45.4-39.1-83.8-79-108.1
						C398.9,208.8,367.8,200.1,336.1,200.1z"/>
				</g>
			</g>
		</g>
	</g>
	<g>
		<circle class="st11" cx="335.7" cy="375.1" r="17.7"/>
		<path class="st10" d="M335.7,394.1c-10.5,0-19.1-8.6-19.1-19.1s8.6-19.1,19.1-19.1s19.1,8.6,19.1,19.1S346.2,394.1,335.7,394.1z
			 M335.7,358.8c-9,0-16.3,7.3-16.3,16.3s7.3,16.3,16.3,16.3c9,0,16.3-7.3,16.3-16.3S344.7,358.8,335.7,358.8z"/>
	</g>
	<g>
		<g>
			<path class="st5" d="M975.1,368.1v-4.5h-98.8v4.5H975.1z"/>
		</g>
		<g>
			<path class="st5" d="M990.8,365.8l-19.7,8.4v-16.9L990.8,365.8z"/>
		</g>
	</g>
	<g class="st12">
		<g>
			<path d="M897.9,347.2h-3.2c-0.4,0-0.7-0.1-0.9-0.3c-0.2-0.2-0.4-0.4-0.5-0.7l-1.7-4.5h-9.2l-1.7,4.5c-0.1,0.2-0.2,0.5-0.5,0.6
				c-0.2,0.2-0.5,0.3-0.9,0.3h-3.2l8.7-22.2h4.2L897.9,347.2z M883.5,338.8h7.1l-2.7-7.4c-0.1-0.3-0.3-0.7-0.4-1.2s-0.3-0.9-0.4-1.5
				c-0.1,0.5-0.3,1-0.4,1.5s-0.3,0.8-0.4,1.2L883.5,338.8z"/>
		</g>
		<g>
			<path d="M903.4,331.4v10c0,1,0.2,1.7,0.7,2.2c0.4,0.5,1.1,0.8,2,0.8c0.7,0,1.3-0.1,1.8-0.4c0.6-0.3,1.1-0.7,1.6-1.2v-11.4h3.8
				v15.8h-2.3c-0.5,0-0.8-0.2-1-0.7l-0.3-1.3c-0.3,0.3-0.7,0.6-1,0.9c-0.3,0.3-0.7,0.5-1.1,0.7c-0.4,0.2-0.8,0.3-1.3,0.4
				c-0.5,0.1-0.9,0.2-1.5,0.2c-0.9,0-1.6-0.1-2.3-0.4c-0.7-0.3-1.2-0.7-1.7-1.2s-0.8-1.2-1-1.9c-0.2-0.7-0.3-1.5-0.3-2.4v-10H903.4z
				"/>
		</g>
		<g>
			<path d="M926.8,334.5c-0.1,0.2-0.2,0.3-0.3,0.3c-0.1,0.1-0.3,0.1-0.4,0.1c-0.2,0-0.4-0.1-0.6-0.2s-0.5-0.2-0.7-0.3
				s-0.6-0.2-0.9-0.3s-0.8-0.2-1.3-0.2c-0.7,0-1.3,0.2-1.8,0.5c-0.4,0.3-0.6,0.7-0.6,1.2c0,0.3,0.1,0.6,0.3,0.9
				c0.2,0.2,0.5,0.4,0.9,0.6c0.4,0.2,0.8,0.3,1.2,0.5c0.5,0.1,0.9,0.3,1.4,0.5s1,0.4,1.4,0.6c0.5,0.2,0.9,0.5,1.2,0.8
				c0.4,0.3,0.7,0.7,0.9,1.2c0.2,0.5,0.3,1,0.3,1.6c0,0.8-0.1,1.5-0.4,2.1s-0.7,1.2-1.2,1.7s-1.2,0.8-2,1.1
				c-0.8,0.3-1.7,0.4-2.7,0.4c-0.5,0-1.1,0-1.6-0.1c-0.5-0.1-1-0.2-1.5-0.4c-0.5-0.2-0.9-0.4-1.3-0.6c-0.4-0.2-0.8-0.5-1.1-0.8
				l0.9-1.4c0.1-0.2,0.2-0.3,0.4-0.4c0.2-0.1,0.3-0.1,0.6-0.1c0.2,0,0.5,0.1,0.7,0.2s0.5,0.3,0.7,0.4c0.3,0.2,0.6,0.3,1,0.4
				c0.4,0.1,0.8,0.2,1.4,0.2c0.5,0,0.8-0.1,1.2-0.2c0.3-0.1,0.6-0.2,0.8-0.4c0.2-0.2,0.4-0.4,0.5-0.6c0.1-0.2,0.1-0.5,0.1-0.7
				c0-0.4-0.1-0.7-0.3-0.9c-0.2-0.2-0.5-0.4-0.9-0.6c-0.4-0.2-0.8-0.3-1.2-0.5c-0.5-0.1-0.9-0.3-1.4-0.5c-0.5-0.2-1-0.4-1.4-0.6
				s-0.9-0.5-1.2-0.8c-0.4-0.3-0.7-0.8-0.9-1.2c-0.2-0.5-0.3-1.1-0.3-1.8c0-0.6,0.1-1.3,0.4-1.8c0.3-0.6,0.6-1.1,1.1-1.5
				c0.5-0.4,1.1-0.8,1.9-1c0.7-0.3,1.6-0.4,2.6-0.4c1.1,0,2.1,0.2,3,0.5c0.9,0.4,1.6,0.8,2.2,1.4L926.8,334.5z"/>
		</g>
		<g>
			<path d="M930.9,347.2v-22.9h3.8v9c0.6-0.7,1.3-1.2,2.1-1.6c0.8-0.4,1.7-0.6,2.8-0.6c0.9,0,1.6,0.2,2.4,0.5
				c0.7,0.4,1.3,0.9,1.8,1.5c0.5,0.7,0.9,1.5,1.2,2.5c0.3,1,0.4,2.1,0.4,3.4c0,1.2-0.2,2.3-0.5,3.3c-0.3,1-0.8,1.9-1.4,2.6
				c-0.6,0.7-1.3,1.3-2.1,1.7c-0.8,0.4-1.8,0.6-2.8,0.6c-0.5,0-0.9,0-1.3-0.1c-0.4-0.1-0.8-0.2-1.1-0.4c-0.3-0.2-0.6-0.4-0.9-0.6
				s-0.6-0.5-0.8-0.8l-0.2,1.1c-0.1,0.3-0.2,0.5-0.3,0.6c-0.1,0.1-0.4,0.2-0.6,0.2H930.9z M938.3,334.1c-0.8,0-1.5,0.2-2,0.5
				c-0.6,0.3-1.1,0.8-1.6,1.4v7.1c0.4,0.5,0.9,0.9,1.4,1.1c0.5,0.2,1.1,0.3,1.7,0.3c0.6,0,1.1-0.1,1.6-0.3c0.5-0.2,0.9-0.5,1.2-1
				c0.3-0.4,0.6-1,0.7-1.7c0.2-0.7,0.3-1.5,0.3-2.4c0-0.9-0.1-1.7-0.2-2.3c-0.1-0.6-0.4-1.2-0.6-1.6c-0.3-0.4-0.6-0.7-1-0.9
				S938.8,334.1,938.3,334.1z"/>
		</g>
		<g>
			<path d="M948.4,347.2v-15.8h2.2c0.4,0,0.7,0.1,0.8,0.2c0.2,0.1,0.3,0.4,0.3,0.7l0.2,1.9c0.6-1,1.2-1.7,2-2.3
				c0.8-0.6,1.6-0.8,2.6-0.8c0.8,0,1.4,0.2,1.9,0.5l-0.5,2.8c0,0.2-0.1,0.3-0.2,0.4c-0.1,0.1-0.2,0.1-0.4,0.1c-0.2,0-0.4,0-0.6-0.1
				c-0.3-0.1-0.6-0.1-1.1-0.1c-0.8,0-1.5,0.2-2,0.7c-0.6,0.4-1,1.1-1.4,1.9v9.8H948.4z"/>
		</g>
		<g>
			<path d="M967.5,331.2c1,0,1.9,0.2,2.7,0.5s1.6,0.8,2.2,1.4c0.6,0.6,1.1,1.4,1.4,2.2c0.3,0.9,0.5,1.9,0.5,3c0,0.3,0,0.5,0,0.7
				c0,0.2-0.1,0.3-0.1,0.4c-0.1,0.1-0.2,0.2-0.3,0.2c-0.1,0-0.3,0.1-0.4,0.1h-9.8c0.1,1.6,0.5,2.8,1.3,3.6c0.8,0.8,1.8,1.1,3,1.1
				c0.6,0,1.1-0.1,1.6-0.2c0.4-0.1,0.8-0.3,1.2-0.5c0.3-0.2,0.6-0.3,0.9-0.5c0.3-0.1,0.5-0.2,0.7-0.2c0.2,0,0.3,0,0.4,0.1
				c0.1,0.1,0.2,0.1,0.3,0.3l1.1,1.4c-0.4,0.5-0.9,0.9-1.4,1.2c-0.5,0.3-1.1,0.6-1.6,0.8s-1.1,0.3-1.7,0.4c-0.6,0.1-1.2,0.1-1.7,0.1
				c-1.1,0-2.1-0.2-3.1-0.5s-1.8-0.9-2.5-1.6c-0.7-0.7-1.2-1.6-1.6-2.6c-0.4-1.1-0.6-2.3-0.6-3.7c0-1.1,0.2-2.1,0.5-3
				s0.8-1.8,1.5-2.5c0.7-0.7,1.4-1.3,2.4-1.7S966.3,331.2,967.5,331.2z M967.6,333.9c-1.1,0-2,0.3-2.6,0.9c-0.6,0.6-1,1.5-1.2,2.7
				h7.1c0-0.5-0.1-1-0.2-1.4c-0.1-0.4-0.3-0.8-0.6-1.1c-0.3-0.3-0.6-0.6-1-0.8C968.7,334,968.2,333.9,967.6,333.9z"/>
		</g>
		<g>
			<path d="M982.1,326.8c0,0.3-0.1,0.6-0.2,0.9c-0.1,0.3-0.3,0.5-0.5,0.8c-0.2,0.2-0.5,0.4-0.8,0.5c-0.3,0.1-0.6,0.2-1,0.2
				c-0.3,0-0.6-0.1-0.9-0.2c-0.3-0.1-0.5-0.3-0.8-0.5c-0.2-0.2-0.4-0.5-0.5-0.8c-0.1-0.3-0.2-0.6-0.2-0.9c0-0.3,0.1-0.7,0.2-1
				c0.1-0.3,0.3-0.6,0.5-0.8c0.2-0.2,0.5-0.4,0.8-0.5c0.3-0.1,0.6-0.2,0.9-0.2c0.3,0,0.7,0.1,1,0.2c0.3,0.1,0.6,0.3,0.8,0.5
				c0.2,0.2,0.4,0.5,0.5,0.8C982,326.1,982.1,326.5,982.1,326.8z M981.5,331.4v15.8h-3.8v-15.8H981.5z"/>
		</g>
		<g>
			<path d="M991,347.4c-1.4,0-2.4-0.4-3.2-1.2c-0.7-0.8-1.1-1.8-1.1-3.2v-8.8h-1.6c-0.2,0-0.4-0.1-0.5-0.2c-0.1-0.1-0.2-0.3-0.2-0.6
				v-1.5l2.5-0.4l0.8-4.3c0-0.2,0.1-0.4,0.3-0.5c0.1-0.1,0.3-0.2,0.6-0.2h2v5h4.2v2.7h-4.2v8.6c0,0.5,0.1,0.9,0.4,1.2s0.6,0.4,1,0.4
				c0.2,0,0.4,0,0.6-0.1c0.2-0.1,0.3-0.1,0.4-0.2s0.2-0.1,0.3-0.2c0.1-0.1,0.2-0.1,0.3-0.1c0.1,0,0.2,0,0.3,0.1
				c0.1,0.1,0.1,0.1,0.2,0.3l1.1,1.8c-0.6,0.5-1.2,0.8-1.9,1S991.7,347.4,991,347.4z"/>
		</g>
		<g>
			<path d="M1001.2,331.4v10c0,1,0.2,1.7,0.7,2.2c0.4,0.5,1.1,0.8,2,0.8c0.7,0,1.3-0.1,1.8-0.4c0.6-0.3,1.1-0.7,1.6-1.2v-11.4h3.8
				v15.8h-2.3c-0.5,0-0.8-0.2-1-0.7l-0.3-1.3c-0.3,0.3-0.7,0.6-1,0.9c-0.3,0.3-0.7,0.5-1.1,0.7c-0.4,0.2-0.8,0.3-1.3,0.4
				c-0.5,0.1-0.9,0.2-1.5,0.2c-0.9,0-1.6-0.1-2.3-0.4c-0.7-0.3-1.2-0.7-1.7-1.2s-0.8-1.2-1-1.9c-0.2-0.7-0.3-1.5-0.3-2.4v-10H1001.2
				z"/>
		</g>
		<g>
			<path d="M1015.2,347.2v-15.8h2.3c0.5,0,0.8,0.2,1,0.7l0.3,1.2c0.3-0.3,0.7-0.6,1-0.9c0.4-0.3,0.7-0.5,1.1-0.7
				c0.4-0.2,0.8-0.3,1.3-0.4c0.5-0.1,0.9-0.2,1.5-0.2c0.9,0,1.6,0.1,2.3,0.4c0.7,0.3,1.2,0.7,1.7,1.2c0.4,0.5,0.8,1.2,1,1.9
				c0.2,0.7,0.3,1.5,0.3,2.4v10h-3.8v-10c0-1-0.2-1.7-0.7-2.2s-1.1-0.8-2-0.8c-0.7,0-1.3,0.1-1.8,0.4c-0.6,0.3-1.1,0.7-1.6,1.2v11.4
				H1015.2z"/>
		</g>
		<g>
			<path d="M1038.1,331.1c0.7,0,1.3,0.1,1.9,0.2c0.6,0.1,1.1,0.3,1.6,0.6h4.5v1.4c0,0.2-0.1,0.4-0.2,0.6c-0.1,0.1-0.3,0.2-0.6,0.3
				l-1.4,0.3c0.1,0.3,0.2,0.5,0.2,0.8c0.1,0.3,0.1,0.6,0.1,0.9c0,0.8-0.2,1.5-0.5,2.1c-0.3,0.6-0.7,1.2-1.3,1.6s-1.2,0.8-2,1
				c-0.8,0.2-1.6,0.4-2.5,0.4c-0.6,0-1.2-0.1-1.7-0.2c-0.5,0.3-0.7,0.6-0.7,1c0,0.3,0.1,0.6,0.4,0.7c0.3,0.1,0.7,0.3,1.2,0.3
				c0.5,0.1,1,0.1,1.6,0.1c0.6,0,1.2,0,1.9,0.1c0.6,0.1,1.3,0.1,1.9,0.3c0.6,0.1,1.1,0.3,1.6,0.6s0.9,0.7,1.2,1.1
				c0.3,0.5,0.4,1.1,0.4,1.8c0,0.7-0.2,1.4-0.5,2c-0.3,0.7-0.8,1.2-1.5,1.8c-0.7,0.5-1.4,0.9-2.4,1.2c-0.9,0.3-2,0.5-3.2,0.5
				c-1.2,0-2.2-0.1-3.1-0.3c-0.9-0.2-1.6-0.5-2.2-0.9c-0.6-0.4-1-0.8-1.3-1.3c-0.3-0.5-0.4-1-0.4-1.6c0-0.7,0.2-1.4,0.7-1.9
				s1.1-0.9,1.9-1.2c-0.4-0.2-0.7-0.5-0.9-0.9c-0.2-0.4-0.4-0.8-0.4-1.4c0-0.2,0-0.5,0.1-0.7c0.1-0.3,0.2-0.5,0.4-0.7
				s0.4-0.5,0.6-0.7c0.3-0.2,0.6-0.4,0.9-0.6c-0.8-0.4-1.4-1-1.9-1.7c-0.5-0.7-0.7-1.6-0.7-2.5c0-0.8,0.2-1.5,0.5-2.1
				c0.3-0.6,0.7-1.2,1.3-1.6c0.6-0.4,1.2-0.8,2-1C1036.4,331.2,1037.2,331.1,1038.1,331.1z M1042.3,347.8c0-0.3-0.1-0.6-0.3-0.8
				c-0.2-0.2-0.4-0.4-0.8-0.5c-0.3-0.1-0.7-0.2-1.1-0.2c-0.4-0.1-0.9-0.1-1.4-0.1c-0.5,0-1,0-1.5,0s-1-0.1-1.5-0.2
				c-0.4,0.2-0.8,0.5-1,0.8s-0.4,0.7-0.4,1.1c0,0.3,0.1,0.5,0.2,0.8c0.1,0.2,0.4,0.4,0.7,0.6c0.3,0.2,0.7,0.3,1.2,0.4
				c0.5,0.1,1.1,0.1,1.8,0.1c0.7,0,1.3-0.1,1.8-0.2s0.9-0.3,1.3-0.5c0.3-0.2,0.6-0.4,0.7-0.7
				C1042.2,348.5,1042.3,348.2,1042.3,347.8z M1038.1,338.9c0.5,0,0.9-0.1,1.2-0.2c0.3-0.1,0.6-0.3,0.9-0.5c0.2-0.2,0.4-0.5,0.5-0.8
				s0.2-0.7,0.2-1c0-0.8-0.2-1.4-0.7-1.9c-0.5-0.5-1.2-0.7-2.1-0.7s-1.6,0.2-2.1,0.7c-0.5,0.5-0.7,1.1-0.7,1.9c0,0.4,0.1,0.7,0.2,1
				c0.1,0.3,0.3,0.6,0.5,0.8c0.2,0.2,0.5,0.4,0.9,0.5C1037.3,338.8,1037.7,338.9,1038.1,338.9z"/>
		</g>
		<g>
			<path d="M1058,334.5c-0.1,0.2-0.2,0.3-0.3,0.3c-0.1,0.1-0.3,0.1-0.4,0.1c-0.2,0-0.4-0.1-0.6-0.2s-0.5-0.2-0.7-0.3
				s-0.6-0.2-0.9-0.3s-0.8-0.2-1.3-0.2c-0.7,0-1.3,0.2-1.8,0.5c-0.4,0.3-0.6,0.7-0.6,1.2c0,0.3,0.1,0.6,0.3,0.9
				c0.2,0.2,0.5,0.4,0.9,0.6c0.4,0.2,0.8,0.3,1.2,0.5c0.5,0.1,0.9,0.3,1.4,0.5s1,0.4,1.4,0.6c0.5,0.2,0.9,0.5,1.2,0.8
				c0.4,0.3,0.7,0.7,0.9,1.2c0.2,0.5,0.3,1,0.3,1.6c0,0.8-0.1,1.5-0.4,2.1s-0.7,1.2-1.2,1.7s-1.2,0.8-2,1.1
				c-0.8,0.3-1.7,0.4-2.7,0.4c-0.5,0-1.1,0-1.6-0.1c-0.5-0.1-1-0.2-1.5-0.4c-0.5-0.2-0.9-0.4-1.3-0.6c-0.4-0.2-0.8-0.5-1.1-0.8
				l0.9-1.4c0.1-0.2,0.2-0.3,0.4-0.4c0.2-0.1,0.3-0.1,0.6-0.1c0.2,0,0.5,0.1,0.7,0.2s0.5,0.3,0.7,0.4c0.3,0.2,0.6,0.3,1,0.4
				c0.4,0.1,0.8,0.2,1.4,0.2c0.5,0,0.8-0.1,1.2-0.2c0.3-0.1,0.6-0.2,0.8-0.4c0.2-0.2,0.4-0.4,0.5-0.6c0.1-0.2,0.1-0.5,0.1-0.7
				c0-0.4-0.1-0.7-0.3-0.9c-0.2-0.2-0.5-0.4-0.9-0.6c-0.4-0.2-0.8-0.3-1.2-0.5c-0.5-0.1-0.9-0.3-1.4-0.5c-0.5-0.2-1-0.4-1.4-0.6
				s-0.9-0.5-1.2-0.8c-0.4-0.3-0.7-0.8-0.9-1.2c-0.2-0.5-0.3-1.1-0.3-1.8c0-0.6,0.1-1.3,0.4-1.8c0.3-0.6,0.6-1.1,1.1-1.5
				c0.5-0.4,1.1-0.8,1.9-1c0.7-0.3,1.6-0.4,2.6-0.4c1.1,0,2.1,0.2,3,0.5c0.9,0.4,1.6,0.8,2.2,1.4L1058,334.5z"/>
		</g>
		<g>
			<path d="M1062.1,347.2v-15.8h2.2c0.4,0,0.7,0.1,0.8,0.2c0.2,0.1,0.3,0.4,0.3,0.7l0.2,1.9c0.6-1,1.2-1.7,2-2.3
				c0.8-0.6,1.6-0.8,2.6-0.8c0.8,0,1.4,0.2,1.9,0.5l-0.5,2.8c0,0.2-0.1,0.3-0.2,0.4c-0.1,0.1-0.2,0.1-0.4,0.1c-0.2,0-0.4,0-0.6-0.1
				c-0.3-0.1-0.6-0.1-1.1-0.1c-0.8,0-1.5,0.2-2,0.7c-0.6,0.4-1,1.1-1.4,1.9v9.8H1062.1z"/>
		</g>
		<g>
			<path d="M1079.2,326.8c0,0.3-0.1,0.6-0.2,0.9c-0.1,0.3-0.3,0.5-0.5,0.8c-0.2,0.2-0.5,0.4-0.8,0.5c-0.3,0.1-0.6,0.2-1,0.2
				c-0.3,0-0.6-0.1-0.9-0.2c-0.3-0.1-0.5-0.3-0.8-0.5c-0.2-0.2-0.4-0.5-0.5-0.8c-0.1-0.3-0.2-0.6-0.2-0.9c0-0.3,0.1-0.7,0.2-1
				c0.1-0.3,0.3-0.6,0.5-0.8c0.2-0.2,0.5-0.4,0.8-0.5c0.3-0.1,0.6-0.2,0.9-0.2c0.3,0,0.7,0.1,1,0.2c0.3,0.1,0.6,0.3,0.8,0.5
				c0.2,0.2,0.4,0.5,0.5,0.8C1079.2,326.1,1079.2,326.5,1079.2,326.8z M1078.7,331.4v15.8h-3.8v-15.8H1078.7z"/>
		</g>
		<g>
			<path d="M1094.1,334.7c-0.1,0.1-0.2,0.3-0.3,0.3c-0.1,0.1-0.3,0.1-0.5,0.1c-0.2,0-0.4-0.1-0.6-0.2c-0.2-0.1-0.4-0.3-0.7-0.4
				c-0.3-0.1-0.6-0.3-0.9-0.4c-0.4-0.1-0.8-0.2-1.3-0.2c-0.7,0-1.3,0.1-1.8,0.4c-0.5,0.2-0.9,0.6-1.3,1c-0.3,0.5-0.6,1-0.7,1.6
				s-0.2,1.4-0.2,2.2c0,0.8,0.1,1.6,0.3,2.2c0.2,0.7,0.4,1.2,0.8,1.7c0.3,0.4,0.7,0.8,1.2,1c0.5,0.2,1,0.3,1.6,0.3
				c0.6,0,1.1-0.1,1.5-0.2c0.4-0.1,0.7-0.3,0.9-0.5c0.3-0.2,0.5-0.3,0.7-0.5c0.2-0.1,0.4-0.2,0.6-0.2c0.3,0,0.5,0.1,0.7,0.4l1.1,1.4
				c-0.4,0.5-0.9,0.9-1.4,1.2c-0.5,0.3-1,0.6-1.5,0.8s-1.1,0.3-1.6,0.4c-0.6,0.1-1.1,0.1-1.7,0.1c-1,0-1.9-0.2-2.8-0.5
				s-1.6-0.9-2.3-1.6c-0.6-0.7-1.1-1.6-1.5-2.6c-0.4-1-0.6-2.2-0.6-3.5c0-1.2,0.2-2.2,0.5-3.2c0.3-1,0.8-1.8,1.5-2.6
				s1.4-1.3,2.4-1.7c1-0.4,2.1-0.6,3.3-0.6c1.2,0,2.2,0.2,3.1,0.6c0.9,0.4,1.7,0.9,2.4,1.6L1094.1,334.7z"/>
		</g>
		<g>
			<path d="M1097.6,347.2v-22.9h3.8v8.8c0.6-0.6,1.3-1.1,2-1.4c0.7-0.4,1.6-0.5,2.6-0.5c0.9,0,1.6,0.1,2.3,0.4
				c0.7,0.3,1.2,0.7,1.7,1.2c0.4,0.5,0.8,1.2,1,1.9c0.2,0.7,0.3,1.5,0.3,2.4v10h-3.8v-10c0-1-0.2-1.7-0.7-2.2s-1.1-0.8-2-0.8
				c-0.7,0-1.3,0.1-1.8,0.4c-0.6,0.3-1.1,0.7-1.6,1.2v11.4H1097.6z"/>
		</g>
		<g>
			<path d="M1120.3,347.4c-1.4,0-2.4-0.4-3.2-1.2c-0.7-0.8-1.1-1.8-1.1-3.2v-8.8h-1.6c-0.2,0-0.4-0.1-0.5-0.2
				c-0.1-0.1-0.2-0.3-0.2-0.6v-1.5l2.5-0.4l0.8-4.3c0-0.2,0.1-0.4,0.3-0.5c0.1-0.1,0.3-0.2,0.6-0.2h2v5h4.2v2.7h-4.2v8.6
				c0,0.5,0.1,0.9,0.4,1.2s0.6,0.4,1,0.4c0.2,0,0.4,0,0.6-0.1c0.2-0.1,0.3-0.1,0.4-0.2s0.2-0.1,0.3-0.2c0.1-0.1,0.2-0.1,0.3-0.1
				c0.1,0,0.2,0,0.3,0.1c0.1,0.1,0.1,0.1,0.2,0.3l1.1,1.8c-0.6,0.5-1.2,0.8-1.9,1S1121.1,347.4,1120.3,347.4z"/>
		</g>
		<g>
			<path d="M1130.5,331.4v10c0,1,0.2,1.7,0.7,2.2c0.4,0.5,1.1,0.8,2,0.8c0.7,0,1.3-0.1,1.8-0.4c0.6-0.3,1.1-0.7,1.6-1.2v-11.4h3.8
				v15.8h-2.3c-0.5,0-0.8-0.2-1-0.7l-0.3-1.3c-0.3,0.3-0.7,0.6-1,0.9c-0.3,0.3-0.7,0.5-1.1,0.7c-0.4,0.2-0.8,0.3-1.3,0.4
				c-0.5,0.1-0.9,0.2-1.5,0.2c-0.9,0-1.6-0.1-2.3-0.4c-0.7-0.3-1.2-0.7-1.7-1.2s-0.8-1.2-1-1.9c-0.2-0.7-0.3-1.5-0.3-2.4v-10H1130.5
				z"/>
		</g>
		<g>
			<path d="M1144.5,347.2v-15.8h2.3c0.5,0,0.8,0.2,1,0.7l0.3,1.2c0.3-0.3,0.7-0.6,1-0.9c0.4-0.3,0.7-0.5,1.1-0.7
				c0.4-0.2,0.8-0.3,1.3-0.4c0.5-0.1,0.9-0.2,1.5-0.2c0.9,0,1.6,0.1,2.3,0.4c0.7,0.3,1.2,0.7,1.7,1.2c0.4,0.5,0.8,1.2,1,1.9
				c0.2,0.7,0.3,1.5,0.3,2.4v10h-3.8v-10c0-1-0.2-1.7-0.7-2.2s-1.1-0.8-2-0.8c-0.7,0-1.3,0.1-1.8,0.4c-0.6,0.3-1.1,0.7-1.6,1.2v11.4
				H1144.5z"/>
		</g>
		<g>
			<path d="M1167.5,331.1c0.7,0,1.3,0.1,1.9,0.2c0.6,0.1,1.1,0.3,1.6,0.6h4.5v1.4c0,0.2-0.1,0.4-0.2,0.6c-0.1,0.1-0.3,0.2-0.6,0.3
				l-1.4,0.3c0.1,0.3,0.2,0.5,0.2,0.8c0.1,0.3,0.1,0.6,0.1,0.9c0,0.8-0.2,1.5-0.5,2.1c-0.3,0.6-0.7,1.2-1.3,1.6s-1.2,0.8-2,1
				c-0.8,0.2-1.6,0.4-2.5,0.4c-0.6,0-1.2-0.1-1.7-0.2c-0.5,0.3-0.7,0.6-0.7,1c0,0.3,0.1,0.6,0.4,0.7c0.3,0.1,0.7,0.3,1.2,0.3
				c0.5,0.1,1,0.1,1.6,0.1c0.6,0,1.2,0,1.9,0.1c0.6,0.1,1.3,0.1,1.9,0.3c0.6,0.1,1.1,0.3,1.6,0.6s0.9,0.7,1.2,1.1
				c0.3,0.5,0.4,1.1,0.4,1.8c0,0.7-0.2,1.4-0.5,2c-0.3,0.7-0.8,1.2-1.5,1.8c-0.7,0.5-1.4,0.9-2.4,1.2c-0.9,0.3-2,0.5-3.2,0.5
				c-1.2,0-2.2-0.1-3.1-0.3c-0.9-0.2-1.6-0.5-2.2-0.9c-0.6-0.4-1-0.8-1.3-1.3c-0.3-0.5-0.4-1-0.4-1.6c0-0.7,0.2-1.4,0.7-1.9
				s1.1-0.9,1.9-1.2c-0.4-0.2-0.7-0.5-0.9-0.9c-0.2-0.4-0.4-0.8-0.4-1.4c0-0.2,0-0.5,0.1-0.7c0.1-0.3,0.2-0.5,0.4-0.7
				s0.4-0.5,0.6-0.7c0.3-0.2,0.6-0.4,0.9-0.6c-0.8-0.4-1.4-1-1.9-1.7c-0.5-0.7-0.7-1.6-0.7-2.5c0-0.8,0.2-1.5,0.5-2.1
				c0.3-0.6,0.7-1.2,1.3-1.6c0.6-0.4,1.2-0.8,2-1C1165.7,331.2,1166.6,331.1,1167.5,331.1z M1171.7,347.8c0-0.3-0.1-0.6-0.3-0.8
				c-0.2-0.2-0.4-0.4-0.8-0.5c-0.3-0.1-0.7-0.2-1.1-0.2c-0.4-0.1-0.9-0.1-1.4-0.1c-0.5,0-1,0-1.5,0s-1-0.1-1.5-0.2
				c-0.4,0.2-0.8,0.5-1,0.8s-0.4,0.7-0.4,1.1c0,0.3,0.1,0.5,0.2,0.8c0.1,0.2,0.4,0.4,0.7,0.6c0.3,0.2,0.7,0.3,1.2,0.4
				c0.5,0.1,1.1,0.1,1.8,0.1c0.7,0,1.3-0.1,1.8-0.2s0.9-0.3,1.3-0.5c0.3-0.2,0.6-0.4,0.7-0.7
				C1171.6,348.5,1171.7,348.2,1171.7,347.8z M1167.5,338.9c0.5,0,0.9-0.1,1.2-0.2c0.3-0.1,0.6-0.3,0.9-0.5c0.2-0.2,0.4-0.5,0.5-0.8
				s0.2-0.7,0.2-1c0-0.8-0.2-1.4-0.7-1.9c-0.5-0.5-1.2-0.7-2.1-0.7s-1.6,0.2-2.1,0.7c-0.5,0.5-0.7,1.1-0.7,1.9c0,0.4,0.1,0.7,0.2,1
				c0.1,0.3,0.3,0.6,0.5,0.8c0.2,0.2,0.5,0.4,0.9,0.5C1166.6,338.8,1167,338.9,1167.5,338.9z"/>
		</g>
	</g>
	<g class="st12">
		<g>
			<path d="M200.4,329c-0.1,0.2-0.2,0.4-0.4,0.5c-0.1,0.1-0.3,0.1-0.5,0.1c-0.2,0-0.4-0.1-0.7-0.2c-0.3-0.2-0.6-0.3-0.9-0.5
				c-0.3-0.2-0.8-0.4-1.2-0.5c-0.5-0.2-1-0.2-1.7-0.2c-0.6,0-1.1,0.1-1.5,0.2c-0.4,0.1-0.8,0.3-1.1,0.6s-0.5,0.5-0.7,0.9
				s-0.2,0.7-0.2,1.1c0,0.5,0.1,1,0.4,1.3s0.7,0.6,1.2,0.9c0.5,0.2,1,0.5,1.6,0.7s1.2,0.4,1.9,0.6c0.6,0.2,1.3,0.5,1.9,0.8
				c0.6,0.3,1.2,0.7,1.6,1.1c0.5,0.4,0.9,1,1.2,1.6s0.4,1.4,0.4,2.4c0,1-0.2,1.9-0.5,2.8c-0.3,0.9-0.8,1.6-1.5,2.3
				c-0.7,0.7-1.5,1.2-2.4,1.5c-1,0.4-2,0.6-3.3,0.6c-0.7,0-1.4-0.1-2.1-0.2c-0.7-0.1-1.3-0.3-2-0.6s-1.2-0.6-1.8-0.9
				c-0.5-0.4-1-0.8-1.5-1.2l1.2-2c0.1-0.1,0.2-0.3,0.4-0.4c0.2-0.1,0.3-0.1,0.5-0.1c0.3,0,0.5,0.1,0.8,0.3c0.3,0.2,0.6,0.4,1.1,0.7
				c0.4,0.3,0.9,0.5,1.4,0.7c0.5,0.2,1.2,0.3,2,0.3c1.2,0,2.1-0.3,2.7-0.8c0.6-0.6,1-1.4,1-2.4c0-0.6-0.1-1.1-0.4-1.4
				c-0.3-0.4-0.7-0.7-1.2-0.9c-0.5-0.3-1-0.5-1.6-0.6s-1.2-0.4-1.9-0.6c-0.6-0.2-1.3-0.5-1.9-0.7s-1.2-0.7-1.6-1.1
				c-0.5-0.5-0.9-1-1.2-1.7c-0.3-0.7-0.4-1.5-0.4-2.6c0-0.8,0.2-1.6,0.5-2.4c0.3-0.8,0.8-1.5,1.4-2s1.4-1.1,2.3-1.4
				c0.9-0.4,1.9-0.5,3.1-0.5c1.3,0,2.5,0.2,3.6,0.6c1.1,0.4,2.1,1,2.8,1.7L200.4,329z"/>
		</g>
		<g>
			<path d="M215.9,334.7c-0.1,0.1-0.2,0.3-0.3,0.3c-0.1,0.1-0.3,0.1-0.5,0.1c-0.2,0-0.4-0.1-0.6-0.2c-0.2-0.1-0.4-0.3-0.7-0.4
				c-0.3-0.1-0.6-0.3-0.9-0.4c-0.4-0.1-0.8-0.2-1.3-0.2c-0.7,0-1.3,0.1-1.8,0.4c-0.5,0.2-0.9,0.6-1.3,1c-0.3,0.5-0.6,1-0.7,1.6
				s-0.2,1.4-0.2,2.2c0,0.8,0.1,1.6,0.3,2.2c0.2,0.7,0.4,1.2,0.8,1.7c0.3,0.4,0.7,0.8,1.2,1c0.5,0.2,1,0.3,1.6,0.3
				c0.6,0,1.1-0.1,1.5-0.2c0.4-0.1,0.7-0.3,0.9-0.5c0.3-0.2,0.5-0.3,0.7-0.5c0.2-0.1,0.4-0.2,0.6-0.2c0.3,0,0.5,0.1,0.7,0.4l1.1,1.4
				c-0.4,0.5-0.9,0.9-1.4,1.2c-0.5,0.3-1,0.6-1.5,0.8s-1.1,0.3-1.6,0.4c-0.6,0.1-1.1,0.1-1.7,0.1c-1,0-1.9-0.2-2.8-0.5
				c-0.9-0.4-1.6-0.9-2.3-1.6c-0.6-0.7-1.1-1.6-1.5-2.6s-0.6-2.2-0.6-3.5c0-1.2,0.2-2.2,0.5-3.2c0.3-1,0.8-1.8,1.5-2.6
				s1.4-1.3,2.4-1.7c1-0.4,2.1-0.6,3.3-0.6c1.2,0,2.2,0.2,3.1,0.6c0.9,0.4,1.7,0.9,2.4,1.6L215.9,334.7z"/>
		</g>
		<g>
			<path d="M219.5,347.2v-22.9h3.8v8.8c0.6-0.6,1.3-1.1,2-1.4c0.7-0.4,1.6-0.5,2.6-0.5c0.9,0,1.6,0.1,2.3,0.4
				c0.7,0.3,1.2,0.7,1.7,1.2s0.8,1.2,1,1.9c0.2,0.7,0.3,1.5,0.3,2.4v10h-3.8v-10c0-1-0.2-1.7-0.7-2.2c-0.4-0.5-1.1-0.8-2-0.8
				c-0.7,0-1.3,0.1-1.8,0.4c-0.6,0.3-1.1,0.7-1.6,1.2v11.4H219.5z"/>
		</g>
		<g>
			<path d="M249.4,347.2h-1.7c-0.4,0-0.6-0.1-0.8-0.2c-0.2-0.1-0.4-0.3-0.5-0.7l-0.3-1.1c-0.4,0.4-0.8,0.7-1.2,0.9
				c-0.4,0.3-0.8,0.5-1.2,0.7c-0.4,0.2-0.8,0.3-1.3,0.4c-0.5,0.1-1,0.1-1.5,0.1c-0.7,0-1.3-0.1-1.8-0.3c-0.6-0.2-1-0.5-1.5-0.8
				c-0.4-0.4-0.7-0.8-0.9-1.3s-0.3-1.2-0.3-1.9c0-0.6,0.2-1.2,0.5-1.8s0.8-1.1,1.6-1.6c0.7-0.5,1.7-0.9,2.9-1.2
				c1.2-0.3,2.7-0.5,4.5-0.5v-0.9c0-1.1-0.2-1.9-0.7-2.4c-0.4-0.5-1.1-0.8-1.9-0.8c-0.6,0-1.1,0.1-1.5,0.2s-0.8,0.3-1.1,0.5
				c-0.3,0.2-0.6,0.3-0.8,0.5s-0.5,0.2-0.8,0.2c-0.3,0-0.5-0.1-0.7-0.2s-0.3-0.3-0.4-0.5l-0.7-1.2c1.8-1.7,4-2.5,6.6-2.5
				c0.9,0,1.7,0.2,2.5,0.5c0.7,0.3,1.3,0.7,1.8,1.3s0.9,1.2,1.1,1.9c0.3,0.7,0.4,1.6,0.4,2.5V347.2z M242,344.8c0.4,0,0.7,0,1.1-0.1
				c0.3-0.1,0.6-0.2,0.9-0.3c0.3-0.1,0.6-0.3,0.8-0.5c0.3-0.2,0.5-0.5,0.8-0.7v-2.6c-1.1,0-2,0.1-2.8,0.2c-0.7,0.1-1.3,0.3-1.8,0.5
				c-0.5,0.2-0.8,0.5-1,0.8c-0.2,0.3-0.3,0.6-0.3,0.9c0,0.7,0.2,1.2,0.6,1.4C240.8,344.7,241.3,344.8,242,344.8z"/>
		</g>
		<g>
			<path d="M257.1,324.3v22.9h-3.8v-22.9H257.1z"/>
		</g>
		<g>
			<path d="M265.5,324.3v22.9h-3.8v-22.9H265.5z"/>
		</g>
		<g>
			<path d="M283.2,331.4v20.9h-3.8v-7.1c-0.3,0.3-0.7,0.6-1,0.9c-0.4,0.3-0.7,0.5-1.1,0.7c-0.4,0.2-0.8,0.3-1.3,0.4
				c-0.5,0.1-0.9,0.2-1.5,0.2c-0.9,0-1.7-0.2-2.4-0.5c-0.7-0.4-1.3-0.9-1.9-1.6s-0.9-1.5-1.2-2.5c-0.3-1-0.4-2.2-0.4-3.4
				c0-1.2,0.2-2.3,0.5-3.3c0.3-1,0.8-1.9,1.4-2.6c0.6-0.7,1.3-1.3,2.1-1.7c0.8-0.4,1.8-0.6,2.8-0.6c0.5,0,0.9,0,1.3,0.1
				c0.4,0.1,0.8,0.2,1.1,0.4s0.7,0.4,0.9,0.6s0.6,0.5,0.8,0.8l0.2-0.9c0.1-0.2,0.2-0.4,0.3-0.5s0.4-0.2,0.6-0.2H283.2z M275.8,344.4
				c0.8,0,1.5-0.2,2-0.5c0.6-0.3,1.1-0.8,1.6-1.4v-7.1c-0.4-0.5-0.9-0.9-1.4-1.1c-0.5-0.2-1.1-0.3-1.6-0.3c-0.6,0-1.1,0.1-1.6,0.3
				c-0.5,0.2-0.9,0.5-1.2,1c-0.3,0.4-0.6,1-0.7,1.7s-0.3,1.5-0.3,2.4c0,0.9,0.1,1.7,0.2,2.3c0.1,0.6,0.4,1.2,0.6,1.6s0.6,0.7,1,0.9
				C274.9,344.3,275.3,344.4,275.8,344.4z"/>
		</g>
		<g>
			<path d="M290.8,331.4v10c0,1,0.2,1.7,0.7,2.2c0.4,0.5,1.1,0.8,2,0.8c0.7,0,1.3-0.1,1.8-0.4c0.6-0.3,1.1-0.7,1.6-1.2v-11.4h3.8
				v15.8h-2.3c-0.5,0-0.8-0.2-1-0.7l-0.3-1.3c-0.3,0.3-0.7,0.6-1,0.9c-0.3,0.3-0.7,0.5-1.1,0.7c-0.4,0.2-0.8,0.3-1.3,0.4
				c-0.5,0.1-0.9,0.2-1.5,0.2c-0.9,0-1.6-0.1-2.3-0.4s-1.2-0.7-1.7-1.2c-0.5-0.5-0.8-1.2-1-1.9c-0.2-0.7-0.3-1.5-0.3-2.4v-10H290.8z
				"/>
		</g>
		<g>
			<path d="M311.3,331.2c1,0,1.9,0.2,2.7,0.5s1.6,0.8,2.2,1.4c0.6,0.6,1.1,1.4,1.4,2.2c0.3,0.9,0.5,1.9,0.5,3c0,0.3,0,0.5,0,0.7
				c0,0.2-0.1,0.3-0.1,0.4c-0.1,0.1-0.2,0.2-0.3,0.2c-0.1,0-0.3,0.1-0.4,0.1h-9.8c0.1,1.6,0.5,2.8,1.3,3.6c0.8,0.8,1.8,1.1,3,1.1
				c0.6,0,1.1-0.1,1.6-0.2c0.4-0.1,0.8-0.3,1.2-0.5c0.3-0.2,0.6-0.3,0.9-0.5c0.3-0.1,0.5-0.2,0.7-0.2c0.2,0,0.3,0,0.4,0.1
				s0.2,0.1,0.3,0.3l1.1,1.4c-0.4,0.5-0.9,0.9-1.4,1.2c-0.5,0.3-1.1,0.6-1.6,0.8c-0.6,0.2-1.1,0.3-1.7,0.4c-0.6,0.1-1.2,0.1-1.7,0.1
				c-1.1,0-2.1-0.2-3.1-0.5c-0.9-0.4-1.8-0.9-2.5-1.6s-1.2-1.6-1.6-2.6c-0.4-1.1-0.6-2.3-0.6-3.7c0-1.1,0.2-2.1,0.5-3
				s0.8-1.8,1.5-2.5c0.7-0.7,1.4-1.3,2.4-1.7S310.1,331.2,311.3,331.2z M311.4,333.9c-1.1,0-2,0.3-2.6,0.9c-0.6,0.6-1,1.5-1.2,2.7
				h7.1c0-0.5-0.1-1-0.2-1.4s-0.3-0.8-0.6-1.1c-0.3-0.3-0.6-0.6-1-0.8C312.5,334,312,333.9,311.4,333.9z"/>
		</g>
		<g>
			<path d="M325.3,324.3v22.9h-3.8v-22.9H325.3z"/>
		</g>
		<g>
			<path d="M333.6,324.3v22.9h-3.8v-22.9H333.6z"/>
		</g>
		<g>
			<path d="M344.4,331.2c1,0,1.9,0.2,2.7,0.5s1.6,0.8,2.2,1.4c0.6,0.6,1.1,1.4,1.4,2.2c0.3,0.9,0.5,1.9,0.5,3c0,0.3,0,0.5,0,0.7
				c0,0.2-0.1,0.3-0.1,0.4c-0.1,0.1-0.2,0.2-0.3,0.2c-0.1,0-0.3,0.1-0.4,0.1h-9.8c0.1,1.6,0.5,2.8,1.3,3.6c0.8,0.8,1.8,1.1,3,1.1
				c0.6,0,1.1-0.1,1.6-0.2c0.4-0.1,0.8-0.3,1.2-0.5c0.3-0.2,0.6-0.3,0.9-0.5c0.3-0.1,0.5-0.2,0.7-0.2c0.2,0,0.3,0,0.4,0.1
				s0.2,0.1,0.3,0.3l1.1,1.4c-0.4,0.5-0.9,0.9-1.4,1.2c-0.5,0.3-1.1,0.6-1.6,0.8c-0.6,0.2-1.1,0.3-1.7,0.4c-0.6,0.1-1.2,0.1-1.7,0.1
				c-1.1,0-2.1-0.2-3.1-0.5c-0.9-0.4-1.8-0.9-2.5-1.6s-1.2-1.6-1.6-2.6c-0.4-1.1-0.6-2.3-0.6-3.7c0-1.1,0.2-2.1,0.5-3
				s0.8-1.8,1.5-2.5c0.7-0.7,1.4-1.3,2.4-1.7S343.3,331.2,344.4,331.2z M344.5,333.9c-1.1,0-2,0.3-2.6,0.9c-0.6,0.6-1,1.5-1.2,2.7
				h7.1c0-0.5-0.1-1-0.2-1.4s-0.3-0.8-0.6-1.1c-0.3-0.3-0.6-0.6-1-0.8C345.6,334,345.1,333.9,344.5,333.9z"/>
		</g>
	</g>
	<g>
		<g>
			<path d="M449.8,86.4h3.3c0.4,0,0.7,0.1,0.9,0.3s0.4,0.4,0.5,0.7l5.2,13.6c0.2,0.4,0.3,0.9,0.5,1.5c0.2,0.5,0.3,1.1,0.5,1.7
				c0.2-1.2,0.5-2.2,0.9-3.1l5.2-13.6c0.1-0.2,0.3-0.5,0.5-0.6s0.5-0.3,0.9-0.3h3.3l-9,22.2h-3.7L449.8,86.4z"/>
		</g>
		<g>
			<path d="M478.2,92.6c1,0,1.9,0.2,2.7,0.5s1.6,0.8,2.2,1.4c0.6,0.6,1.1,1.4,1.4,2.2c0.3,0.9,0.5,1.9,0.5,3c0,0.3,0,0.5,0,0.7
				c0,0.2-0.1,0.3-0.1,0.4c-0.1,0.1-0.2,0.2-0.3,0.2c-0.1,0-0.3,0.1-0.4,0.1h-9.8c0.1,1.6,0.5,2.8,1.3,3.6c0.8,0.8,1.8,1.1,3,1.1
				c0.6,0,1.1-0.1,1.6-0.2c0.4-0.1,0.8-0.3,1.2-0.5c0.3-0.2,0.6-0.3,0.9-0.5c0.3-0.1,0.5-0.2,0.7-0.2c0.2,0,0.3,0,0.4,0.1
				s0.2,0.1,0.3,0.3l1.1,1.4c-0.4,0.5-0.9,0.9-1.4,1.2c-0.5,0.3-1.1,0.6-1.6,0.8c-0.6,0.2-1.1,0.3-1.7,0.4c-0.6,0.1-1.2,0.1-1.7,0.1
				c-1.1,0-2.1-0.2-3.1-0.5c-0.9-0.4-1.8-0.9-2.5-1.6s-1.2-1.6-1.6-2.6c-0.4-1.1-0.6-2.3-0.6-3.7c0-1.1,0.2-2.1,0.5-3
				s0.8-1.8,1.5-2.5c0.7-0.7,1.4-1.3,2.4-1.7S477.1,92.6,478.2,92.6z M478.3,95.3c-1.1,0-2,0.3-2.6,0.9c-0.6,0.6-1,1.5-1.2,2.7h7.1
				c0-0.5-0.1-1-0.2-1.4s-0.3-0.8-0.6-1.1c-0.3-0.3-0.6-0.6-1-0.8C479.4,95.4,478.9,95.3,478.3,95.3z"/>
		</g>
		<g>
			<path d="M488.2,108.7V92.9h2.2c0.4,0,0.7,0.1,0.8,0.2s0.3,0.4,0.3,0.7l0.2,1.9c0.6-1,1.2-1.7,2-2.3c0.8-0.6,1.6-0.8,2.6-0.8
				c0.8,0,1.4,0.2,1.9,0.5l-0.5,2.8c0,0.2-0.1,0.3-0.2,0.4c-0.1,0.1-0.2,0.1-0.4,0.1c-0.2,0-0.4,0-0.6-0.1s-0.6-0.1-1.1-0.1
				c-0.8,0-1.5,0.2-2,0.7c-0.6,0.4-1,1.1-1.4,1.9v9.8H488.2z"/>
		</g>
		<g>
			<path d="M511.8,108.7c-0.5,0-0.8-0.2-1-0.7l-0.3-1.5c-0.3,0.4-0.7,0.7-1,1c-0.4,0.3-0.7,0.6-1.2,0.8s-0.9,0.4-1.3,0.5
				c-0.5,0.1-1,0.2-1.5,0.2c-0.9,0-1.7-0.2-2.4-0.5c-0.7-0.4-1.3-0.9-1.9-1.6s-0.9-1.5-1.2-2.5c-0.3-1-0.4-2.2-0.4-3.4
				c0-1.2,0.2-2.3,0.5-3.3c0.3-1,0.8-1.9,1.4-2.6c0.6-0.7,1.3-1.3,2.1-1.7c0.8-0.4,1.8-0.6,2.8-0.6c0.9,0,1.6,0.1,2.3,0.4
				c0.6,0.3,1.2,0.7,1.7,1.1v-8.3h3.8v22.9H511.8z M506.8,105.9c0.8,0,1.5-0.2,2-0.5c0.6-0.3,1.1-0.8,1.6-1.4v-7.1
				c-0.4-0.5-0.9-0.9-1.4-1.1c-0.5-0.2-1.1-0.3-1.6-0.3c-0.6,0-1.1,0.1-1.6,0.3c-0.5,0.2-0.9,0.5-1.2,1c-0.3,0.4-0.6,1-0.7,1.7
				s-0.3,1.5-0.3,2.4c0,0.9,0.1,1.7,0.2,2.3c0.1,0.6,0.4,1.2,0.6,1.6s0.6,0.7,1,0.9C505.8,105.8,506.3,105.9,506.8,105.9z"/>
		</g>
		<g>
			<path d="M522.9,88.3c0,0.3-0.1,0.6-0.2,0.9s-0.3,0.5-0.5,0.8c-0.2,0.2-0.5,0.4-0.8,0.5c-0.3,0.1-0.6,0.2-1,0.2
				c-0.3,0-0.6-0.1-0.9-0.2c-0.3-0.1-0.5-0.3-0.8-0.5s-0.4-0.5-0.5-0.8c-0.1-0.3-0.2-0.6-0.2-0.9c0-0.3,0.1-0.7,0.2-1
				c0.1-0.3,0.3-0.6,0.5-0.8c0.2-0.2,0.5-0.4,0.8-0.5c0.3-0.1,0.6-0.2,0.9-0.2c0.3,0,0.7,0.1,1,0.2c0.3,0.1,0.6,0.3,0.8,0.5
				c0.2,0.2,0.4,0.5,0.5,0.8S522.9,87.9,522.9,88.3z M522.3,92.9v15.8h-3.8V92.9H522.3z"/>
		</g>
		<g>
			<path d="M537.7,96.2c-0.1,0.1-0.2,0.3-0.3,0.3c-0.1,0.1-0.3,0.1-0.5,0.1c-0.2,0-0.4-0.1-0.6-0.2c-0.2-0.1-0.4-0.3-0.7-0.4
				c-0.3-0.1-0.6-0.3-0.9-0.4c-0.4-0.1-0.8-0.2-1.3-0.2c-0.7,0-1.3,0.1-1.8,0.4c-0.5,0.2-0.9,0.6-1.3,1c-0.3,0.5-0.6,1-0.7,1.6
				s-0.2,1.4-0.2,2.2c0,0.8,0.1,1.6,0.3,2.2c0.2,0.7,0.4,1.2,0.8,1.7c0.3,0.4,0.7,0.8,1.2,1c0.5,0.2,1,0.3,1.6,0.3
				c0.6,0,1.1-0.1,1.5-0.2c0.4-0.1,0.7-0.3,0.9-0.5c0.3-0.2,0.5-0.3,0.7-0.5c0.2-0.1,0.4-0.2,0.6-0.2c0.3,0,0.5,0.1,0.7,0.4l1.1,1.4
				c-0.4,0.5-0.9,0.9-1.4,1.2c-0.5,0.3-1,0.6-1.5,0.8s-1.1,0.3-1.6,0.4c-0.6,0.1-1.1,0.1-1.7,0.1c-1,0-1.9-0.2-2.8-0.5
				c-0.9-0.4-1.6-0.9-2.3-1.6c-0.6-0.7-1.1-1.6-1.5-2.6s-0.6-2.2-0.6-3.5c0-1.2,0.2-2.2,0.5-3.2c0.3-1,0.8-1.8,1.5-2.6
				s1.4-1.3,2.4-1.7c1-0.4,2.1-0.6,3.3-0.6c1.2,0,2.2,0.2,3.1,0.6c0.9,0.4,1.7,0.9,2.4,1.6L537.7,96.2z"/>
		</g>
		<g>
			<path d="M541.3,108.7V85.8h3.8v8.8c0.6-0.6,1.3-1.1,2-1.4c0.7-0.4,1.6-0.5,2.6-0.5c0.9,0,1.6,0.1,2.3,0.4
				c0.7,0.3,1.2,0.7,1.7,1.2s0.8,1.2,1,1.9c0.2,0.7,0.3,1.5,0.3,2.4v10h-3.8v-10c0-1-0.2-1.7-0.7-2.2c-0.4-0.5-1.1-0.8-2-0.8
				c-0.7,0-1.3,0.1-1.8,0.4c-0.6,0.3-1.1,0.7-1.6,1.2v11.4H541.3z"/>
		</g>
		<g>
			<path d="M564,108.9c-1.4,0-2.4-0.4-3.2-1.2c-0.7-0.8-1.1-1.8-1.1-3.2v-8.8h-1.6c-0.2,0-0.4-0.1-0.5-0.2c-0.1-0.1-0.2-0.3-0.2-0.6
				v-1.5l2.5-0.4l0.8-4.3c0-0.2,0.1-0.4,0.3-0.5c0.1-0.1,0.3-0.2,0.6-0.2h2v5h4.2v2.7h-4.2v8.6c0,0.5,0.1,0.9,0.4,1.2s0.6,0.4,1,0.4
				c0.2,0,0.4,0,0.6-0.1c0.2-0.1,0.3-0.1,0.4-0.2c0.1-0.1,0.2-0.1,0.3-0.2c0.1-0.1,0.2-0.1,0.3-0.1c0.1,0,0.2,0,0.3,0.1
				c0.1,0.1,0.1,0.1,0.2,0.3l1.1,1.8c-0.6,0.5-1.2,0.8-1.9,1S564.7,108.9,564,108.9z"/>
		</g>
		<g>
			<path d="M574.2,92.9v10c0,1,0.2,1.7,0.7,2.2c0.4,0.5,1.1,0.8,2,0.8c0.7,0,1.3-0.1,1.8-0.4c0.6-0.3,1.1-0.7,1.6-1.2V92.9h3.8v15.8
				h-2.3c-0.5,0-0.8-0.2-1-0.7l-0.3-1.3c-0.3,0.3-0.7,0.6-1,0.9c-0.3,0.3-0.7,0.5-1.1,0.7c-0.4,0.2-0.8,0.3-1.3,0.4
				c-0.5,0.1-0.9,0.2-1.5,0.2c-0.9,0-1.6-0.1-2.3-0.4s-1.2-0.7-1.7-1.2c-0.5-0.5-0.8-1.2-1-1.9c-0.2-0.7-0.3-1.5-0.3-2.4v-10H574.2z
				"/>
		</g>
		<g>
			<path d="M588.2,108.7V92.9h2.3c0.5,0,0.8,0.2,1,0.7l0.3,1.2c0.3-0.3,0.7-0.6,1-0.9c0.4-0.3,0.7-0.5,1.1-0.7
				c0.4-0.2,0.8-0.3,1.3-0.4c0.5-0.1,0.9-0.2,1.5-0.2c0.9,0,1.6,0.1,2.3,0.4c0.7,0.3,1.2,0.7,1.7,1.2s0.8,1.2,1,1.9
				c0.2,0.7,0.3,1.5,0.3,2.4v10h-3.8v-10c0-1-0.2-1.7-0.7-2.2c-0.4-0.5-1.1-0.8-2-0.8c-0.7,0-1.3,0.1-1.8,0.4
				c-0.6,0.3-1.1,0.7-1.6,1.2v11.4H588.2z"/>
		</g>
		<g>
			<path d="M611.1,92.6c0.7,0,1.3,0.1,1.9,0.2c0.6,0.1,1.1,0.3,1.6,0.6h4.5v1.4c0,0.2-0.1,0.4-0.2,0.6c-0.1,0.1-0.3,0.2-0.6,0.3
				l-1.4,0.3c0.1,0.3,0.2,0.5,0.2,0.8c0.1,0.3,0.1,0.6,0.1,0.9c0,0.8-0.2,1.5-0.5,2.1c-0.3,0.6-0.7,1.2-1.3,1.6
				c-0.5,0.4-1.2,0.8-2,1c-0.8,0.2-1.6,0.4-2.5,0.4c-0.6,0-1.2-0.1-1.7-0.2c-0.5,0.3-0.7,0.6-0.7,1c0,0.3,0.1,0.6,0.4,0.7
				c0.3,0.1,0.7,0.3,1.2,0.3s1,0.1,1.6,0.1c0.6,0,1.2,0,1.9,0.1c0.6,0.1,1.3,0.1,1.9,0.3c0.6,0.1,1.1,0.3,1.6,0.6s0.9,0.7,1.2,1.1
				c0.3,0.5,0.4,1.1,0.4,1.8c0,0.7-0.2,1.4-0.5,2c-0.3,0.7-0.8,1.2-1.5,1.8c-0.7,0.5-1.4,0.9-2.4,1.2c-0.9,0.3-2,0.5-3.2,0.5
				c-1.2,0-2.2-0.1-3.1-0.3c-0.9-0.2-1.6-0.5-2.2-0.9c-0.6-0.4-1-0.8-1.3-1.3c-0.3-0.5-0.4-1-0.4-1.6c0-0.7,0.2-1.4,0.7-1.9
				c0.5-0.5,1.1-0.9,1.9-1.2c-0.4-0.2-0.7-0.5-0.9-0.9c-0.2-0.4-0.4-0.8-0.4-1.4c0-0.2,0-0.5,0.1-0.7c0.1-0.3,0.2-0.5,0.4-0.7
				s0.4-0.5,0.6-0.7c0.3-0.2,0.6-0.4,0.9-0.6c-0.8-0.4-1.4-1-1.9-1.7c-0.5-0.7-0.7-1.6-0.7-2.5c0-0.8,0.2-1.5,0.5-2.1
				c0.3-0.6,0.7-1.2,1.3-1.6c0.6-0.4,1.2-0.8,2-1S610.2,92.6,611.1,92.6z M615.3,109.3c0-0.3-0.1-0.6-0.3-0.8
				c-0.2-0.2-0.4-0.4-0.8-0.5c-0.3-0.1-0.7-0.2-1.1-0.2c-0.4-0.1-0.9-0.1-1.4-0.1s-1,0-1.5,0c-0.5,0-1-0.1-1.5-0.2
				c-0.4,0.2-0.8,0.5-1,0.8c-0.3,0.3-0.4,0.7-0.4,1.1c0,0.3,0.1,0.5,0.2,0.8c0.1,0.2,0.4,0.4,0.7,0.6c0.3,0.2,0.7,0.3,1.2,0.4
				c0.5,0.1,1.1,0.1,1.8,0.1c0.7,0,1.3-0.1,1.8-0.2c0.5-0.1,0.9-0.3,1.3-0.5c0.3-0.2,0.6-0.4,0.7-0.7
				C615.2,109.9,615.3,109.6,615.3,109.3z M611.1,100.4c0.5,0,0.9-0.1,1.2-0.2s0.6-0.3,0.9-0.5c0.2-0.2,0.4-0.5,0.5-0.8
				c0.1-0.3,0.2-0.7,0.2-1c0-0.8-0.2-1.4-0.7-1.9c-0.5-0.5-1.2-0.7-2.1-0.7c-0.9,0-1.6,0.2-2.1,0.7c-0.5,0.5-0.7,1.1-0.7,1.9
				c0,0.4,0.1,0.7,0.2,1c0.1,0.3,0.3,0.6,0.5,0.8c0.2,0.2,0.5,0.4,0.9,0.5C610.3,100.3,610.7,100.4,611.1,100.4z"/>
		</g>
	</g>
	<g>
		<g>
			<path d="M480.5,661.4h3.3c0.4,0,0.7,0.1,0.9,0.3c0.2,0.2,0.4,0.4,0.5,0.7l5.2,13.6c0.2,0.4,0.3,0.9,0.5,1.5
				c0.2,0.5,0.3,1.1,0.5,1.7c0.2-1.2,0.5-2.2,0.9-3.1l5.2-13.6c0.1-0.2,0.3-0.5,0.5-0.6c0.2-0.2,0.5-0.3,0.9-0.3h3.3l-9,22.2h-3.7
				L480.5,661.4z"/>
		</g>
		<g>
			<path d="M509,667.6c1,0,1.9,0.2,2.7,0.5c0.8,0.3,1.6,0.8,2.2,1.4c0.6,0.6,1.1,1.4,1.4,2.2c0.3,0.9,0.5,1.9,0.5,3
				c0,0.3,0,0.5,0,0.7c0,0.2-0.1,0.3-0.1,0.4c-0.1,0.1-0.2,0.2-0.3,0.2c-0.1,0-0.3,0.1-0.4,0.1h-9.8c0.1,1.6,0.5,2.8,1.3,3.6
				c0.8,0.8,1.8,1.1,3,1.1c0.6,0,1.1-0.1,1.6-0.2s0.8-0.3,1.2-0.5c0.3-0.2,0.6-0.3,0.9-0.5c0.3-0.1,0.5-0.2,0.7-0.2
				c0.2,0,0.3,0,0.4,0.1s0.2,0.1,0.3,0.3l1.1,1.4c-0.4,0.5-0.9,0.9-1.4,1.2s-1.1,0.6-1.6,0.8c-0.6,0.2-1.1,0.3-1.7,0.4
				s-1.2,0.1-1.7,0.1c-1.1,0-2.1-0.2-3.1-0.5c-0.9-0.4-1.8-0.9-2.5-1.6s-1.2-1.6-1.6-2.6c-0.4-1.1-0.6-2.3-0.6-3.7
				c0-1.1,0.2-2.1,0.5-3c0.3-0.9,0.8-1.8,1.5-2.5c0.7-0.7,1.4-1.3,2.4-1.7C506.7,667.8,507.8,667.6,509,667.6z M509,670.4
				c-1.1,0-2,0.3-2.6,0.9c-0.6,0.6-1,1.5-1.2,2.7h7.1c0-0.5-0.1-1-0.2-1.4c-0.1-0.4-0.3-0.8-0.6-1.1c-0.3-0.3-0.6-0.6-1-0.8
				C510.1,670.4,509.6,670.4,509,670.4z"/>
		</g>
		<g>
			<path d="M518.9,683.7v-15.8h2.2c0.4,0,0.7,0.1,0.8,0.2s0.3,0.4,0.3,0.7l0.2,1.9c0.6-1,1.2-1.7,2-2.3c0.8-0.6,1.6-0.8,2.6-0.8
				c0.8,0,1.4,0.2,1.9,0.5l-0.5,2.8c0,0.2-0.1,0.3-0.2,0.4c-0.1,0.1-0.2,0.1-0.4,0.1c-0.2,0-0.4,0-0.6-0.1c-0.3-0.1-0.6-0.1-1.1-0.1
				c-0.8,0-1.5,0.2-2,0.7c-0.6,0.4-1,1.1-1.4,1.9v9.8H518.9z"/>
		</g>
		<g>
			<path d="M542.6,683.7c-0.5,0-0.8-0.2-1-0.7l-0.3-1.5c-0.3,0.4-0.7,0.7-1,1c-0.4,0.3-0.7,0.6-1.2,0.8c-0.4,0.2-0.9,0.4-1.3,0.5
				c-0.5,0.1-1,0.2-1.5,0.2c-0.9,0-1.7-0.2-2.4-0.5c-0.7-0.4-1.3-0.9-1.9-1.6s-0.9-1.5-1.2-2.5c-0.3-1-0.4-2.2-0.4-3.4
				c0-1.2,0.2-2.3,0.5-3.3c0.3-1,0.8-1.9,1.4-2.6s1.3-1.3,2.1-1.7c0.8-0.4,1.8-0.6,2.8-0.6c0.9,0,1.6,0.1,2.3,0.4
				c0.6,0.3,1.2,0.7,1.7,1.1v-8.3h3.8v22.9H542.6z M537.5,680.9c0.8,0,1.5-0.2,2-0.5c0.6-0.3,1.1-0.8,1.6-1.4v-7.1
				c-0.4-0.5-0.9-0.9-1.4-1.1c-0.5-0.2-1.1-0.3-1.6-0.3c-0.6,0-1.1,0.1-1.6,0.3c-0.5,0.2-0.9,0.5-1.2,1c-0.3,0.4-0.6,1-0.7,1.7
				c-0.2,0.7-0.3,1.5-0.3,2.4c0,0.9,0.1,1.7,0.2,2.3c0.1,0.6,0.4,1.2,0.6,1.6s0.6,0.7,1,0.9C536.6,680.8,537,680.9,537.5,680.9z"/>
		</g>
		<g>
			<path d="M552.5,667.9v10c0,1,0.2,1.7,0.7,2.2c0.4,0.5,1.1,0.8,2,0.8c0.7,0,1.3-0.1,1.8-0.4c0.6-0.3,1.1-0.7,1.6-1.2v-11.4h3.8
				v15.8h-2.3c-0.5,0-0.8-0.2-1-0.7l-0.3-1.3c-0.3,0.3-0.7,0.6-1,0.9s-0.7,0.5-1.1,0.7c-0.4,0.2-0.8,0.3-1.3,0.4
				c-0.5,0.1-0.9,0.2-1.5,0.2c-0.9,0-1.6-0.1-2.3-0.4s-1.2-0.7-1.7-1.2c-0.5-0.5-0.8-1.2-1-1.9c-0.2-0.7-0.3-1.5-0.3-2.4v-10H552.5z
				 M554.9,663.8c0,0.3-0.1,0.6-0.2,0.8c-0.1,0.3-0.3,0.5-0.5,0.7c-0.2,0.2-0.4,0.3-0.7,0.4c-0.3,0.1-0.5,0.2-0.8,0.2
				c-0.3,0-0.5-0.1-0.8-0.2c-0.3-0.1-0.5-0.3-0.7-0.4s-0.3-0.4-0.5-0.7c-0.1-0.3-0.2-0.5-0.2-0.8c0-0.3,0.1-0.6,0.2-0.8
				s0.3-0.5,0.5-0.7c0.2-0.2,0.4-0.3,0.7-0.5c0.3-0.1,0.5-0.2,0.8-0.2c0.3,0,0.6,0.1,0.8,0.2c0.3,0.1,0.5,0.3,0.7,0.5
				c0.2,0.2,0.4,0.4,0.5,0.7S554.9,663.5,554.9,663.8z M560.7,663.8c0,0.3-0.1,0.6-0.2,0.8c-0.1,0.3-0.3,0.5-0.5,0.7
				s-0.4,0.3-0.7,0.4c-0.3,0.1-0.5,0.2-0.8,0.2s-0.6-0.1-0.8-0.2c-0.3-0.1-0.5-0.3-0.7-0.4c-0.2-0.2-0.3-0.4-0.5-0.7
				c-0.1-0.3-0.2-0.5-0.2-0.8c0-0.3,0.1-0.6,0.2-0.8s0.3-0.5,0.5-0.7c0.2-0.2,0.4-0.3,0.7-0.5c0.3-0.1,0.5-0.2,0.8-0.2
				s0.6,0.1,0.8,0.2c0.3,0.1,0.5,0.3,0.7,0.5c0.2,0.2,0.3,0.4,0.5,0.7S560.7,663.5,560.7,663.8z"/>
		</g>
		<g>
			<path d="M566.5,683.7v-15.8h2.3c0.5,0,0.8,0.2,1,0.7l0.3,1.2c0.3-0.3,0.7-0.6,1-0.9c0.4-0.3,0.7-0.5,1.1-0.7
				c0.4-0.2,0.8-0.3,1.3-0.4c0.5-0.1,0.9-0.2,1.5-0.2c0.9,0,1.6,0.1,2.3,0.4c0.7,0.3,1.2,0.7,1.7,1.2c0.4,0.5,0.8,1.2,1,1.9
				c0.2,0.7,0.3,1.5,0.3,2.4v10h-3.8v-10c0-1-0.2-1.7-0.7-2.2c-0.4-0.5-1.1-0.8-2-0.8c-0.7,0-1.3,0.1-1.8,0.4
				c-0.6,0.3-1.1,0.7-1.6,1.2v11.4H566.5z"/>
		</g>
		<g>
			<path d="M584,683.7v-15.8h2.3c0.5,0,0.8,0.2,1,0.7l0.3,1.2c0.3-0.3,0.7-0.6,1-0.9c0.4-0.3,0.7-0.5,1.1-0.7
				c0.4-0.2,0.8-0.3,1.3-0.4c0.5-0.1,0.9-0.2,1.5-0.2c0.9,0,1.6,0.1,2.3,0.4c0.7,0.3,1.2,0.7,1.7,1.2c0.4,0.5,0.8,1.2,1,1.9
				c0.2,0.7,0.3,1.5,0.3,2.4v10h-3.8v-10c0-1-0.2-1.7-0.7-2.2c-0.4-0.5-1.1-0.8-2-0.8c-0.7,0-1.3,0.1-1.8,0.4
				c-0.6,0.3-1.1,0.7-1.6,1.2v11.4H584z"/>
		</g>
		<g>
			<path d="M604.9,667.9v10c0,1,0.2,1.7,0.7,2.2c0.4,0.5,1.1,0.8,2,0.8c0.7,0,1.3-0.1,1.8-0.4c0.6-0.3,1.1-0.7,1.6-1.2v-11.4h3.8
				v15.8h-2.3c-0.5,0-0.8-0.2-1-0.7l-0.3-1.3c-0.3,0.3-0.7,0.6-1,0.9s-0.7,0.5-1.1,0.7c-0.4,0.2-0.8,0.3-1.3,0.4
				c-0.5,0.1-0.9,0.2-1.5,0.2c-0.9,0-1.6-0.1-2.3-0.4s-1.2-0.7-1.7-1.2c-0.5-0.5-0.8-1.2-1-1.9c-0.2-0.7-0.3-1.5-0.3-2.4v-10H604.9z
				"/>
		</g>
		<g>
			<path d="M619,683.7v-15.8h2.3c0.5,0,0.8,0.2,1,0.7l0.3,1.2c0.3-0.3,0.7-0.6,1-0.9c0.4-0.3,0.7-0.5,1.1-0.7
				c0.4-0.2,0.8-0.3,1.3-0.4c0.5-0.1,0.9-0.2,1.5-0.2c0.9,0,1.6,0.1,2.3,0.4c0.7,0.3,1.2,0.7,1.7,1.2c0.4,0.5,0.8,1.2,1,1.9
				c0.2,0.7,0.3,1.5,0.3,2.4v10h-3.8v-10c0-1-0.2-1.7-0.7-2.2c-0.4-0.5-1.1-0.8-2-0.8c-0.7,0-1.3,0.1-1.8,0.4
				c-0.6,0.3-1.1,0.7-1.6,1.2v11.4H619z"/>
		</g>
		<g>
			<path d="M641.9,667.6c0.7,0,1.3,0.1,1.9,0.2c0.6,0.1,1.1,0.3,1.6,0.6h4.5v1.4c0,0.2-0.1,0.4-0.2,0.6c-0.1,0.1-0.3,0.2-0.6,0.3
				l-1.4,0.3c0.1,0.3,0.2,0.5,0.2,0.8c0.1,0.3,0.1,0.6,0.1,0.9c0,0.8-0.2,1.5-0.5,2.1s-0.7,1.2-1.3,1.6c-0.5,0.4-1.2,0.8-2,1
				c-0.8,0.2-1.6,0.4-2.5,0.4c-0.6,0-1.2-0.1-1.7-0.2c-0.5,0.3-0.7,0.6-0.7,1c0,0.3,0.1,0.6,0.4,0.7c0.3,0.1,0.7,0.3,1.2,0.3
				c0.5,0.1,1,0.1,1.6,0.1c0.6,0,1.2,0,1.9,0.1c0.6,0.1,1.3,0.1,1.9,0.3c0.6,0.1,1.1,0.3,1.6,0.6c0.5,0.3,0.9,0.7,1.2,1.1
				c0.3,0.5,0.4,1.1,0.4,1.8c0,0.7-0.2,1.4-0.5,2s-0.8,1.2-1.5,1.8c-0.7,0.5-1.4,0.9-2.4,1.2c-0.9,0.3-2,0.5-3.2,0.5
				c-1.2,0-2.2-0.1-3.1-0.3c-0.9-0.2-1.6-0.5-2.2-0.9c-0.6-0.4-1-0.8-1.3-1.3c-0.3-0.5-0.4-1-0.4-1.6c0-0.7,0.2-1.4,0.7-1.9
				c0.5-0.5,1.1-0.9,1.9-1.2c-0.4-0.2-0.7-0.5-0.9-0.9c-0.2-0.4-0.4-0.8-0.4-1.4c0-0.2,0-0.5,0.1-0.7c0.1-0.3,0.2-0.5,0.4-0.7
				c0.2-0.2,0.4-0.5,0.6-0.7c0.3-0.2,0.6-0.4,0.9-0.6c-0.8-0.4-1.4-1-1.9-1.7c-0.5-0.7-0.7-1.6-0.7-2.5c0-0.8,0.2-1.5,0.5-2.1
				c0.3-0.6,0.7-1.2,1.3-1.6s1.2-0.8,2-1C640.2,667.7,641,667.6,641.9,667.6z M646.1,684.3c0-0.3-0.1-0.6-0.3-0.8
				c-0.2-0.2-0.4-0.4-0.8-0.5s-0.7-0.2-1.1-0.2c-0.4-0.1-0.9-0.1-1.4-0.1s-1,0-1.5,0c-0.5,0-1-0.1-1.5-0.2c-0.4,0.2-0.8,0.5-1,0.8
				c-0.3,0.3-0.4,0.7-0.4,1.1c0,0.3,0.1,0.5,0.2,0.8c0.1,0.2,0.4,0.4,0.7,0.6c0.3,0.2,0.7,0.3,1.2,0.4c0.5,0.1,1.1,0.1,1.8,0.1
				c0.7,0,1.3-0.1,1.8-0.2c0.5-0.1,0.9-0.3,1.3-0.5c0.3-0.2,0.6-0.4,0.7-0.7C646,684.9,646.1,684.6,646.1,684.3z M641.9,675.4
				c0.5,0,0.9-0.1,1.2-0.2c0.3-0.1,0.6-0.3,0.9-0.5c0.2-0.2,0.4-0.5,0.5-0.8c0.1-0.3,0.2-0.7,0.2-1c0-0.8-0.2-1.4-0.7-1.9
				c-0.5-0.5-1.2-0.7-2.1-0.7c-0.9,0-1.6,0.2-2.1,0.7c-0.5,0.5-0.7,1.1-0.7,1.9c0,0.4,0.1,0.7,0.2,1c0.1,0.3,0.3,0.6,0.5,0.8
				c0.2,0.2,0.5,0.4,0.9,0.5C641,675.3,641.5,675.4,641.9,675.4z"/>
		</g>
	</g>
	<g>
		<g>
			
				<rect x="378.9" y="209.1" transform="matrix(0.4082 -0.9129 0.9129 0.4082 86.8364 554.1577)" class="st13" width="183.9" height="2.1"/>
		</g>
		<g>
			
				<rect x="465.5" y="184" transform="matrix(7.701580e-02 -0.997 0.997 7.701580e-02 299.6621 693.7872)" class="st13" width="118.1" height="2.1"/>
		</g>
		<g>
			
				<rect x="570.2" y="119.6" transform="matrix(0.844 -0.5364 0.5364 0.844 2.3434 331.661)" class="st13" width="2.1" height="84.5"/>
		</g>
		<g>
			
				<rect x="631.3" y="71.4" transform="matrix(0.1083 -0.9941 0.9941 0.1083 431.7976 747.0035)" class="st13" width="2.1" height="122.8"/>
		</g>
	</g>
	<g>
		<g>
			
				<rect x="506.8" y="475" transform="matrix(0.913 -0.408 0.408 0.913 -186.6231 256.4452)" class="st13" width="2.1" height="181.3"/>
		</g>
		<g>
			
				<rect x="458.3" y="416.2" transform="matrix(0.8627 -0.5057 0.5057 0.8627 -210.4596 306.576)" class="st13" width="2.1" height="249.4"/>
		</g>
		<g>
			
				<rect x="560" y="530.5" transform="matrix(0.997 -7.711999e-02 7.711999e-02 0.997 -43.7969 45.0218)" class="st13" width="2.1" height="118.1"/>
		</g>
		<g>
			
				<rect x="565.5" y="611.8" transform="matrix(0.5364 -0.844 0.844 0.5364 -235.4375 797.0402)" class="st13" width="84.5" height="2.1"/>
		</g>
		<g>
			
				<rect x="607.4" y="640.8" transform="matrix(0.9941 -0.1085 0.1085 0.9941 -65.6874 76.3496)" class="st13" width="122.8" height="2.1"/>
		</g>
	</g>
</g>
</svg>
