<?xml version="1.0" encoding="UTF-8"?><svg id="DE_Kurven" xmlns="http://www.w3.org/2000/svg" viewBox="0 0 1040 410"><defs><style>.cls-1{fill:#ee7f00;}.cls-2{fill:#3a3a3a;}.cls-3{fill:#aaa;}.cls-4{fill:none;stroke:#ee7f00;stroke-linecap:round;stroke-miterlimit:10;stroke-width:6px;}.cls-5{fill:#f2f2f2;}</style></defs><g><path d="M34.59,366.52c-.19,.34-.4,.58-.61,.73-.22,.15-.48,.23-.8,.23-.34,0-.7-.12-1.09-.37s-.86-.52-1.4-.83c-.54-.3-1.18-.58-1.91-.83s-1.59-.37-2.58-.37c-.9,0-1.68,.11-2.35,.32-.67,.22-1.24,.52-1.69,.9-.46,.38-.8,.84-1.02,1.38s-.34,1.12-.34,1.76c0,.82,.23,1.5,.68,2.04s1.06,1.01,1.81,1.39c.75,.38,1.61,.73,2.57,1.03,.96,.3,1.94,.63,2.95,.97,1.01,.34,1.99,.74,2.95,1.2,.96,.46,1.82,1.03,2.57,1.73,.75,.7,1.36,1.55,1.81,2.56s.68,2.23,.68,3.67c0,1.57-.27,3.04-.8,4.4s-1.32,2.56-2.35,3.58c-1.03,1.02-2.29,1.82-3.78,2.4-1.49,.58-3.19,.88-5.11,.88-1.1,0-2.19-.11-3.26-.32-1.07-.22-2.1-.52-3.08-.92-.98-.4-1.91-.88-2.77-1.44-.86-.56-1.63-1.18-2.3-1.87l1.9-3.1c.16-.22,.37-.41,.62-.56,.26-.15,.53-.23,.82-.23,.4,0,.83,.16,1.3,.49s1.02,.69,1.66,1.09c.64,.4,1.39,.76,2.24,1.09,.86,.33,1.88,.49,3.08,.49,1.84,0,3.26-.44,4.27-1.31,1.01-.87,1.51-2.12,1.51-3.76,0-.91-.23-1.66-.68-2.23-.46-.58-1.06-1.06-1.81-1.45s-1.61-.72-2.57-1-1.94-.57-2.93-.89c-.99-.32-1.97-.7-2.93-1.15s-1.82-1.03-2.57-1.75c-.75-.72-1.36-1.62-1.81-2.7s-.68-2.41-.68-4c0-1.26,.25-2.5,.76-3.7,.5-1.2,1.24-2.26,2.2-3.19s2.14-1.67,3.55-2.23c1.41-.56,3.02-.84,4.85-.84,2.05,0,3.94,.32,5.66,.96,1.73,.64,3.2,1.54,4.42,2.69l-1.61,3.05Z"/><path d="M48.37,363.11c0,.51-.1,.99-.31,1.44-.21,.45-.48,.84-.83,1.18-.34,.34-.75,.6-1.21,.8-.46,.2-.96,.3-1.49,.3s-1-.1-1.45-.3c-.46-.2-.85-.47-1.19-.8-.34-.34-.6-.73-.8-1.18-.2-.45-.3-.93-.3-1.44s.1-1.02,.3-1.49c.2-.46,.47-.86,.8-1.2,.34-.34,.73-.6,1.19-.8,.46-.2,.94-.3,1.45-.3s1.02,.1,1.49,.3c.46,.2,.87,.47,1.21,.8,.34,.34,.62,.74,.83,1.2,.21,.46,.31,.96,.31,1.49Zm-.82,7.18v24.62h-5.95v-24.62h5.95Z"/><path d="M75.2,371.13v2.21c0,.71-.42,1.14-1.27,1.3l-2.21,.41c.34,.85,.5,1.78,.5,2.78,0,1.22-.24,2.32-.73,3.3-.49,.98-1.16,1.82-2.03,2.51-.86,.69-1.88,1.22-3.06,1.6-1.18,.38-2.44,.56-3.8,.56-.48,0-.94-.02-1.39-.07-.45-.05-.89-.11-1.32-.19-.77,.46-1.15,.98-1.15,1.56,0,.5,.23,.86,.68,1.09,.46,.23,1.06,.4,1.81,.49,.75,.1,1.61,.16,2.57,.18,.96,.02,1.94,.08,2.95,.16,1.01,.08,1.99,.22,2.95,.42,.96,.2,1.82,.52,2.57,.95,.75,.43,1.36,1.02,1.81,1.76s.68,1.7,.68,2.87c0,1.09-.27,2.14-.8,3.17-.54,1.02-1.31,1.94-2.33,2.74s-2.26,1.44-3.74,1.93c-1.48,.49-3.16,.73-5.05,.73s-3.47-.18-4.85-.54c-1.38-.36-2.52-.84-3.43-1.44-.91-.6-1.59-1.29-2.04-2.08-.45-.78-.67-1.6-.67-2.45,0-1.15,.35-2.12,1.04-2.89,.7-.78,1.65-1.4,2.87-1.86-.66-.34-1.18-.78-1.56-1.34-.38-.56-.58-1.3-.58-2.21,0-.37,.07-.75,.2-1.14,.14-.39,.34-.78,.6-1.16,.26-.38,.6-.75,1-1.09,.4-.34,.87-.65,1.42-.92-1.25-.67-2.23-1.57-2.94-2.69s-1.07-2.43-1.07-3.94c0-1.22,.24-2.32,.73-3.3,.49-.98,1.17-1.82,2.04-2.52,.87-.7,1.9-1.23,3.1-1.6s2.49-.55,3.9-.55c1.06,0,2.05,.11,2.98,.32,.93,.22,1.78,.53,2.54,.95h7.08Zm-5.9,24.89c0-.48-.14-.87-.43-1.18-.29-.3-.68-.54-1.18-.71-.5-.17-1.08-.29-1.74-.37s-1.37-.14-2.11-.18c-.74-.04-1.51-.08-2.3-.11s-1.56-.1-2.32-.19c-.66,.37-1.19,.8-1.6,1.3-.41,.5-.61,1.07-.61,1.73,0,.43,.11,.84,.32,1.21,.22,.38,.56,.7,1.03,.97,.47,.27,1.08,.48,1.84,.64s1.67,.23,2.76,.23,2.06-.08,2.86-.25c.8-.17,1.46-.4,1.98-.7,.52-.3,.9-.65,1.14-1.06,.24-.41,.36-.85,.36-1.33Zm-6.7-14.02c.74,0,1.38-.1,1.92-.3,.54-.2,1-.48,1.36-.83,.36-.35,.63-.78,.82-1.27,.18-.5,.28-1.04,.28-1.63,0-1.22-.36-2.18-1.09-2.89-.73-.71-1.82-1.07-3.28-1.07s-2.55,.36-3.28,1.07-1.09,1.68-1.09,2.89c0,.58,.09,1.11,.28,1.61,.18,.5,.46,.92,.82,1.28,.36,.36,.82,.64,1.37,.84,.55,.2,1.19,.3,1.91,.3Z"/><path d="M84.49,373.31c.5-.5,1.02-.96,1.57-1.38,.55-.42,1.14-.78,1.75-1.08,.62-.3,1.28-.53,1.98-.7s1.47-.25,2.3-.25c1.34,0,2.54,.23,3.58,.68,1.04,.46,1.91,1.1,2.6,1.92,.7,.82,1.22,1.81,1.58,2.95,.36,1.14,.54,2.4,.54,3.78v15.67h-5.93v-15.67c0-1.5-.34-2.67-1.03-3.49-.69-.82-1.74-1.24-3.14-1.24-1.02,0-1.98,.23-2.88,.7-.9,.46-1.74,1.1-2.54,1.9v17.81h-5.93v-24.62h3.62c.77,0,1.27,.36,1.51,1.08l.41,1.94Z"/><path d="M105.44,373.72c2.83-2.59,6.24-3.89,10.22-3.89,1.44,0,2.73,.24,3.86,.71,1.14,.47,2.1,1.13,2.88,1.97,.78,.84,1.38,1.84,1.79,3.01,.41,1.17,.61,2.45,.61,3.84v15.55h-2.69c-.56,0-.99-.08-1.3-.25-.3-.17-.54-.51-.72-1.02l-.53-1.78c-.62,.56-1.23,1.05-1.82,1.48-.59,.42-1.21,.78-1.85,1.07-.64,.29-1.32,.51-2.05,.66-.73,.15-1.53,.23-2.41,.23-1.04,0-2-.14-2.88-.42-.88-.28-1.64-.7-2.28-1.26-.64-.56-1.14-1.26-1.49-2.09-.35-.83-.53-1.8-.53-2.9,0-.62,.1-1.24,.31-1.86s.55-1.2,1.02-1.76c.47-.56,1.08-1.09,1.84-1.58,.75-.5,1.68-.93,2.77-1.3,1.1-.37,2.37-.67,3.83-.9,1.46-.23,3.12-.37,4.99-.42v-1.44c0-1.65-.35-2.87-1.06-3.66s-1.72-1.19-3.05-1.19c-.96,0-1.76,.11-2.39,.34-.63,.22-1.19,.48-1.67,.76s-.92,.53-1.31,.76c-.39,.22-.83,.34-1.31,.34-.42,0-.77-.11-1.06-.32s-.52-.47-.7-.76l-1.06-1.9Zm13.58,10.68c-1.71,.08-3.15,.23-4.32,.44-1.17,.22-2.1,.49-2.81,.83-.7,.34-1.21,.73-1.51,1.18-.3,.45-.46,.94-.46,1.46,0,1.04,.31,1.78,.92,2.23,.62,.45,1.42,.67,2.41,.67,1.22,0,2.27-.22,3.16-.66s1.76-1.11,2.6-2v-4.15Z"/><path d="M136.38,359.25v35.66h-5.93v-35.66h5.93Z"/><path d="M163.69,370.29v32.66h-5.93v-11.16c-.98,1.04-2.08,1.88-3.31,2.52s-2.66,.96-4.3,.96c-1.34,0-2.58-.28-3.7-.84-1.12-.56-2.08-1.37-2.89-2.44-.81-1.06-1.43-2.38-1.87-3.95-.44-1.57-.66-3.36-.66-5.38,0-1.82,.25-3.52,.74-5.09,.5-1.57,1.21-2.93,2.14-4.08,.93-1.15,2.04-2.05,3.34-2.7,1.3-.65,2.75-.97,4.37-.97s2.82,.26,3.86,.79c1.04,.53,1.97,1.24,2.78,2.14l.31-1.39c.21-.72,.7-1.08,1.49-1.08h3.62Zm-5.93,6.29c-.66-.82-1.38-1.39-2.18-1.73-.8-.34-1.66-.5-2.57-.5s-1.7,.17-2.42,.5-1.34,.84-1.85,1.52c-.51,.68-.9,1.54-1.18,2.59-.27,1.05-.41,2.28-.41,3.71s.12,2.66,.35,3.66c.23,1,.56,1.82,1,2.45,.43,.63,.96,1.09,1.58,1.37s1.32,.42,2.09,.42c1.23,0,2.28-.26,3.14-.77,.86-.51,1.68-1.24,2.45-2.18v-11.04Z"/><path d="M190.76,370.29v24.62h-3.62c-.78,0-1.28-.36-1.49-1.08l-.41-1.97c-1.01,1.02-2.12,1.85-3.34,2.48-1.22,.63-2.65,.95-4.3,.95-1.34,0-2.53-.23-3.56-.68-1.03-.46-1.9-1.1-2.6-1.93-.7-.83-1.24-1.82-1.6-2.96-.36-1.14-.54-2.4-.54-3.78v-15.65h5.93v15.65c0,1.5,.35,2.67,1.04,3.49,.7,.82,1.74,1.24,3.13,1.24,1.02,0,1.98-.23,2.88-.68s1.74-1.08,2.54-1.88v-17.81h5.93Z"/><path d="M201.17,383.34c.1,1.26,.32,2.36,.67,3.28,.35,.92,.82,1.68,1.39,2.28,.58,.6,1.26,1.05,2.05,1.34,.79,.3,1.67,.44,2.63,.44s1.79-.11,2.48-.34c.7-.22,1.3-.47,1.82-.74,.52-.27,.98-.52,1.37-.74,.39-.22,.77-.34,1.14-.34,.5,0,.86,.18,1.1,.55l1.7,2.16c-.66,.77-1.39,1.41-2.21,1.93-.82,.52-1.67,.94-2.56,1.25-.89,.31-1.79,.53-2.71,.66s-1.81,.19-2.68,.19c-1.71,0-3.3-.28-4.78-.85-1.47-.57-2.75-1.41-3.84-2.52-1.09-1.11-1.94-2.49-2.57-4.13-.62-1.64-.94-3.54-.94-5.7,0-1.68,.27-3.26,.82-4.74,.54-1.48,1.32-2.77,2.34-3.86,1.02-1.1,2.26-1.96,3.72-2.6,1.46-.64,3.12-.96,4.96-.96,1.55,0,2.98,.25,4.3,.74s2.44,1.22,3.38,2.17c.94,.95,1.68,2.12,2.22,3.5s.8,2.96,.8,4.74c0,.9-.1,1.5-.29,1.81-.19,.31-.56,.47-1.1,.47h-15.24Zm11.3-3.58c0-.77-.11-1.49-.32-2.17-.22-.68-.54-1.28-.97-1.79s-.98-.92-1.64-1.21c-.66-.3-1.44-.44-2.32-.44-1.71,0-3.06,.49-4.04,1.46-.98,.98-1.61,2.36-1.88,4.15h11.18Z"/><path d="M228.25,359.25v35.66h-5.93v-35.66h5.93Z"/><path d="M240.17,359.25v35.66h-5.93v-35.66h5.93Z"/><path d="M250.66,383.34c.1,1.26,.32,2.36,.67,3.28,.35,.92,.82,1.68,1.39,2.28s1.26,1.05,2.05,1.34c.79,.3,1.67,.44,2.63,.44s1.79-.11,2.48-.34,1.3-.47,1.82-.74c.52-.27,.98-.52,1.37-.74,.39-.22,.77-.34,1.14-.34,.5,0,.86,.18,1.1,.55l1.7,2.16c-.66,.77-1.39,1.41-2.21,1.93-.82,.52-1.67,.94-2.56,1.25-.89,.31-1.79,.53-2.71,.66s-1.81,.19-2.68,.19c-1.71,0-3.3-.28-4.78-.85-1.47-.57-2.75-1.41-3.84-2.52-1.09-1.11-1.94-2.49-2.57-4.13-.62-1.64-.94-3.54-.94-5.7,0-1.68,.27-3.26,.82-4.74,.54-1.48,1.32-2.77,2.34-3.86,1.02-1.1,2.26-1.96,3.72-2.6,1.46-.64,3.12-.96,4.96-.96,1.55,0,2.98,.25,4.3,.74,1.31,.5,2.44,1.22,3.38,2.17s1.68,2.12,2.22,3.5c.54,1.38,.8,2.96,.8,4.74,0,.9-.1,1.5-.29,1.81-.19,.31-.56,.47-1.1,.47h-15.24Zm11.3-3.58c0-.77-.11-1.49-.32-2.17-.22-.68-.54-1.28-.97-1.79s-.98-.92-1.64-1.21-1.44-.44-2.32-.44c-1.71,0-3.06,.49-4.04,1.46-.98,.98-1.61,2.36-1.88,4.15h11.18Z"/></g><g><path d="M349.76,14.75c-.19,.34-.4,.58-.61,.73-.22,.15-.48,.23-.8,.23-.34,0-.7-.12-1.09-.37-.39-.25-.86-.52-1.4-.83-.54-.3-1.18-.58-1.91-.83s-1.59-.37-2.58-.37c-.9,0-1.68,.11-2.35,.32-.67,.22-1.24,.52-1.69,.9-.46,.38-.8,.84-1.02,1.38-.22,.54-.34,1.12-.34,1.76,0,.82,.23,1.5,.68,2.04s1.06,1.01,1.81,1.39c.75,.38,1.61,.73,2.57,1.03,.96,.3,1.94,.63,2.95,.97,1.01,.34,1.99,.74,2.95,1.2,.96,.46,1.82,1.03,2.57,1.73,.75,.7,1.36,1.55,1.81,2.56s.68,2.23,.68,3.67c0,1.57-.27,3.04-.8,4.4-.54,1.37-1.32,2.56-2.35,3.58-1.03,1.02-2.29,1.82-3.78,2.4-1.49,.58-3.19,.88-5.11,.88-1.1,0-2.19-.11-3.26-.32-1.07-.22-2.1-.52-3.08-.92-.98-.4-1.91-.88-2.77-1.44-.86-.56-1.63-1.18-2.3-1.87l1.9-3.1c.16-.22,.37-.41,.62-.56,.26-.15,.53-.23,.82-.23,.4,0,.83,.16,1.3,.49s1.02,.69,1.66,1.09c.64,.4,1.39,.76,2.24,1.09,.86,.33,1.88,.49,3.08,.49,1.84,0,3.26-.44,4.27-1.31,1.01-.87,1.51-2.12,1.51-3.76,0-.91-.23-1.66-.68-2.23-.46-.58-1.06-1.06-1.81-1.45-.75-.39-1.61-.72-2.57-1-.96-.27-1.94-.57-2.93-.89-.99-.32-1.97-.7-2.93-1.15-.96-.45-1.82-1.03-2.57-1.75-.75-.72-1.36-1.62-1.81-2.7s-.68-2.41-.68-4c0-1.26,.25-2.5,.76-3.7,.5-1.2,1.24-2.26,2.2-3.19,.96-.93,2.14-1.67,3.55-2.23,1.41-.56,3.02-.84,4.85-.84,2.05,0,3.94,.32,5.66,.96,1.73,.64,3.2,1.54,4.42,2.69l-1.61,3.05Z"/><path d="M374.24,23.73c-.18,.22-.35,.4-.52,.53-.17,.13-.41,.19-.73,.19s-.6-.09-.89-.28c-.29-.18-.63-.39-1.03-.62-.4-.23-.88-.44-1.43-.62-.55-.18-1.24-.28-2.05-.28-1.04,0-1.95,.19-2.74,.56-.78,.38-1.44,.92-1.96,1.62-.52,.7-.91,1.56-1.16,2.56s-.38,2.13-.38,3.4,.14,2.48,.42,3.5c.28,1.02,.68,1.88,1.21,2.58,.53,.7,1.17,1.22,1.92,1.58s1.6,.54,2.54,.54,1.71-.12,2.29-.35,1.08-.49,1.48-.77c.4-.28,.75-.54,1.04-.77,.3-.23,.63-.35,1-.35,.48,0,.84,.18,1.08,.55l1.7,2.16c-.66,.77-1.37,1.41-2.14,1.93-.77,.52-1.56,.94-2.39,1.25-.82,.31-1.67,.53-2.54,.66-.87,.13-1.74,.19-2.6,.19-1.52,0-2.95-.28-4.3-.85-1.34-.57-2.52-1.4-3.53-2.48-1.01-1.09-1.8-2.42-2.39-4-.58-1.58-.88-3.37-.88-5.39,0-1.81,.26-3.48,.78-5.03,.52-1.54,1.28-2.88,2.29-4.01,1.01-1.13,2.26-2.01,3.74-2.65,1.49-.64,3.2-.96,5.14-.96s3.45,.3,4.84,.89c1.38,.59,2.63,1.44,3.73,2.54l-1.56,2.16Z"/><path d="M385.67,21.16c.96-.9,2.02-1.62,3.17-2.18s2.5-.84,4.06-.84c1.34,0,2.54,.23,3.58,.68,1.04,.46,1.91,1.1,2.6,1.92,.7,.82,1.22,1.81,1.58,2.95,.36,1.14,.54,2.4,.54,3.78v15.67h-5.93v-15.67c0-1.5-.34-2.67-1.03-3.49-.69-.82-1.74-1.24-3.14-1.24-1.02,0-1.98,.23-2.88,.7-.9,.46-1.74,1.1-2.54,1.9v17.81h-5.93V7.48h5.93v13.68Z"/><path d="M406.23,21.95c2.83-2.59,6.24-3.89,10.22-3.89,1.44,0,2.73,.24,3.86,.71,1.14,.47,2.1,1.13,2.88,1.97,.78,.84,1.38,1.84,1.79,3.01,.41,1.17,.61,2.45,.61,3.84v15.55h-2.69c-.56,0-.99-.08-1.3-.25-.3-.17-.54-.51-.72-1.02l-.53-1.78c-.62,.56-1.23,1.05-1.82,1.48-.59,.42-1.21,.78-1.85,1.07-.64,.29-1.32,.51-2.05,.66-.73,.15-1.53,.23-2.41,.23-1.04,0-2-.14-2.88-.42-.88-.28-1.64-.7-2.28-1.26-.64-.56-1.14-1.26-1.49-2.09-.35-.83-.53-1.8-.53-2.9,0-.62,.1-1.24,.31-1.86,.21-.62,.55-1.2,1.02-1.76,.47-.56,1.08-1.09,1.84-1.58,.75-.5,1.68-.93,2.77-1.3,1.1-.37,2.37-.67,3.83-.9s3.12-.37,4.99-.42v-1.44c0-1.65-.35-2.87-1.06-3.66s-1.72-1.19-3.05-1.19c-.96,0-1.76,.11-2.39,.34-.63,.22-1.19,.48-1.67,.76-.48,.28-.92,.53-1.31,.76s-.83,.34-1.31,.34c-.42,0-.77-.11-1.06-.32s-.52-.47-.7-.76l-1.06-1.9Zm13.58,10.68c-1.71,.08-3.15,.23-4.32,.44-1.17,.22-2.1,.49-2.81,.83-.7,.34-1.21,.73-1.51,1.18-.3,.45-.46,.94-.46,1.46,0,1.04,.31,1.78,.92,2.23,.62,.45,1.42,.67,2.41,.67,1.22,0,2.27-.22,3.16-.66,.89-.44,1.76-1.11,2.6-2v-4.15Z"/><path d="M437.17,7.48V43.14h-5.93V7.48h5.93Z"/><path d="M449.1,7.48V43.14h-5.93V7.48h5.93Z"/><path d="M490.18,18.52l-7.82,24.62h-4.75c-.54,0-.92-.35-1.13-1.06l-4.42-14.23c-.14-.48-.28-.96-.4-1.43-.12-.47-.22-.95-.3-1.43-.1,.48-.2,.96-.32,1.45-.12,.49-.25,.97-.4,1.45l-4.49,14.18c-.19,.7-.62,1.06-1.27,1.06h-4.56l-7.8-24.62h4.73c.43,0,.8,.1,1.1,.31,.3,.21,.5,.47,.6,.79l3.53,13.15c.18,.72,.33,1.42,.47,2.11,.14,.69,.25,1.38,.35,2.06,.18-.69,.36-1.38,.56-2.06,.2-.69,.41-1.39,.64-2.11l4.08-13.2c.1-.32,.28-.58,.56-.79s.62-.31,1.02-.31h2.62c.42,0,.77,.1,1.07,.31s.49,.47,.59,.79l3.96,13.2c.21,.72,.4,1.43,.59,2.12,.18,.7,.36,1.39,.54,2.08,.21-1.36,.5-2.76,.89-4.2l3.62-13.15c.11-.32,.31-.58,.6-.79,.29-.21,.63-.31,1.03-.31h4.51Z"/><path d="M492.66,21.95c2.83-2.59,6.24-3.89,10.22-3.89,1.44,0,2.73,.24,3.86,.71,1.14,.47,2.1,1.13,2.88,1.97,.78,.84,1.38,1.84,1.79,3.01,.41,1.17,.61,2.45,.61,3.84v15.55h-2.69c-.56,0-.99-.08-1.3-.25-.3-.17-.54-.51-.72-1.02l-.53-1.78c-.62,.56-1.23,1.05-1.82,1.48-.59,.42-1.21,.78-1.85,1.07-.64,.29-1.32,.51-2.05,.66-.73,.15-1.53,.23-2.41,.23-1.04,0-2-.14-2.88-.42-.88-.28-1.64-.7-2.28-1.26-.64-.56-1.14-1.26-1.49-2.09-.35-.83-.53-1.8-.53-2.9,0-.62,.1-1.24,.31-1.86,.21-.62,.55-1.2,1.02-1.76,.47-.56,1.08-1.09,1.84-1.58,.75-.5,1.68-.93,2.77-1.3,1.1-.37,2.37-.67,3.83-.9s3.12-.37,4.99-.42v-1.44c0-1.65-.35-2.87-1.06-3.66s-1.72-1.19-3.05-1.19c-.96,0-1.76,.11-2.39,.34-.63,.22-1.19,.48-1.67,.76-.48,.28-.92,.53-1.31,.76s-.83,.34-1.31,.34c-.42,0-.77-.11-1.06-.32s-.52-.47-.7-.76l-1.06-1.9Zm13.58,10.68c-1.71,.08-3.15,.23-4.32,.44-1.17,.22-2.1,.49-2.81,.83-.7,.34-1.21,.73-1.51,1.18-.3,.45-.46,.94-.46,1.46,0,1.04,.31,1.78,.92,2.23,.62,.45,1.42,.67,2.41,.67,1.22,0,2.27-.22,3.16-.66,.89-.44,1.76-1.11,2.6-2v-4.15Z"/><path d="M523.14,21.54c.5-.5,1.02-.96,1.57-1.38,.55-.42,1.14-.78,1.75-1.08,.62-.3,1.28-.53,1.98-.7s1.47-.25,2.3-.25c1.34,0,2.54,.23,3.58,.68,1.04,.46,1.91,1.1,2.6,1.92,.7,.82,1.22,1.81,1.58,2.95,.36,1.14,.54,2.4,.54,3.78v15.67h-5.93v-15.67c0-1.5-.34-2.67-1.03-3.49-.69-.82-1.74-1.24-3.14-1.24-1.02,0-1.98,.23-2.88,.7-.9,.46-1.74,1.1-2.54,1.9v17.81h-5.93V18.52h3.62c.77,0,1.27,.36,1.51,1.08l.41,1.94Z"/><path d="M566.05,7.48V43.14h-3.62c-.78,0-1.28-.36-1.49-1.08l-.5-2.38c-.99,1.14-2.13,2.06-3.42,2.76-1.29,.7-2.79,1.06-4.5,1.06-1.34,0-2.58-.28-3.7-.84s-2.08-1.37-2.89-2.44c-.81-1.06-1.43-2.38-1.87-3.95-.44-1.57-.66-3.36-.66-5.38,0-1.82,.25-3.52,.74-5.09,.5-1.57,1.21-2.93,2.14-4.08,.93-1.15,2.04-2.05,3.34-2.7s2.75-.97,4.37-.97c1.38,0,2.55,.22,3.53,.65,.98,.43,1.85,1.02,2.62,1.75V7.48h5.93Zm-5.93,17.33c-.67-.82-1.4-1.39-2.2-1.73s-1.64-.5-2.56-.5-1.7,.17-2.42,.5c-.72,.34-1.34,.84-1.85,1.52-.51,.68-.9,1.54-1.18,2.59-.27,1.05-.41,2.28-.41,3.71s.12,2.66,.35,3.66c.23,1,.56,1.82,1,2.45,.43,.63,.96,1.09,1.58,1.37,.62,.28,1.32,.42,2.09,.42,1.23,0,2.28-.26,3.14-.77,.86-.51,1.68-1.24,2.45-2.18v-11.04Z"/><path d="M577.9,7.48V43.14h-5.93V7.48h5.93Z"/><path d="M588.39,31.57c.1,1.26,.32,2.36,.67,3.28,.35,.92,.82,1.68,1.39,2.28,.58,.6,1.26,1.05,2.05,1.34,.79,.3,1.67,.44,2.63,.44s1.79-.11,2.48-.34c.7-.22,1.3-.47,1.82-.74,.52-.27,.98-.52,1.37-.74,.39-.22,.77-.34,1.14-.34,.5,0,.86,.18,1.1,.55l1.7,2.16c-.66,.77-1.39,1.41-2.21,1.93-.82,.52-1.67,.94-2.56,1.25-.89,.31-1.79,.53-2.71,.66-.92,.13-1.81,.19-2.68,.19-1.71,0-3.3-.28-4.78-.85-1.47-.57-2.75-1.41-3.84-2.52-1.09-1.11-1.94-2.49-2.57-4.13-.62-1.64-.94-3.54-.94-5.7,0-1.68,.27-3.26,.82-4.74,.54-1.48,1.32-2.77,2.34-3.86,1.02-1.1,2.26-1.96,3.72-2.6s3.12-.96,4.96-.96c1.55,0,2.98,.25,4.3,.74,1.31,.5,2.44,1.22,3.38,2.17s1.68,2.12,2.22,3.5c.54,1.38,.8,2.96,.8,4.74,0,.9-.1,1.5-.29,1.81s-.56,.47-1.1,.47h-15.24Zm11.3-3.58c0-.77-.11-1.49-.32-2.17s-.54-1.28-.97-1.79c-.43-.51-.98-.92-1.64-1.21-.66-.3-1.44-.44-2.32-.44-1.71,0-3.06,.49-4.04,1.46-.98,.98-1.61,2.36-1.88,4.15h11.18Z"/><path d="M615.05,22.79c.77-1.47,1.68-2.63,2.74-3.47,1.06-.84,2.3-1.26,3.74-1.26,1.14,0,2.05,.25,2.74,.74l-.38,4.44c-.08,.29-.2,.49-.35,.61-.15,.12-.36,.18-.61,.18-.24,0-.6-.04-1.07-.12-.47-.08-.93-.12-1.38-.12-.66,0-1.24,.1-1.75,.29-.51,.19-.97,.47-1.38,.83-.41,.36-.77,.8-1.08,1.31-.31,.51-.6,1.1-.88,1.75v15.17h-5.93V18.52h3.48c.61,0,1.03,.11,1.27,.32,.24,.22,.4,.6,.48,1.16l.36,2.78Z"/></g><g><path d="M412.87,374.75h1.51c.61,0,1.11-.08,1.51-.25,.4-.17,.74-.44,1.03-.8l9.58-12.12c.4-.51,.82-.87,1.26-1.07s1-.3,1.67-.3h5.57l-11.69,14.42c-.69,.88-1.4,1.5-2.14,1.87,.53,.19,1,.46,1.43,.8s.83,.8,1.21,1.36l12.05,16.25h-5.69c-.77,0-1.34-.11-1.72-.32-.38-.22-.69-.53-.95-.95l-9.82-12.82c-.3-.43-.66-.74-1.06-.91-.4-.18-.98-.26-1.73-.26h-2.04v15.26h-6.46v-34.7h6.46v14.54Z"/><path d="M437.73,373.72c2.83-2.59,6.24-3.89,10.22-3.89,1.44,0,2.73,.24,3.86,.71,1.14,.47,2.1,1.13,2.88,1.97,.78,.84,1.38,1.84,1.79,3.01,.41,1.17,.61,2.45,.61,3.84v15.55h-2.69c-.56,0-.99-.08-1.3-.25-.3-.17-.54-.51-.72-1.02l-.53-1.78c-.62,.56-1.23,1.05-1.82,1.48-.59,.42-1.21,.78-1.85,1.07-.64,.29-1.32,.51-2.05,.66-.73,.15-1.53,.23-2.41,.23-1.04,0-2-.14-2.88-.42-.88-.28-1.64-.7-2.28-1.26-.64-.56-1.14-1.26-1.49-2.09-.35-.83-.53-1.8-.53-2.9,0-.62,.1-1.24,.31-1.86s.55-1.2,1.02-1.76c.47-.56,1.08-1.09,1.84-1.58,.75-.5,1.68-.93,2.77-1.3,1.1-.37,2.37-.67,3.83-.9,1.46-.23,3.12-.37,4.99-.42v-1.44c0-1.65-.35-2.87-1.06-3.66s-1.72-1.19-3.05-1.19c-.96,0-1.76,.11-2.39,.34-.63,.22-1.19,.48-1.67,.76s-.92,.53-1.31,.76c-.39,.22-.83,.34-1.31,.34-.42,0-.77-.11-1.06-.32s-.52-.47-.7-.76l-1.06-1.9Zm13.58,10.68c-1.71,.08-3.15,.23-4.32,.44-1.17,.22-2.1,.49-2.81,.83-.7,.34-1.21,.73-1.51,1.18-.3,.45-.46,.94-.46,1.46,0,1.04,.31,1.78,.92,2.23,.62,.45,1.42,.67,2.41,.67,1.22,0,2.27-.22,3.16-.66s1.76-1.11,2.6-2v-4.15Z"/><path d="M468.6,373.31c.99-1.04,2.09-1.87,3.3-2.48,1.21-.62,2.59-.92,4.14-.92,1.42,0,2.71,.28,3.85,.84,1.14,.56,2.12,1.36,2.93,2.41,.81,1.05,1.43,2.32,1.86,3.8,.43,1.49,.65,3.16,.65,5.02,0,2-.25,3.82-.74,5.45-.5,1.63-1.2,3.03-2.12,4.19s-2.03,2.06-3.32,2.7-2.74,.96-4.32,.96c-.77,0-1.46-.08-2.09-.23-.62-.15-1.2-.36-1.73-.64-.53-.27-1.01-.6-1.45-1-.44-.39-.86-.83-1.26-1.31l-.26,1.66c-.1,.42-.26,.71-.49,.89-.23,.18-.55,.26-.95,.26h-3.91v-35.66h5.93v14.06Zm0,15.22c.67,.82,1.4,1.39,2.2,1.73,.79,.34,1.63,.5,2.51,.5s1.73-.16,2.46-.49,1.35-.84,1.86-1.54,.9-1.58,1.18-2.66c.27-1.08,.41-2.37,.41-3.88,0-2.7-.45-4.66-1.34-5.87-.9-1.21-2.18-1.81-3.86-1.81-1.14,0-2.13,.26-2.98,.78-.85,.52-1.66,1.25-2.42,2.2v11.04Z"/><path d="M494.47,383.34c.1,1.26,.32,2.36,.67,3.28,.35,.92,.82,1.68,1.39,2.28,.58,.6,1.26,1.05,2.05,1.34,.79,.3,1.67,.44,2.63,.44s1.79-.11,2.48-.34c.7-.22,1.3-.47,1.82-.74,.52-.27,.98-.52,1.37-.74,.39-.22,.77-.34,1.14-.34,.5,0,.86,.18,1.1,.55l1.7,2.16c-.66,.77-1.39,1.41-2.21,1.93-.82,.52-1.67,.94-2.56,1.25-.89,.31-1.79,.53-2.71,.66s-1.81,.19-2.68,.19c-1.71,0-3.3-.28-4.78-.85-1.47-.57-2.75-1.41-3.84-2.52-1.09-1.11-1.94-2.49-2.57-4.13-.62-1.64-.94-3.54-.94-5.7,0-1.68,.27-3.26,.82-4.74,.54-1.48,1.32-2.77,2.34-3.86,1.02-1.1,2.26-1.96,3.72-2.6,1.46-.64,3.12-.96,4.96-.96,1.55,0,2.98,.25,4.3,.74s2.44,1.22,3.38,2.17c.94,.95,1.68,2.12,2.22,3.5s.8,2.96,.8,4.74c0,.9-.1,1.5-.29,1.81-.19,.31-.56,.47-1.1,.47h-15.24Zm11.3-3.58c0-.77-.11-1.49-.32-2.17-.22-.68-.54-1.28-.97-1.79s-.98-.92-1.64-1.21c-.66-.3-1.44-.44-2.32-.44-1.71,0-3.06,.49-4.04,1.46-.98,.98-1.61,2.36-1.88,4.15h11.18Z"/><path d="M521.54,359.25v35.66h-5.93v-35.66h5.93Z"/><path d="M549.67,370.29l-9.77,24.62h-5.38l-9.77-24.62h4.9c.45,0,.82,.1,1.12,.31s.49,.47,.59,.79l4.75,13.15c.26,.77,.48,1.52,.67,2.26,.19,.74,.36,1.47,.5,2.21,.16-.74,.34-1.47,.53-2.21,.19-.74,.42-1.49,.7-2.26l4.85-13.15c.11-.32,.31-.58,.6-.79s.63-.31,1.03-.31h4.68Z"/><path d="M556.6,383.34c.1,1.26,.32,2.36,.67,3.28,.35,.92,.82,1.68,1.39,2.28s1.26,1.05,2.05,1.34c.79,.3,1.67,.44,2.63,.44s1.79-.11,2.48-.34,1.3-.47,1.82-.74c.52-.27,.98-.52,1.37-.74,.39-.22,.77-.34,1.14-.34,.5,0,.86,.18,1.1,.55l1.7,2.16c-.66,.77-1.39,1.41-2.21,1.93-.82,.52-1.67,.94-2.56,1.25-.89,.31-1.79,.53-2.71,.66s-1.81,.19-2.68,.19c-1.71,0-3.3-.28-4.78-.85-1.47-.57-2.75-1.41-3.84-2.52-1.09-1.11-1.94-2.49-2.57-4.13-.62-1.64-.94-3.54-.94-5.7,0-1.68,.27-3.26,.82-4.74,.54-1.48,1.32-2.77,2.34-3.86,1.02-1.1,2.26-1.96,3.72-2.6,1.46-.64,3.12-.96,4.96-.96,1.55,0,2.98,.25,4.3,.74,1.31,.5,2.44,1.22,3.38,2.17s1.68,2.12,2.22,3.5,.8,2.96,.8,4.74c0,.9-.1,1.5-.29,1.81-.19,.31-.56,.47-1.1,.47h-15.24Zm11.3-3.58c0-.77-.11-1.49-.32-2.17-.22-.68-.54-1.28-.97-1.79-.43-.51-.98-.92-1.64-1.21s-1.44-.44-2.32-.44c-1.71,0-3.06,.49-4.04,1.46-.98,.98-1.61,2.36-1.88,4.15h11.18Z"/><path d="M583.27,374.56c.77-1.47,1.68-2.63,2.74-3.47,1.06-.84,2.3-1.26,3.74-1.26,1.14,0,2.05,.25,2.74,.74l-.38,4.44c-.08,.29-.2,.49-.35,.61-.15,.12-.36,.18-.61,.18-.24,0-.6-.04-1.07-.12-.47-.08-.93-.12-1.38-.12-.66,0-1.24,.1-1.75,.29-.51,.19-.97,.47-1.38,.83-.41,.36-.77,.8-1.08,1.31-.31,.51-.6,1.1-.88,1.75v15.17h-5.93v-24.62h3.48c.61,0,1.03,.11,1.27,.32s.4,.6,.48,1.16l.36,2.78Z"/><path d="M601.5,373.31c.99-1.04,2.09-1.87,3.3-2.48,1.21-.62,2.59-.92,4.14-.92,1.42,0,2.71,.28,3.85,.84,1.14,.56,2.12,1.36,2.93,2.41,.81,1.05,1.43,2.32,1.86,3.8,.43,1.49,.65,3.16,.65,5.02,0,2-.25,3.82-.74,5.45-.5,1.63-1.2,3.03-2.12,4.19s-2.03,2.06-3.32,2.7-2.74,.96-4.32,.96c-.77,0-1.46-.08-2.09-.23-.62-.15-1.2-.36-1.73-.64-.53-.27-1.01-.6-1.45-1-.44-.39-.86-.83-1.26-1.31l-.26,1.66c-.1,.42-.26,.71-.49,.89-.23,.18-.55,.26-.95,.26h-3.91v-35.66h5.93v14.06Zm0,15.22c.67,.82,1.4,1.39,2.2,1.73,.79,.34,1.63,.5,2.51,.5s1.73-.16,2.46-.49c.73-.33,1.35-.84,1.86-1.54,.51-.7,.9-1.58,1.18-2.66,.27-1.08,.41-2.37,.41-3.88,0-2.7-.45-4.66-1.34-5.87-.9-1.21-2.18-1.81-3.86-1.81-1.14,0-2.13,.26-2.98,.78-.85,.52-1.66,1.25-2.42,2.2v11.04Z"/><path d="M629.78,363.11c0,.51-.1,.99-.31,1.44-.21,.45-.48,.84-.83,1.18-.34,.34-.75,.6-1.21,.8-.46,.2-.96,.3-1.49,.3s-1-.1-1.45-.3-.85-.47-1.19-.8c-.34-.34-.6-.73-.8-1.18-.2-.45-.3-.93-.3-1.44s.1-1.02,.3-1.49c.2-.46,.47-.86,.8-1.2,.34-.34,.73-.6,1.19-.8,.46-.2,.94-.3,1.45-.3s1.02,.1,1.49,.3c.46,.2,.87,.47,1.21,.8,.34,.34,.62,.74,.83,1.2,.21,.46,.31,.96,.31,1.49Zm-.82,7.18v24.62h-5.95v-24.62h5.95Z"/><path d="M640.55,373.31c.5-.5,1.02-.96,1.57-1.38s1.14-.78,1.75-1.08,1.28-.53,1.98-.7c.7-.17,1.47-.25,2.3-.25,1.34,0,2.54,.23,3.58,.68,1.04,.46,1.91,1.1,2.6,1.92,.7,.82,1.22,1.81,1.58,2.95,.36,1.14,.54,2.4,.54,3.78v15.67h-5.93v-15.67c0-1.5-.34-2.67-1.03-3.49-.69-.82-1.74-1.24-3.14-1.24-1.02,0-1.98,.23-2.88,.7-.9,.46-1.74,1.1-2.54,1.9v17.81h-5.93v-24.62h3.62c.77,0,1.27,.36,1.51,1.08l.41,1.94Z"/><path d="M683.46,359.25v35.66h-3.62c-.78,0-1.28-.36-1.49-1.08l-.5-2.38c-.99,1.14-2.13,2.06-3.42,2.76-1.29,.7-2.79,1.06-4.5,1.06-1.34,0-2.58-.28-3.7-.84-1.12-.56-2.08-1.37-2.89-2.44-.81-1.06-1.43-2.38-1.87-3.95-.44-1.57-.66-3.36-.66-5.38,0-1.82,.25-3.52,.74-5.09,.5-1.57,1.21-2.93,2.14-4.08,.93-1.15,2.04-2.05,3.34-2.7,1.3-.65,2.75-.97,4.37-.97,1.38,0,2.55,.22,3.53,.65,.98,.43,1.85,1.02,2.62,1.75v-12.98h5.93Zm-5.93,17.33c-.67-.82-1.4-1.39-2.2-1.73s-1.64-.5-2.56-.5-1.7,.17-2.42,.5-1.34,.84-1.85,1.52c-.51,.68-.9,1.54-1.18,2.59-.27,1.05-.41,2.28-.41,3.71s.12,2.66,.35,3.66c.23,1,.56,1.82,1,2.45,.43,.63,.96,1.09,1.58,1.37s1.32,.42,2.09,.42c1.23,0,2.28-.26,3.14-.77,.86-.51,1.68-1.24,2.45-2.18v-11.04Z"/><path d="M710.54,370.29v24.62h-3.62c-.78,0-1.28-.36-1.49-1.08l-.41-1.97c-1.01,1.02-2.12,1.85-3.34,2.48s-2.65,.95-4.3,.95c-1.34,0-2.53-.23-3.56-.68-1.03-.46-1.9-1.1-2.6-1.93s-1.24-1.82-1.6-2.96c-.36-1.14-.54-2.4-.54-3.78v-15.65h5.93v15.65c0,1.5,.35,2.67,1.04,3.49s1.74,1.24,3.13,1.24c1.02,0,1.98-.23,2.88-.68s1.74-1.08,2.54-1.88v-17.81h5.93Z"/><path d="M721.94,373.31c.5-.5,1.02-.96,1.57-1.38s1.14-.78,1.75-1.08,1.28-.53,1.98-.7c.7-.17,1.47-.25,2.3-.25,1.34,0,2.54,.23,3.58,.68,1.04,.46,1.91,1.1,2.6,1.92,.7,.82,1.22,1.81,1.58,2.95,.36,1.14,.54,2.4,.54,3.78v15.67h-5.93v-15.67c0-1.5-.34-2.67-1.03-3.49-.69-.82-1.74-1.24-3.14-1.24-1.02,0-1.98,.23-2.88,.7-.9,.46-1.74,1.1-2.54,1.9v17.81h-5.93v-24.62h3.62c.77,0,1.27,.36,1.51,1.08l.41,1.94Z"/><path d="M765.06,371.13v2.21c0,.71-.42,1.14-1.27,1.3l-2.21,.41c.34,.85,.5,1.78,.5,2.78,0,1.22-.24,2.32-.73,3.3-.49,.98-1.16,1.82-2.03,2.51-.86,.69-1.88,1.22-3.06,1.6-1.18,.38-2.44,.56-3.8,.56-.48,0-.94-.02-1.39-.07-.45-.05-.89-.11-1.32-.19-.77,.46-1.15,.98-1.15,1.56,0,.5,.23,.86,.68,1.09,.46,.23,1.06,.4,1.81,.49,.75,.1,1.61,.16,2.57,.18,.96,.02,1.94,.08,2.95,.16s1.99,.22,2.95,.42,1.82,.52,2.57,.95c.75,.43,1.36,1.02,1.81,1.76s.68,1.7,.68,2.87c0,1.09-.27,2.14-.8,3.17-.54,1.02-1.31,1.94-2.33,2.74-1.02,.8-2.26,1.44-3.74,1.93-1.48,.49-3.16,.73-5.05,.73s-3.47-.18-4.85-.54c-1.38-.36-2.52-.84-3.43-1.44-.91-.6-1.59-1.29-2.04-2.08-.45-.78-.67-1.6-.67-2.45,0-1.15,.35-2.12,1.04-2.89,.7-.78,1.65-1.4,2.87-1.86-.66-.34-1.18-.78-1.56-1.34-.38-.56-.58-1.3-.58-2.21,0-.37,.07-.75,.2-1.14,.14-.39,.34-.78,.6-1.16,.26-.38,.6-.75,1-1.09,.4-.34,.87-.65,1.42-.92-1.25-.67-2.23-1.57-2.94-2.69s-1.07-2.43-1.07-3.94c0-1.22,.24-2.32,.73-3.3s1.17-1.82,2.04-2.52c.87-.7,1.9-1.23,3.1-1.6,1.19-.37,2.49-.55,3.9-.55,1.06,0,2.05,.11,2.98,.32,.93,.22,1.78,.53,2.54,.95h7.08Zm-5.9,24.89c0-.48-.14-.87-.43-1.18-.29-.3-.68-.54-1.18-.71-.5-.17-1.08-.29-1.74-.37-.66-.08-1.37-.14-2.11-.18-.74-.04-1.51-.08-2.3-.11s-1.56-.1-2.32-.19c-.66,.37-1.19,.8-1.6,1.3-.41,.5-.61,1.07-.61,1.73,0,.43,.11,.84,.32,1.21s.56,.7,1.03,.97c.47,.27,1.08,.48,1.84,.64,.75,.15,1.67,.23,2.76,.23s2.06-.08,2.86-.25c.8-.17,1.46-.4,1.98-.7,.52-.3,.9-.65,1.14-1.06,.24-.41,.36-.85,.36-1.33Zm-6.7-14.02c.74,0,1.38-.1,1.92-.3s1-.48,1.36-.83c.36-.35,.63-.78,.82-1.27,.18-.5,.28-1.04,.28-1.63,0-1.22-.36-2.18-1.09-2.89-.73-.71-1.82-1.07-3.28-1.07s-2.55,.36-3.28,1.07c-.73,.71-1.09,1.68-1.09,2.89,0,.58,.09,1.11,.28,1.61,.18,.5,.46,.92,.82,1.28,.36,.36,.82,.64,1.37,.84,.55,.2,1.19,.3,1.91,.3Z"/></g><g><path d="M724.95,42.76h-4.99c-.56,0-1.02-.14-1.37-.42-.35-.28-.62-.63-.79-1.04l-2.59-7.08h-14.38l-2.59,7.08c-.13,.37-.38,.7-.74,1.01-.37,.3-.82,.46-1.37,.46h-5.04l13.66-34.7h6.58l13.63,34.7Zm-11.4-13.1l-4.22-11.54c-.21-.51-.42-1.12-.65-1.82-.22-.7-.45-1.46-.67-2.28-.21,.82-.42,1.58-.65,2.29-.22,.71-.44,1.33-.65,1.86l-4.2,11.5h11.04Z"/><path d="M748.27,18.13v24.62h-3.62c-.78,0-1.28-.36-1.49-1.08l-.41-1.97c-1.01,1.02-2.12,1.85-3.34,2.48s-2.65,.95-4.3,.95c-1.34,0-2.53-.23-3.56-.68-1.03-.46-1.9-1.1-2.6-1.93s-1.24-1.82-1.6-2.96c-.36-1.14-.54-2.4-.54-3.78v-15.65h5.93v15.65c0,1.5,.35,2.67,1.04,3.49s1.74,1.24,3.13,1.24c1.02,0,1.98-.23,2.88-.68,.9-.46,1.74-1.08,2.54-1.88V18.13h5.93Z"/><path d="M775.51,7.09V42.76h-3.62c-.78,0-1.28-.36-1.49-1.08l-.5-2.38c-.99,1.14-2.13,2.06-3.42,2.76-1.29,.7-2.79,1.06-4.5,1.06-1.34,0-2.58-.28-3.7-.84s-2.08-1.37-2.89-2.44c-.81-1.06-1.43-2.38-1.87-3.95-.44-1.57-.66-3.36-.66-5.38,0-1.82,.25-3.52,.74-5.09,.5-1.57,1.21-2.93,2.14-4.08,.93-1.15,2.04-2.05,3.34-2.7s2.75-.97,4.37-.97c1.38,0,2.55,.22,3.53,.65,.98,.43,1.85,1.02,2.62,1.75V7.09h5.93Zm-5.93,17.33c-.67-.82-1.4-1.39-2.2-1.73s-1.64-.5-2.56-.5-1.7,.17-2.42,.5c-.72,.34-1.34,.84-1.85,1.52-.51,.68-.9,1.54-1.18,2.59-.27,1.05-.41,2.28-.41,3.71s.12,2.66,.35,3.66c.23,1,.56,1.82,1,2.45,.43,.63,.96,1.09,1.58,1.37,.62,.28,1.32,.42,2.09,.42,1.23,0,2.28-.26,3.14-.77,.86-.51,1.68-1.24,2.45-2.18v-11.04Z"/><path d="M788.33,10.96c0,.51-.1,.99-.31,1.44-.21,.45-.48,.84-.83,1.18-.34,.34-.75,.6-1.21,.8-.46,.2-.96,.3-1.49,.3s-1-.1-1.45-.3-.85-.47-1.19-.8c-.34-.34-.6-.73-.8-1.18s-.3-.93-.3-1.44,.1-1.02,.3-1.49c.2-.46,.47-.86,.8-1.2,.34-.34,.73-.6,1.19-.8,.46-.2,.94-.3,1.45-.3s1.02,.1,1.49,.3c.46,.2,.87,.47,1.21,.8,.34,.34,.62,.74,.83,1.2,.21,.46,.31,.96,.31,1.49Zm-.82,7.18v24.62h-5.95V18.13h5.95Z"/><path d="M804.46,17.75c1.82,0,3.48,.3,4.98,.89,1.5,.59,2.78,1.43,3.84,2.52,1.06,1.09,1.88,2.42,2.46,3.98,.58,1.57,.86,3.32,.86,5.26s-.29,3.71-.86,5.28c-.58,1.57-1.4,2.9-2.46,4.01-1.06,1.1-2.34,1.95-3.84,2.54-1.5,.59-3.16,.89-4.98,.89s-3.51-.3-5.02-.89c-1.5-.59-2.79-1.44-3.85-2.54s-1.89-2.44-2.47-4.01c-.58-1.57-.88-3.33-.88-5.28s.29-3.69,.88-5.26c.58-1.57,1.41-2.9,2.47-3.98,1.06-1.09,2.35-1.93,3.85-2.52,1.5-.59,3.18-.89,5.02-.89Zm0,20.81c2.05,0,3.56-.69,4.55-2.06,.98-1.38,1.48-3.39,1.48-6.05s-.49-4.68-1.48-6.07c-.98-1.39-2.5-2.09-4.55-2.09s-3.62,.7-4.62,2.1c-1,1.4-1.5,3.42-1.5,6.06s.5,4.65,1.5,6.04,2.54,2.08,4.62,2.08Z"/><path d="M820.94,25.79h12.43v4.94h-12.43v-4.94Z"/><path d="M846.46,42.76h-6.48V8.05h6.48V42.76Z"/><path d="M858.46,21.16c.5-.5,1.02-.96,1.57-1.38,.55-.42,1.14-.78,1.75-1.08,.62-.3,1.28-.53,1.98-.7s1.47-.25,2.3-.25c1.34,0,2.54,.23,3.58,.68,1.04,.46,1.91,1.1,2.6,1.92s1.22,1.81,1.58,2.95c.36,1.14,.54,2.4,.54,3.78v15.67h-5.93v-15.67c0-1.5-.34-2.67-1.03-3.49-.69-.82-1.74-1.24-3.14-1.24-1.02,0-1.98,.23-2.88,.7-.9,.46-1.74,1.1-2.54,1.9v17.81h-5.93V18.13h3.62c.77,0,1.27,.36,1.51,1.08l.41,1.94Z"/><path d="M887.86,43.14c-2.14,0-3.79-.6-4.93-1.81-1.14-1.21-1.72-2.88-1.72-5v-13.75h-2.52c-.32,0-.59-.1-.82-.31-.22-.21-.34-.52-.34-.94v-2.35l3.96-.65,1.25-6.72c.08-.32,.23-.57,.46-.74,.22-.18,.51-.26,.86-.26h3.07v7.75h6.58v4.22h-6.58v13.34c0,.77,.19,1.37,.56,1.8s.89,.65,1.55,.65c.37,0,.68-.04,.92-.13,.25-.09,.46-.18,.65-.28,.18-.1,.35-.19,.49-.28,.14-.09,.29-.13,.43-.13,.18,0,.32,.04,.43,.13,.11,.09,.23,.22,.36,.4l1.78,2.88c-.86,.72-1.86,1.26-2.98,1.63-1.12,.37-2.28,.55-3.48,.55Z"/><path d="M901.87,31.19c.1,1.26,.32,2.36,.67,3.28,.35,.92,.82,1.68,1.39,2.28,.58,.6,1.26,1.05,2.05,1.34,.79,.3,1.67,.44,2.63,.44s1.79-.11,2.48-.34c.7-.22,1.3-.47,1.82-.74,.52-.27,.98-.52,1.37-.74,.39-.22,.77-.34,1.14-.34,.5,0,.86,.18,1.1,.55l1.7,2.16c-.66,.77-1.39,1.41-2.21,1.93-.82,.52-1.67,.94-2.56,1.25-.89,.31-1.79,.53-2.71,.66-.92,.13-1.81,.19-2.68,.19-1.71,0-3.3-.28-4.78-.85-1.47-.57-2.75-1.41-3.84-2.52-1.09-1.11-1.94-2.49-2.57-4.13-.62-1.64-.94-3.54-.94-5.7,0-1.68,.27-3.26,.82-4.74,.54-1.48,1.32-2.77,2.34-3.86,1.02-1.1,2.26-1.96,3.72-2.6s3.12-.96,4.96-.96c1.55,0,2.98,.25,4.3,.74,1.31,.5,2.44,1.22,3.38,2.17,.94,.95,1.68,2.12,2.22,3.5s.8,2.96,.8,4.74c0,.9-.1,1.5-.29,1.81-.19,.31-.56,.47-1.1,.47h-15.24Zm11.3-3.58c0-.77-.11-1.49-.32-2.17-.22-.68-.54-1.28-.97-1.79-.43-.51-.98-.92-1.64-1.21-.66-.3-1.44-.44-2.32-.44-1.71,0-3.06,.49-4.04,1.46s-1.61,2.36-1.88,4.15h11.18Z"/><path d="M928.54,22.41c.77-1.47,1.68-2.63,2.74-3.47,1.06-.84,2.3-1.26,3.74-1.26,1.14,0,2.05,.25,2.74,.74l-.38,4.44c-.08,.29-.2,.49-.35,.61-.15,.12-.36,.18-.61,.18-.24,0-.6-.04-1.07-.12-.47-.08-.93-.12-1.38-.12-.66,0-1.24,.1-1.75,.29-.51,.19-.97,.47-1.38,.83-.41,.36-.77,.8-1.08,1.31-.31,.51-.6,1.1-.88,1.75v15.17h-5.93V18.13h3.48c.61,0,1.03,.11,1.27,.32,.24,.22,.4,.6,.48,1.16l.36,2.78Z"/><path d="M942.58,42.76V22.6l-2.14-.34c-.46-.1-.84-.26-1.12-.49-.28-.23-.42-.56-.42-1v-2.42h3.67v-1.82c0-1.41,.21-2.67,.64-3.79,.42-1.12,1.03-2.07,1.82-2.86,.79-.78,1.76-1.38,2.89-1.8,1.14-.42,2.42-.62,3.84-.62,1.14,0,2.19,.15,3.17,.46l-.12,2.98c-.02,.22-.08,.4-.19,.54-.11,.14-.26,.24-.44,.31s-.4,.12-.64,.14-.5,.04-.77,.04c-.71,0-1.33,.08-1.88,.23-.55,.15-1.02,.42-1.4,.79-.38,.38-.68,.87-.88,1.49-.2,.62-.3,1.38-.3,2.29v1.63h6.41v4.22h-6.22v20.18h-5.93Z"/><path d="M957.41,21.57c2.83-2.59,6.24-3.89,10.22-3.89,1.44,0,2.73,.24,3.86,.71,1.14,.47,2.1,1.13,2.88,1.97,.78,.84,1.38,1.84,1.79,3.01,.41,1.17,.61,2.45,.61,3.84v15.55h-2.69c-.56,0-.99-.08-1.3-.25-.3-.17-.54-.51-.72-1.02l-.53-1.78c-.62,.56-1.23,1.05-1.82,1.48s-1.21,.78-1.85,1.07c-.64,.29-1.32,.51-2.05,.66-.73,.15-1.53,.23-2.41,.23-1.04,0-2-.14-2.88-.42s-1.64-.7-2.28-1.26c-.64-.56-1.14-1.26-1.49-2.09-.35-.83-.53-1.8-.53-2.9,0-.62,.1-1.24,.31-1.86,.21-.62,.55-1.2,1.02-1.76,.47-.56,1.08-1.09,1.84-1.58,.75-.5,1.68-.93,2.77-1.3,1.1-.37,2.37-.67,3.83-.9,1.46-.23,3.12-.37,4.99-.42v-1.44c0-1.65-.35-2.87-1.06-3.66s-1.72-1.19-3.05-1.19c-.96,0-1.76,.11-2.39,.34-.63,.22-1.19,.48-1.67,.76-.48,.28-.92,.53-1.31,.76-.39,.22-.83,.34-1.31,.34-.42,0-.77-.11-1.06-.32-.29-.22-.52-.47-.7-.76l-1.06-1.9Zm13.58,10.68c-1.71,.08-3.15,.23-4.32,.44-1.17,.22-2.1,.49-2.81,.83-.7,.34-1.21,.73-1.51,1.18-.3,.45-.46,.94-.46,1.46,0,1.04,.31,1.78,.92,2.23,.62,.45,1.42,.67,2.41,.67,1.22,0,2.27-.22,3.16-.66,.89-.44,1.76-1.11,2.6-2v-4.15Z"/><path d="M999.98,23.34c-.18,.22-.35,.4-.52,.53-.17,.13-.41,.19-.73,.19s-.6-.09-.89-.28c-.29-.18-.63-.39-1.03-.62-.4-.23-.88-.44-1.43-.62-.55-.18-1.24-.28-2.05-.28-1.04,0-1.95,.19-2.74,.56-.78,.38-1.44,.92-1.96,1.62-.52,.7-.91,1.56-1.16,2.56-.26,1-.38,2.13-.38,3.4s.14,2.48,.42,3.5c.28,1.02,.68,1.88,1.21,2.58,.53,.7,1.17,1.22,1.92,1.58,.75,.36,1.6,.54,2.54,.54s1.71-.12,2.29-.35c.58-.23,1.08-.49,1.48-.77,.4-.28,.75-.54,1.04-.77,.3-.23,.63-.35,1-.35,.48,0,.84,.18,1.08,.55l1.7,2.16c-.66,.77-1.37,1.41-2.14,1.93-.77,.52-1.56,.94-2.39,1.25s-1.67,.53-2.54,.66c-.87,.13-1.74,.19-2.6,.19-1.52,0-2.95-.28-4.3-.85-1.34-.57-2.52-1.4-3.53-2.48-1.01-1.09-1.8-2.42-2.39-4-.58-1.58-.88-3.37-.88-5.39,0-1.81,.26-3.48,.78-5.03,.52-1.54,1.28-2.88,2.29-4.01,1.01-1.13,2.26-2.01,3.74-2.65s3.2-.96,5.14-.96,3.45,.3,4.84,.89c1.38,.59,2.63,1.44,3.73,2.54l-1.56,2.16Z"/><path d="M1009.61,31.19c.1,1.26,.32,2.36,.67,3.28,.35,.92,.82,1.68,1.39,2.28,.58,.6,1.26,1.05,2.05,1.34,.79,.3,1.67,.44,2.63,.44s1.79-.11,2.48-.34c.7-.22,1.3-.47,1.82-.74,.52-.27,.98-.52,1.37-.74,.39-.22,.77-.34,1.14-.34,.5,0,.86,.18,1.1,.55l1.7,2.16c-.66,.77-1.39,1.41-2.21,1.93-.82,.52-1.67,.94-2.56,1.25-.89,.31-1.79,.53-2.71,.66-.92,.13-1.81,.19-2.68,.19-1.71,0-3.3-.28-4.78-.85-1.47-.57-2.75-1.41-3.84-2.52-1.09-1.11-1.94-2.49-2.57-4.13-.62-1.64-.94-3.54-.94-5.7,0-1.68,.27-3.26,.82-4.74,.54-1.48,1.32-2.77,2.34-3.86,1.02-1.1,2.26-1.96,3.72-2.6s3.12-.96,4.96-.96c1.55,0,2.98,.25,4.3,.74,1.31,.5,2.44,1.22,3.38,2.17s1.68,2.12,2.22,3.5c.54,1.38,.8,2.96,.8,4.74,0,.9-.1,1.5-.29,1.81s-.56,.47-1.1,.47h-15.24Zm11.3-3.58c0-.77-.11-1.49-.32-2.17s-.54-1.28-.97-1.79c-.43-.51-.98-.92-1.64-1.21-.66-.3-1.44-.44-2.32-.44-1.71,0-3.06,.49-4.04,1.46-.98,.98-1.61,2.36-1.88,4.15h11.18Z"/></g><g><path class="cls-2" d="M179.6,220.08c6.44-10.34,13.29-11.81,15.91-22.22,2.76-10.95-10.13-21.04-18.82-26.45l56.84-93.8c.85-.96,2.17-2.13,3.86-2.57,.32-.08,.6-.26,.78-.53l1.81-2.69,1.46,.99c-.68,1.12-.96,2.11-.15,2.66,.96,.65,3.09,.47,4.03-.91,.94-1.38,.33-3.43-.63-4.08-.81-.55-1.62,.07-2.42,1.12l-1.46-1,5.3-7.89,1.51,1.03c-.68,1.12-.96,2.11-.15,2.66,.96,.65,3.09,.47,4.03-.91,.94-1.38,.33-3.43-.63-4.08-.81-.55-1.62,.07-2.42,1.12l-1.52-1.04,5.3-7.89,1.57,1.07c-.68,1.12-.96,2.11-.15,2.66,.96,.65,3.09,.47,4.03-.91s.33-3.43-.63-4.08c-.81-.55-1.62,.07-2.42,1.12l-1.58-1.07,4.56-6.79c.57-.85,.23-2-.7-2.41l-6.77-2.96c-.86-.38-1.66-.88-2.38-1.48l-5.64-4.77c-.78-.66-1.97-.45-2.48,.43l-4.09,7.09-1.66-.94c.58-1.18,.79-2.18-.06-2.66-1.01-.57-3.12-.22-3.94,1.23-.82,1.45-.06,3.44,.95,4.02,.86,.49,1.61-.2,2.32-1.31l1.65,.94-4.75,8.23-1.6-.91c.58-1.18,.79-2.18-.06-2.66-1.01-.57-3.12-.22-3.94,1.23-.82,1.45-.06,3.44,.95,4.02,.86,.49,1.61-.2,2.32-1.31l1.59,.91-4.75,8.23-1.54-.88c.58-1.18,.79-2.18-.06-2.66-1.01-.58-3.12-.22-3.94,1.23-.82,1.45-.06,3.44,.95,4.02,.86,.49,1.61-.2,2.32-1.31l1.53,.87-1.62,2.81c-.16,.28-.2,.61-.13,.93,.59,2.9-1.16,5.78-1.4,6.17,0,.02-.02,.03-.03,.05h0c-7.56,11.74-42.35,65.82-58.37,90.73-8.68-5.42-23.42-12.57-32.05-5.27-8.19,6.94-6.5,13.73-12.95,24.07-11.35,18.2-28.77,11.96-43.87,36.19-12.58,20.18-8.3,40.2,26.12,61.66,34.42,21.46,54.28,16.49,66.86-3.69,15.1-24.22,1.83-37.12,13.18-55.32Z"/><g id="Mic_1"><rect id="Body" class="cls-2" x="345.08" y="149.19" width="63.29" height="25.17" transform="translate(224.74 -219) rotate(45)"/><g id="Connector"><polygon class="cls-2" points="416.69 197.68 403.66 179.55 394.5 188.71 412.63 201.74 416.69 197.68"/><polygon id="Connect" class="cls-2" points="405.91 179.38 405.91 177.35 392.3 190.96 394.34 190.96 405.91 179.38"/></g><g id="Membran"><rect class="cls-5" x="334.74" y="117.99" width="24.17" height="27.77" transform="translate(8.34 283.86) rotate(-45)"/><path class="cls-2" d="M345.55,114.21l18.93,18.93-16.39,16.39-18.93-18.93,16.39-16.39m0-1.41l-17.8,17.8,20.34,20.34,17.8-17.8-20.34-20.34h0Z"/></g><g id="Frame"><rect x="391.74" y="168.16" width="8.63" height="25.89" transform="translate(244.06 -227.01) rotate(45)"/><rect x="353.31" y="127.57" width="4.32" height="25.89" transform="translate(203.47 -210.2) rotate(45)"/><rect x="338.39" y="112.65" width="4.32" height="25.89" transform="translate(188.55 -204.02) rotate(45)"/></g></g><g id="Amp"><rect class="cls-5" x="673.59" y="112.39" width="269.21" height="97.71"/><rect class="cls-1" x="673.59" y="170.59" width="269.21" height="21.94"/><path class="cls-2" d="M932.83,122.36v77.77h-249.27V122.36h249.27m9.97-9.97h-269.21v97.71h269.21V112.39h0Z"/><g id="Inputs_Mid"><circle class="cls-2" cx="764.2" cy="181.36" r="2.99"/><circle class="cls-2" cx="775.74" cy="181.36" r="2.99"/><circle class="cls-2" cx="787.27" cy="181.36" r="2.99"/><circle class="cls-2" cx="798.8" cy="181.36" r="2.99"/><circle class="cls-2" cx="810.34" cy="181.36" r="2.99"/><circle class="cls-2" cx="821.87" cy="181.36" r="2.99"/></g><g id="Inputs_Right"><circle class="cls-2" cx="890.4" cy="181.36" r="2.99"/></g><rect class="cls-2" x="703.97" y="175.38" width="6.98" height="11.96"/><rect class="cls-3" x="693.01" y="175.38" width="6.98" height="11.96"/><g id="Logo_Hofa"><path d="M800.52,138.17v16.27h-3.82v-6.88h-6.66v6.88h-3.82v-16.27h3.82v6.8h6.66v-6.8h3.82Z"/><path d="M819.78,146.29c0,1.18-.21,2.27-.62,3.28-.41,1.02-.98,1.89-1.72,2.64-.75,.75-1.64,1.34-2.68,1.76-1.05,.43-2.21,.63-3.48,.63s-2.44-.21-3.48-.63c-1.05-.43-1.95-1.01-2.69-1.76-.75-.75-1.32-1.63-1.73-2.64s-.62-2.11-.62-3.28,.21-2.27,.62-3.28,.98-1.89,1.73-2.63c.75-.74,1.65-1.33,2.69-1.76s2.21-.63,3.48-.63,2.44,.21,3.48,.64c1.05,.43,1.94,1.02,2.68,1.76,.75,.75,1.32,1.63,1.72,2.63,.41,1.02,.62,2.11,.62,3.27Zm-3.89,0c0-.8-.11-1.53-.32-2.17s-.52-1.19-.91-1.63c-.39-.44-.88-.79-1.45-1.03-.57-.24-1.22-.36-1.95-.36s-1.39,.12-1.96,.36c-.58,.24-1.05,.58-1.45,1.03-.39,.44-.69,.99-.91,1.63-.21,.64-.32,1.37-.32,2.17s.11,1.54,.32,2.18,.52,1.19,.91,1.63c.39,.45,.88,.79,1.45,1.02s1.23,.35,1.96,.35,1.38-.11,1.95-.35,1.05-.57,1.45-1.02c.39-.44,.69-.99,.91-1.63,.21-.64,.32-1.37,.32-2.18Z"/><path d="M825.84,141.07v4.12h5.6v2.92h-5.6v6.33h-3.82v-16.27h10.55v2.9h-6.73Z"/><path d="M848.08,154.43h-2.95c-.33,0-.6-.08-.8-.23-.2-.15-.35-.35-.46-.59l-.97-2.83h-6.23l-.97,2.83c-.08,.21-.23,.4-.45,.56s-.48,.25-.79,.25h-2.97l6.35-16.26h3.89l6.34,16.26Zm-6.04-6.21l-1.52-4.45c-.12-.28-.23-.62-.36-1s-.25-.8-.38-1.24c-.12,.45-.23,.88-.36,1.26-.13,.39-.25,.73-.36,1.01l-1.51,4.44h4.49Z"/><path class="cls-1" d="M768.31,138.11l14.07,8.15-14.07,8.15v-16.3Z"/></g></g><path class="cls-2" d="M481.89,279.91c-3.44,0-6.77-.41-9.98-1.23-24.69-6.29-37.77-35.2-47.33-56.32-4.4-9.73-8.2-18.13-11.9-21.7l2.78-2.88c4.25,4.1,8.01,12.41,12.77,22.93,9.22,20.37,21.85,48.27,44.67,54.09,14.86,3.79,32.85-2.19,53.48-17.77,6.91-5.22,13.73-10.45,20.32-15.5,37.47-28.71,69.82-53.51,104.45-66.94,38.4-14.9,74.59-13.33,113.89,4.95l-1.69,3.63c-83.33-38.76-141.09,5.5-214.21,61.54-6.6,5.06-13.42,10.29-20.35,15.51-17.33,13.09-33.06,19.68-46.9,19.68Z"/></g><g><circle class="cls-1" cx="104.09" cy="226.87" r="10"/><polyline class="cls-4" points="104.09 226.87 52.25 278.72 52.25 343.9"/></g><g><circle class="cls-1" cx="380.47" cy="161.52" r="10"/><polyline class="cls-4" points="380.47 161.52 367.42 140.41 367.42 59.54"/></g><g><circle class="cls-1" cx="465.4" cy="271.74" r="10"/><polyline class="cls-4" points="465.4 271.74 442.55 289.34 442.55 343.9"/></g><g><circle class="cls-1" cx="754.2" cy="119.25" r="10"/><polyline class="cls-4" points="754.2 119.25 731.35 101.65 731.35 59.54"/></g></svg>