<?xml version="1.0" encoding="utf-8"?>
<!-- Generator: Adobe Illustrator 27.0.1, SVG Export Plug-In . SVG Version: 6.00 Build 0)  -->
<svg version="1.1" id="Ebene_1" xmlns="http://www.w3.org/2000/svg" xmlns:xlink="http://www.w3.org/1999/xlink" x="0px" y="0px"
	 viewBox="0 0 1000 500" style="enable-background:new 0 0 1000 500;" xml:space="preserve">
<style type="text/css">
	.st0{fill:#FFFFFF;stroke:#000000;stroke-width:10;stroke-miterlimit:10;}
	.st1{fill:none;stroke:#FFFFFF;stroke-width:2;stroke-miterlimit:10;}
</style>
<g>
	<path d="M230.2,374.5h12.2c0,0,0-8.1,0-21.7s42.7-28.1,42.7-28.1V220h-54.8h-90.7v104.7c0,0,42.7,14.5,42.7,28.1s0,21.7,0,21.7
		H230.2z"/>
	<path d="M147,104.2v108.7h130.6V104.2H147z M196.4,168.9h-22.1v-19.3h22.1V168.9z M252.5,168.9h-22.1v-19.3h22.1V168.9z"/>
</g>
<g>
	<path d="M502.2,349.1h9.3c0,0,0-1.2,0-11.6s32.6-21.5,32.6-21.5v-79.9h-41.8h-69.2v79.9c0,0,32.6,11.1,32.6,21.5s0,11.6,0,11.6
		H502.2z"/>
	<path d="M438.7,183.8v47h99.7v-47H438.7z"/>
</g>
<g>
	<g>
		<circle class="st0" cx="792.2" cy="264" r="111.9"/>
	</g>
	<path d="M792.2,175.2c-49,0-88.8,39.8-88.8,88.8s39.8,88.8,88.8,88.8c49,0,88.8-39.8,88.8-88.8S841.3,175.2,792.2,175.2z
		 M721.1,274.8l-3.7-6.5l34-19.1l3.7,6.5L721.1,274.8z M748.9,308.3l-5.4-5.2l28.3-29.2l5.4,5.2L748.9,308.3z M796,337.2h-7.5V299
		h7.5V337.2z M835.6,308.3l-28.3-29.2l5.4-5.2l28.3,29.2L835.6,308.3z M829.4,255.7l3.7-6.5l34,19.1l-3.7,6.5L829.4,255.7z"/>
</g>
<polyline class="st1" points="212.3,104.2 212.3,115.3 225.6,115.3 225.6,129 212.3,129 212.3,212.8 "/>
</svg>
